# Blender 3.5.1
# www.blender.org
mtllib piramide2.mtl
o pyramids
v -1.647878 -0.002357 -6.799034
v -1.019870 -0.002357 -6.799034
v -1.647878 0.104774 -6.799034
v -1.019870 0.104774 -6.799034
v -1.647878 0.104774 -7.319833
v -1.019870 0.104774 -7.319833
v -1.647878 -0.002357 -7.319833
v -1.019870 -0.002357 -7.319833
v -1.580458 0.343394 -6.854943
v -1.087289 0.343394 -6.854943
v -1.087289 0.343394 -7.263923
v -1.580458 0.343394 -7.263923
v -1.580458 0.865675 -6.854943
v -1.087289 0.865675 -6.854943
v -1.087289 0.865675 -7.263923
v -1.580458 0.865675 -7.263923
v -1.526613 1.083207 -6.899596
v -1.141134 1.083207 -6.899596
v -1.141134 1.083207 -7.219270
v -1.526613 1.083207 -7.219270
v -1.526613 1.327513 -6.899596
v -1.141134 1.327513 -6.899596
v -1.141134 1.327512 -7.219270
v -1.526613 1.327512 -7.219270
v -1.560804 1.524294 -6.871242
v -1.106943 1.524294 -6.871242
v -1.106943 1.524293 -7.247624
v -1.560804 1.524293 -7.247624
v -1.500564 3.042881 -6.921198
v -1.167183 3.042881 -6.921198
v -1.167183 3.042881 -7.197668
v -1.500564 3.042881 -7.197668
v -1.526725 3.062871 -6.899503
v -1.141022 3.062871 -6.899503
v -1.141022 3.062871 -7.219363
v -1.526725 3.062871 -7.219363
v -1.526725 3.085724 -6.899503
v -1.141022 3.085724 -6.899503
v -1.141022 3.085724 -7.219363
v -1.526725 3.085724 -7.219363
v -1.508660 3.099838 -6.914483
v -1.159086 3.099838 -6.914483
v -1.159086 3.099838 -7.204381
v -1.508660 3.099838 -7.204381
v -1.087289 0.627023 -7.263923
v -1.087289 0.627023 -6.854943
v -1.580458 0.627023 -6.854943
v -1.580458 0.627023 -7.263923
v -1.087289 0.582046 -7.263923
v -1.087289 0.582046 -6.854943
v -1.580458 0.582046 -6.854943
v -1.580458 0.582046 -7.263923
v -1.106658 0.583812 -7.247860
v -1.106658 0.583812 -6.871006
v -1.106658 0.625257 -7.247860
v -1.106658 0.625257 -6.871006
v -1.561089 0.583812 -6.871006
v -1.561089 0.625257 -6.871006
v -1.561089 0.583812 -7.247860
v -1.561089 0.625257 -7.247860
v -1.141134 1.222984 -7.219270
v -1.141134 1.222985 -6.899596
v -1.526613 1.222985 -6.899596
v -1.526613 1.222984 -7.219270
v -1.141134 1.187734 -7.219270
v -1.141134 1.187734 -6.899596
v -1.526613 1.187734 -6.899596
v -1.526613 1.187734 -7.219270
v -1.155544 1.189052 -7.207319
v -1.155544 1.189053 -6.911546
v -1.155544 1.221666 -7.207319
v -1.155544 1.221667 -6.911546
v -1.512203 1.189053 -6.911546
v -1.512203 1.221667 -6.911546
v -1.512203 1.189052 -7.207319
v -1.512203 1.221666 -7.207319
v 0.856393 -0.002357 -6.799034
v 1.484401 -0.002357 -6.799034
v 0.856393 0.104774 -6.799034
v 1.484401 0.104774 -6.799034
v 0.856393 0.104774 -7.319833
v 1.484401 0.104774 -7.319833
v 0.856393 -0.002357 -7.319833
v 1.484401 -0.002357 -7.319833
v 0.923812 0.343394 -6.854943
v 1.416982 0.343394 -6.854943
v 1.416982 0.343394 -7.263923
v 0.923812 0.343394 -7.263923
v 0.923812 0.865675 -6.854943
v 1.416982 0.865675 -6.854943
v 1.416982 0.865675 -7.263923
v 0.923812 0.865675 -7.263923
v 0.977657 1.083207 -6.899596
v 1.363137 1.083207 -6.899596
v 1.363137 1.083207 -7.219270
v 0.977657 1.083207 -7.219270
v 0.977657 1.327513 -6.899596
v 1.363137 1.327513 -6.899596
v 1.363137 1.327512 -7.219270
v 0.977657 1.327512 -7.219270
v 0.943466 1.524294 -6.871242
v 1.397328 1.524294 -6.871242
v 1.397328 1.524293 -7.247624
v 0.943466 1.524293 -7.247624
v 1.003707 3.042881 -6.921198
v 1.337088 3.042881 -6.921198
v 1.337088 3.042881 -7.197668
v 1.003707 3.042881 -7.197668
v 0.977546 3.062871 -6.899503
v 1.363249 3.062871 -6.899503
v 1.363249 3.062871 -7.219363
v 0.977546 3.062871 -7.219363
v 0.977546 3.085724 -6.899503
v 1.363249 3.085724 -6.899503
v 1.363249 3.085724 -7.219363
v 0.977546 3.085724 -7.219363
v 0.995611 3.099838 -6.914483
v 1.345184 3.099838 -6.914483
v 1.345184 3.099838 -7.204381
v 0.995611 3.099838 -7.204381
v 1.416982 0.627023 -7.263923
v 1.416982 0.627023 -6.854943
v 0.923812 0.627023 -6.854943
v 0.923812 0.627023 -7.263923
v 1.416982 0.582046 -7.263923
v 1.416982 0.582046 -6.854943
v 0.923812 0.582046 -6.854943
v 0.923812 0.582046 -7.263923
v 1.397613 0.583812 -7.247860
v 1.397613 0.583812 -6.871006
v 1.397613 0.625257 -7.247860
v 1.397613 0.625257 -6.871006
v 0.943182 0.583812 -6.871006
v 0.943182 0.625257 -6.871006
v 0.943182 0.583812 -7.247860
v 0.943182 0.625257 -7.247860
v 1.363137 1.222984 -7.219270
v 1.363137 1.222985 -6.899596
v 0.977657 1.222985 -6.899596
v 0.977657 1.222984 -7.219270
v 1.363137 1.187734 -7.219270
v 1.363137 1.187734 -6.899596
v 0.977657 1.187734 -6.899596
v 0.977657 1.187734 -7.219270
v 1.348727 1.189052 -7.207319
v 1.348727 1.189053 -6.911546
v 1.348727 1.221666 -7.207319
v 1.348727 1.221667 -6.911546
v 0.992068 1.189053 -6.911546
v 0.992068 1.221667 -6.911546
v 0.992068 1.189052 -7.207319
v 0.992068 1.221666 -7.207319
v -0.639744 0.936392 -3.900283
v 0.639744 0.936392 -3.900283
v -0.639744 2.325119 -5.739948
v 0.639744 2.325119 -5.739948
v -0.639744 2.325119 -6.672821
v 0.639744 2.325119 -6.672821
v -0.639744 0.936392 -6.672821
v 0.639744 0.936392 -6.672821
v 0.253635 2.325119 -5.739948
v 0.253635 2.325119 -6.672821
v 0.253635 0.936392 -6.672821
v 0.253635 0.936392 -3.900283
v -0.253635 2.325119 -5.739948
v -0.253635 2.325119 -6.672821
v -0.253635 0.936392 -6.672821
v -0.253635 0.936392 -3.900283
v 0.253635 1.993193 -6.672821
v -0.253635 1.993193 -6.672821
v -0.639744 1.993193 -6.672821
v -0.639744 2.325120 -3.900283
v -0.253635 2.325120 -3.900283
v 0.253635 2.325120 -3.900283
v 0.639744 2.325120 -3.900283
v 0.639744 1.993193 -6.672821
v 0.573760 1.993193 -6.672821
v 0.320139 1.993193 -6.672821
v 0.253635 2.261502 -6.672821
v 0.253635 2.059109 -6.672821
v -0.253635 2.261502 -6.672821
v -0.253635 2.059109 -6.672821
v -0.314630 1.993193 -6.672821
v -0.578165 1.993193 -6.672821
v 0.573760 1.002117 -6.672821
v 0.573760 2.261502 -6.672821
v -0.578165 2.261502 -6.672821
v -0.578165 1.000365 -6.672821
v -0.314630 0.996655 -6.672821
v -0.314630 2.059109 -6.672821
v 0.320139 2.059109 -6.672821
v 0.320139 1.002432 -6.672821
v -0.639744 2.325119 -6.688724
v -0.253635 2.325119 -6.688724
v -0.253635 2.261502 -6.688724
v -0.578165 2.261502 -6.688725
v 0.639744 1.993193 -6.688724
v 0.573760 1.993193 -6.688724
v 0.573760 2.261502 -6.688725
v 0.639744 2.325119 -6.688724
v 0.253635 2.261502 -6.688724
v 0.253635 2.325119 -6.688724
v -0.578165 1.993193 -6.688724
v -0.639744 1.993193 -6.688724
v -0.578165 1.000365 -6.688725
v -0.639744 0.936392 -6.688724
v 0.639744 0.936392 -6.688724
v 0.573760 1.002117 -6.688725
v 0.253635 1.993193 -6.688724
v 0.253635 0.936392 -6.688724
v 0.320139 1.993193 -6.688724
v 0.320139 1.002432 -6.688725
v 0.253635 2.059109 -6.688724
v 0.320139 2.059109 -6.688725
v -0.253635 2.059109 -6.688724
v -0.253635 1.993193 -6.688724
v -0.314630 1.993193 -6.688724
v -0.314630 2.059109 -6.688725
v -0.314630 0.996655 -6.688725
v -0.253635 0.936392 -6.688724
v -2.747427 0.964177 -5.843201
v -2.099600 0.964177 -5.843201
v -2.747427 1.121392 -5.843201
v -2.099600 1.121392 -5.843201
v -2.747427 1.121392 -6.491029
v -2.099600 1.121392 -6.491029
v -2.747427 0.964177 -6.491029
v -2.099600 0.964177 -6.491029
v -2.701069 1.272835 -5.889559
v -2.145958 1.272835 -5.889559
v -2.145958 1.272835 -6.444670
v -2.701069 1.272835 -6.444670
v -2.701069 1.423687 -5.889559
v -2.145958 1.423687 -5.889559
v -2.145958 1.423687 -6.444670
v -2.701069 1.423687 -6.444670
v -2.747272 1.541524 -5.843357
v -2.099755 1.541524 -5.843357
v -2.099755 1.541524 -6.490873
v -2.747272 1.541524 -6.490873
v -2.747272 1.646939 -5.843357
v -2.099755 1.646939 -5.843357
v -2.099755 1.646939 -6.490873
v -2.747272 1.646939 -6.490873
v -2.790530 1.659078 -5.800099
v -2.056497 1.659078 -5.800099
v -2.056497 1.659078 -6.534131
v -2.790530 1.659078 -6.534131
v -2.790530 1.695498 -5.800099
v -2.056497 1.695498 -5.800099
v -2.056497 1.695498 -6.534131
v -2.790530 1.695498 -6.534131
v -2.764595 1.707623 -5.826034
v -2.082432 1.707623 -5.826034
v -2.082432 1.707623 -6.508195
v -2.764595 1.707623 -6.508195
v 2.141600 0.964177 -5.843201
v 2.789428 0.964177 -5.843201
v 2.141600 1.121392 -5.843201
v 2.789428 1.121392 -5.843201
v 2.141600 1.121392 -6.491029
v 2.789428 1.121392 -6.491029
v 2.141600 0.964177 -6.491029
v 2.789428 0.964177 -6.491029
v 2.187958 1.272835 -5.889559
v 2.743070 1.272835 -5.889559
v 2.743070 1.272835 -6.444670
v 2.187958 1.272835 -6.444670
v 2.187958 1.423687 -5.889559
v 2.743070 1.423687 -5.889559
v 2.743070 1.423687 -6.444670
v 2.187958 1.423687 -6.444670
v 2.141755 1.541524 -5.843357
v 2.789272 1.541524 -5.843357
v 2.789272 1.541524 -6.490873
v 2.141755 1.541524 -6.490873
v 2.141755 1.646939 -5.843357
v 2.789272 1.646939 -5.843357
v 2.789272 1.646939 -6.490873
v 2.141755 1.646939 -6.490873
v 2.098497 1.659078 -5.800099
v 2.832530 1.659078 -5.800099
v 2.832530 1.659078 -6.534131
v 2.098497 1.659078 -6.534131
v 2.098497 1.695498 -5.800099
v 2.832530 1.695498 -5.800099
v 2.832530 1.695498 -6.534131
v 2.098497 1.695498 -6.534131
v 2.124432 1.707623 -5.826034
v 2.806595 1.707623 -5.826034
v 2.806595 1.707623 -6.508195
v 2.124432 1.707623 -6.508195
v -0.392691 0.933761 -6.637408
v 0.392691 0.933761 -6.637408
v -0.392691 0.933760 -6.713184
v 0.392691 0.933760 -6.713184
v -0.392691 0.933760 -6.749817
v 0.392691 0.933760 -6.749817
v -0.392691 0.898819 -6.749817
v 0.392691 0.898819 -6.749817
v -0.392691 0.898819 -6.781546
v 0.392691 0.898819 -6.781546
v -0.392691 0.863279 -6.781549
v 0.392691 0.863279 -6.781549
v -0.392691 0.863279 -6.807993
v 0.392691 0.863279 -6.807993
v -0.392691 0.827442 -6.807996
v 0.392691 0.827442 -6.807996
v -0.392691 0.827442 -6.834108
v 0.392691 0.827442 -6.834108
v -0.392691 0.789381 -6.834108
v 0.392691 0.789381 -6.834108
v -0.392691 0.789381 -6.867270
v 0.392691 0.789381 -6.867270
v -0.392691 0.750906 -6.867273
v 0.392691 0.750906 -6.867273
v -0.392691 0.750906 -6.896196
v 0.392691 0.750906 -6.896196
v -0.392691 0.709073 -6.896198
v 0.392691 0.709073 -6.896198
v -0.392691 0.709073 -6.930871
v 0.392691 0.709073 -6.930871
v -0.392691 0.673892 -6.930874
v 0.392691 0.673892 -6.930874
v -0.392691 0.673892 -6.959440
v 0.392691 0.673892 -6.959440
v -0.392691 0.634883 -6.959440
v 0.392691 0.634883 -6.959440
v -0.392691 0.634883 -6.987344
v 0.392691 0.634883 -6.987344
v -0.392691 0.596406 -6.987344
v 0.392691 0.596406 -6.987344
v -0.392691 0.596406 -7.016530
v 0.392691 0.596406 -7.016530
v -0.392691 0.560384 -7.016530
v 0.392691 0.560384 -7.016530
v -0.392691 0.560384 -7.049451
v 0.392691 0.560384 -7.049451
v -0.392691 0.524334 -7.049451
v 0.392691 0.524334 -7.049451
v -0.392691 0.524334 -7.073345
v 0.392691 0.524334 -7.073345
v -0.392691 0.479134 -7.073345
v 0.392691 0.479134 -7.073345
v -0.392691 0.479134 -7.111458
v 0.392691 0.479134 -7.111458
v -0.392691 0.440705 -7.111458
v 0.392691 0.440705 -7.111458
v -0.392691 0.440705 -7.141843
v 0.392691 0.440705 -7.141843
v -0.392691 0.399427 -7.141843
v 0.392691 0.399427 -7.141843
v -0.392691 0.399427 -7.176041
v 0.392691 0.399427 -7.176041
v -0.392691 0.354502 -7.176041
v 0.392691 0.354502 -7.176041
v -0.392691 0.354502 -7.209194
v 0.392691 0.354502 -7.209194
v -0.392691 0.310329 -7.209194
v 0.392691 0.310329 -7.209194
v -0.392691 0.310329 -7.244278
v 0.392691 0.310329 -7.244278
v -0.392691 0.259932 -7.244278
v 0.392691 0.259932 -7.244278
v -0.392691 0.259932 -7.284379
v 0.392691 0.259932 -7.284379
v -0.392691 0.219654 -7.284379
v 0.392691 0.219654 -7.284379
v -0.392691 0.219654 -7.316120
v 0.392691 0.219654 -7.316120
v -0.392691 0.174652 -7.316120
v 0.392691 0.174652 -7.316120
v -0.392691 0.174652 -7.349916
v 0.392691 0.174652 -7.349916
v -0.392691 0.134130 -7.349916
v 0.392691 0.134130 -7.349916
v -0.392691 0.134130 -7.385499
v 0.392691 0.134130 -7.385499
v -0.392691 0.092877 -7.385499
v 0.392691 0.092877 -7.385499
v -0.392691 0.092877 -7.415495
v 0.392691 0.092877 -7.415495
v -0.392691 0.047043 -7.415495
v 0.392691 0.047043 -7.415495
v -0.392691 0.047043 -7.447902
v 0.392691 0.047043 -7.447902
v -0.392691 -0.001065 -7.447902
v 0.392691 -0.001065 -7.447902
v -3.234602 -0.002545 -5.705823
v 3.234602 -0.002545 -5.705823
v -3.234602 0.997455 -5.705823
v 3.234602 0.997455 -5.705823
v -3.234602 0.997455 -6.705823
v 3.234602 0.997455 -6.705823
v -3.234602 -0.002546 -6.705823
v 3.234602 -0.002546 -6.705823
v 3.234602 0.166611 -6.705823
v -3.234602 0.166611 -6.705823
v -3.234602 0.166612 -5.705823
v 3.234602 0.166612 -5.705823
v 3.234602 0.828297 -6.705823
v -3.234602 0.828297 -6.705823
v -3.234602 0.828298 -5.705823
v 3.234602 0.828298 -5.705823
v 3.162974 0.287959 -6.666689
v -3.162974 0.287959 -6.666689
v -3.162974 0.287960 -5.744957
v 3.162974 0.287960 -5.744957
v 3.162974 0.706950 -6.666689
v -3.162974 0.706950 -6.666689
v -3.162974 0.706950 -5.744957
v 3.162974 0.706950 -5.744957
v 0.619599 0.997455 -6.705823
v 0.619599 0.828297 -6.705823
v 0.619599 0.706950 -6.666689
v 0.619599 0.287959 -6.666689
v 0.619599 0.166611 -6.705823
v 0.619599 -0.002546 -6.705823
v 0.626536 -0.002545 -5.705823
v 3.234602 0.828298 -5.705823
v -0.361459 0.997455 -5.705823
v -0.361459 -0.002545 -5.705823
v 0.626536 0.997455 -5.705823
v -0.619599 0.997455 -6.705823
v -0.619599 0.828297 -6.705823
v -0.619599 0.706950 -6.666689
v -0.619599 0.287959 -6.666689
v -0.619599 0.166611 -6.705823
v -0.619599 -0.002546 -6.705823
v -0.626536 -0.002545 -5.705823
v 0.361458 -0.002545 -5.705823
v -0.626536 0.997455 -5.705823
v 0.626536 -0.002545 -5.705823
v -0.626536 0.997455 -5.705823
v 0.357456 0.997455 -6.705823
v 0.357456 0.828297 -6.705823
v 0.357456 0.706950 -6.666689
v 0.357456 0.287959 -6.666689
v 0.357456 0.166611 -6.705823
v 0.357456 -0.002546 -6.705823
v 0.361458 -0.002545 -5.705823
v -3.162974 0.706950 -5.744957
v -3.234602 0.828298 -5.705823
v 0.361458 0.997455 -5.705823
v -0.357457 0.997455 -6.705823
v -0.357457 0.828297 -6.705823
v -0.357457 0.706950 -6.666689
v -0.357457 0.287959 -6.666689
v -0.357457 0.166611 -6.705823
v -0.357457 -0.002546 -6.705823
v -0.361459 -0.002545 -5.705823
v -0.361459 0.997455 -5.705823
v -0.619599 0.061747 -7.450143
v -0.357457 0.061747 -7.450143
v -0.357457 0.045718 -7.450143
v -0.619599 0.045718 -7.450143
v -0.619599 0.037033 -7.450142
v -0.357457 0.037033 -7.450142
v -0.619599 0.021716 -7.450142
v -0.357457 0.021716 -7.450142
v -0.619599 0.011193 -7.450143
v -0.357457 0.011193 -7.450143
v -0.619599 -0.002546 -7.450143
v -0.357457 -0.002546 -7.450143
v 0.357456 0.061747 -7.450143
v 0.619599 0.061747 -7.450143
v 0.619599 0.045718 -7.450143
v 0.357456 0.045718 -7.450143
v 0.357456 0.037033 -7.450142
v 0.619599 0.037033 -7.450142
v 0.357456 0.021716 -7.450142
v 0.619599 0.021716 -7.450142
v 0.357456 0.011193 -7.450143
v 0.619599 0.011193 -7.450143
v 0.357456 -0.002546 -7.450143
v 0.619599 -0.002546 -7.450143
v -1.709783 0.985582 -5.739947
v -0.629860 0.985582 -5.739947
v -1.709783 1.612172 -5.739947
v -0.629860 1.612172 -5.739947
v -1.709783 1.612172 -6.544524
v -0.629860 1.612172 -6.544524
v -1.709783 0.985582 -6.544524
v -0.629860 0.985582 -6.544524
v -1.709783 1.986439 -5.739947
v -0.629860 1.986439 -5.739947
v -0.629860 1.986439 -6.400015
v -1.709783 1.986439 -6.400015
v -1.709783 3.296180 -5.739947
v -0.629860 3.296180 -5.739947
v -0.629860 3.296180 -6.400015
v -1.709783 3.296180 -6.400015
v -1.759584 3.326759 -5.707257
v -0.580060 3.326759 -5.707257
v -0.580060 3.326759 -6.432707
v -1.759584 3.326759 -6.432707
v -1.759584 3.370806 -5.707257
v -0.580060 3.370806 -5.707257
v -0.580060 3.370806 -6.432707
v -1.759584 3.370806 -6.432707
v -1.714452 3.391055 -5.736885
v -0.625192 3.391055 -5.736885
v -0.625192 3.391055 -6.403081
v -1.714452 3.391055 -6.403081
v 0.654307 1.620030 -5.751059
v 0.654307 1.604316 -5.751059
v 0.665418 1.604316 -5.739947
v 0.665418 1.620030 -5.739947
v 1.723119 1.620030 -5.739947
v 1.723119 1.604316 -5.739947
v 1.734230 1.604316 -5.751059
v 1.734230 1.620030 -5.751059
v 0.665400 1.619617 -6.541650
v 0.665402 1.604192 -6.544524
v 0.654307 1.604326 -6.533425
v 0.654307 1.620057 -6.529529
v 1.734230 1.620057 -6.529529
v 1.734230 1.604313 -6.533407
v 1.723127 1.604187 -6.544524
v 1.723137 1.619617 -6.541650
v 0.665418 0.985582 -5.739947
v 0.654307 0.985582 -5.751059
v 1.734230 0.985582 -5.751059
v 1.723119 0.985582 -5.739947
v 0.654307 0.985582 -6.533412
v 0.665418 0.985582 -6.544524
v 1.723119 0.985582 -6.544524
v 1.734230 0.985582 -6.533412
v 0.654307 1.994297 -5.751059
v 0.654307 1.978583 -5.751059
v 0.665418 1.978583 -5.739947
v 0.665418 1.994297 -5.739947
v 1.723119 1.994297 -5.739947
v 1.723119 1.978583 -5.739947
v 1.734230 1.978583 -5.751059
v 1.734230 1.994297 -5.751059
v 1.734230 1.994334 -6.388852
v 1.734230 1.978618 -6.391178
v 1.723104 1.978975 -6.402898
v 1.723127 1.994426 -6.400015
v 0.665410 1.994426 -6.400015
v 0.665446 1.978965 -6.402901
v 0.654307 1.978624 -6.391184
v 0.654307 1.994334 -6.388852
v 0.646533 3.300954 -5.745297
v 0.654307 3.287354 -5.750844
v 0.665035 3.287911 -5.739947
v 0.657740 3.302299 -5.733407
v 1.730797 3.302299 -5.733407
v 1.723270 3.287734 -5.739947
v 1.734230 3.287462 -5.750708
v 1.742004 3.300954 -5.745297
v 1.742003 3.300954 -6.394667
v 1.734230 3.287353 -6.389121
v 1.723502 3.287911 -6.400015
v 1.730796 3.302299 -6.406557
v 0.657740 3.302299 -6.406557
v 0.665266 3.287734 -6.400015
v 0.654307 3.287462 -6.389256
v 0.646533 3.300954 -6.394667
v 0.604506 3.335477 -5.718018
v 0.612170 3.322053 -5.722592
v 0.627868 3.320642 -5.713799
v 0.615234 3.335027 -5.707257
v 1.773302 3.335027 -5.707257
v 1.761076 3.320748 -5.713685
v 1.776257 3.321985 -5.722813
v 1.784030 3.335477 -5.718018
v 1.784030 3.335477 -6.421948
v 1.776367 3.322053 -6.417374
v 1.760670 3.320642 -6.426167
v 1.773302 3.335027 -6.432707
v 0.615234 3.335027 -6.432707
v 0.627460 3.320748 -6.426280
v 0.612280 3.321985 -6.417152
v 0.604506 3.335477 -6.421948
v 0.613291 3.374748 -5.723086
v 0.604506 3.361669 -5.718105
v 0.615299 3.362178 -5.707257
v 0.630202 3.375869 -5.714664
v 1.758335 3.375869 -5.714664
v 1.773035 3.362015 -5.707257
v 1.784030 3.361816 -5.717929
v 1.775246 3.374748 -5.723086
v 1.775246 3.374748 -6.416880
v 1.784030 3.361669 -6.421859
v 1.773238 3.362178 -6.432707
v 1.758335 3.375869 -6.425303
v 0.630202 3.375869 -6.425303
v 0.615502 3.362015 -6.432707
v 0.604506 3.361816 -6.422036
v 0.613291 3.374748 -6.416879
v 0.642307 3.387765 -5.741437
v 0.652568 3.386320 -5.729957
v 0.657673 3.391055 -5.744918
v 1.730863 3.391055 -5.744918
v 1.736027 3.386415 -5.730094
v 1.746229 3.387765 -5.741437
v 1.730675 3.391055 -6.394857
v 1.746229 3.387765 -6.398529
v 1.736027 3.386415 -6.409872
v 0.657673 3.391055 -6.395047
v 0.652509 3.386415 -6.409872
v 0.642307 3.387765 -6.398529
v -3.234602 0.828298 -5.705823
v -3.162974 0.706950 -5.744957
v 0.626536 -0.002545 -5.705823
v -0.626536 0.997455 -5.705823
v 0.361458 -0.002545 -5.705823
v -0.361459 -0.002545 -5.705823
v -0.361459 0.997455 -5.705823
v 3.234602 0.828298 -5.705823
v 3.162974 0.706950 -5.744957
v -3.234602 -0.002545 -5.705823
v -3.234602 0.166612 -5.705823
v -0.626536 -0.002545 -5.705823
v 3.234602 -0.002545 -5.705823
v 3.234602 0.166612 -5.705823
v -3.234602 0.997455 -5.705823
v -3.162974 0.287960 -5.744957
v 0.626536 0.997455 -5.705823
v 0.361458 0.997455 -5.705823
v 3.234602 0.997455 -5.705823
v 3.162974 0.287960 -5.744957
v 3.162974 0.706950 -5.744957
v 3.234602 0.997455 3.996403
v -3.234602 0.997455 3.996403
v -3.234602 -0.002545 -5.705823
v -3.234602 0.166612 -5.705823
v -0.626536 -0.002545 -5.705823
v 3.234602 -0.002545 -5.705823
v 3.234602 0.166612 -5.705823
v -3.234602 0.997455 -5.705823
v -3.162974 0.287960 -5.744957
v 0.626536 0.997455 -5.705823
v 0.361458 0.997455 -5.705823
v 3.234602 0.997455 -5.705823
v 3.162974 0.287960 -5.744957
v -3.234602 0.997455 3.996403
v 3.234602 0.997455 3.996403
v 3.234602 0.997455 -5.705823
v -3.234602 0.997455 -5.705823
vn -0.0000 -0.0000 1.0000
vn -0.0000 1.0000 -0.0000
vn -0.0000 -0.0000 -1.0000
vn 1.0000 -0.0000 -0.0000
vn -1.0000 -0.0000 -0.0000
vn -0.0000 0.2281 0.9736
vn 0.9623 0.2719 -0.0000
vn -0.0000 0.2281 -0.9736
vn -0.9623 0.2719 -0.0000
vn -0.0000 0.2011 0.9796
vn 0.9707 0.2403 -0.0000
vn -0.0000 0.2011 -0.9796
vn -0.9707 0.2403 -0.0000
vn -0.0000 -0.1426 0.9898
vn 0.9852 -0.1712 -0.0000
vn -0.0000 -0.1426 -0.9898
vn -0.9852 -0.1712 -0.0000
vn -0.0000 0.0329 0.9995
vn 0.9992 0.0396 -0.0000
vn -0.0000 0.0329 -0.9995
vn -0.9992 0.0396 -0.0000
vn -0.0000 -0.7354 0.6776
vn 0.6072 -0.7946 -0.0000
vn -0.0000 -0.7354 -0.6776
vn -0.6072 -0.7946 -0.0000
vn -0.0000 0.7278 0.6858
vn 0.6157 0.7880 -0.0000
vn -0.0000 0.7279 -0.6857
vn -0.6157 0.7880 -0.0000
vn 0.0908 0.9959 -0.0000
vn 0.0908 -0.9959 -0.0000
vn -0.0000 0.9940 0.1093
vn -0.0000 -0.9940 0.1093
vn -0.0908 0.9959 -0.0000
vn -0.0908 -0.9959 -0.0000
vn -0.0000 0.9940 -0.1093
vn -0.0000 -0.9940 -0.1093
vn 0.0911 0.9958 -0.0000
vn 0.0911 -0.9958 -0.0000
vn -0.0000 0.9940 0.1096
vn -0.0000 -0.9940 0.1096
vn -0.0911 0.9958 -0.0000
vn -0.0911 -0.9958 -0.0000
vn -0.0000 0.9940 -0.1096
vn -0.0000 -0.9940 -0.1096
vn -0.0000 0.7071 0.7071
vn -0.0000 0.8944 0.4472
vn -0.0000 -0.9929 0.1189
vn -0.0000 -1.0000 -0.0000
vn 0.0012 1.0000 -0.0000
vn 0.0141 0.9999 -0.0000
vn -0.0000 0.2927 0.9562
vn 0.9562 0.2927 -0.0000
vn -0.0000 0.2927 -0.9562
vn -0.9562 0.2927 -0.0000
vn -0.0000 -0.3650 0.9310
vn 0.9310 -0.3650 -0.0000
vn -0.0000 -0.3650 -0.9310
vn -0.9310 -0.3650 -0.0000
vn -0.0000 -0.9628 0.2702
vn 0.2702 -0.9628 -0.0000
vn -0.0000 -0.9628 -0.2702
vn -0.2702 -0.9628 -0.0000
vn -0.0000 0.9059 0.4235
vn 0.4235 0.9059 -0.0000
vn -0.0000 0.9059 -0.4235
vn -0.4235 0.9059 -0.0000
vn -0.0000 0.0001 -1.0000
vn -0.0000 -0.1324 -0.9912
vn -0.0000 -0.1036 -0.9946
vn 0.9778 -0.2096 -0.0000
vn -0.9778 -0.2096 -0.0000
vn -0.0000 0.1036 -0.9946
vn -0.0000 0.1324 -0.9912
vn -0.9778 0.2096 -0.0000
vn 0.9778 0.2096 -0.0000
vn -0.0000 -0.0730 -0.9973
vn -0.0000 -0.0900 -0.9959
vn -0.9883 -0.1525 0.0001
vn -0.9883 -0.1525 -0.0000
vn 0.9883 -0.1525 -0.0001
vn 0.9883 -0.1525 -0.0000
vn 0.0001 0.0900 -0.9959
vn -0.0000 0.0730 -0.9973
vn -0.9883 0.1525 -0.0002
vn -0.9883 0.1525 -0.0000
vn 0.9883 0.1525 0.0002
vn 0.9883 0.1525 -0.0000
vn -0.0001 -0.0900 -0.9959
vn -0.0000 0.0900 -0.9959
vn 0.5105 -0.8139 -0.2775
vn -0.1432 0.5501 0.8227
vn 0.8073 -0.2354 0.5411
vn 0.0986 0.8195 0.5645
vn -0.4271 -0.7235 -0.5423
vn 0.0576 -0.9967 -0.0573
vn 0.5889 -0.7714 -0.2412
vn 0.8259 -0.0000 0.5639
vn 0.3533 0.8969 -0.2660
vn -0.9794 0.0004 -0.2021
vn -0.8045 -0.0000 -0.5939
vn -0.0567 0.9965 0.0615
vn -0.5704 -0.6021 -0.5586
vn 0.3810 0.6886 -0.6169
vn -0.9726 -0.0000 -0.2326
vn -0.0000 -0.0001 -1.0000
vn 0.9674 -0.0000 0.2531
vn -0.5775 -0.7256 -0.3741
vn 0.8160 0.0009 0.5781
vn 0.8052 -0.0000 0.5930
vn -0.8147 -0.0000 -0.5799
vn 0.9718 -0.0000 0.2357
vn -0.4724 0.8813 -0.0126
vn -0.0426 -0.4517 -0.8911
vn 0.9846 -0.1369 -0.1084
vn 0.3955 0.6701 0.6281
vn 0.2233 -0.7636 -0.6059
vn -0.4663 -0.7899 -0.3983
vn -0.2202 0.7667 0.6031
vn 0.0030 -0.8792 -0.4764
vn -0.2950 0.9515 0.0870
vn -0.0000 -0.1335 -0.9910
vn -0.0000 -0.0723 -0.9974
vn -0.0000 0.0723 -0.9974
vn -0.0000 0.1335 -0.9910
vn -0.2564 -0.2565 -0.9319
vn -0.0000 -0.8969 -0.4422
vn -0.0000 0.6225 -0.7826
vn -0.0000 0.3602 -0.9329
vn -0.0000 -0.7303 0.6831
vn 0.5233 -0.8522 -0.0000
vn -0.0000 -0.7303 -0.6831
vn -0.5232 -0.8522 -0.0000
vn -0.0000 0.8256 0.5643
vn 0.4093 0.9124 -0.0000
vn -0.0000 0.8256 -0.5643
vn -0.4093 0.9124 -0.0000
vn -0.7072 -0.0000 0.7071
vn -0.7071 -0.0000 0.7071
vn 0.7072 -0.0000 0.7071
vn 0.7071 -0.0000 0.7071
vn -0.7072 0.2492 -0.6616
vn -0.7070 0.2517 -0.6609
vn -0.7073 0.2480 -0.6619
vn -0.7071 0.2504 -0.6613
vn 0.0001 0.0045 -1.0000
vn -0.0000 0.3535 -0.9354
vn -0.0000 0.0046 -1.0000
vn -0.7075 0.0042 -0.7067
vn -0.7075 0.0034 -0.7067
vn -0.7072 -0.0000 -0.7071
vn 0.7073 0.2516 -0.6606
vn 0.7075 0.2491 -0.6613
vn 0.7078 0.2502 -0.6607
vn 0.7077 0.2479 -0.6616
vn 0.7077 0.0034 -0.7065
vn 0.7077 0.0042 -0.7065
vn 0.7073 -0.0000 -0.7069
vn -0.7097 -0.0002 0.7045
vn -0.7098 -0.0002 0.7044
vn 0.7039 -0.0001 0.7103
vn 0.7104 0.0012 -0.7038
vn 0.7109 0.0013 -0.7033
vn 0.7107 -0.0002 -0.7035
vn -0.0001 0.0022 -1.0000
vn -0.0002 0.3535 -0.9354
vn -0.0000 0.0022 -1.0000
vn -0.7050 0.0014 -0.7092
vn -0.7050 0.0012 -0.7092
vn -0.7048 -0.0002 -0.7094
vn -0.5926 -0.8054 0.0101
vn -0.0058 -0.6748 0.7380
vn -0.0092 -0.5440 0.8391
vn -0.6810 -0.7321 0.0129
vn -1.0000 -0.0073 -0.0000
vn -0.5929 -0.8052 -0.0101
vn -1.0000 -0.0073 0.0001
vn -0.0001 -0.0064 1.0000
vn -0.0000 -0.0064 1.0000
vn 0.0058 -0.6752 0.7376
vn 0.5929 -0.8052 0.0101
vn 0.6813 -0.7319 0.0128
vn 0.0093 -0.5439 0.8391
vn 1.0000 -0.0073 0.0002
vn 1.0000 -0.0073 -0.0000
vn 0.5926 -0.8055 -0.0101
vn 0.0058 -0.6748 -0.7380
vn 0.0092 -0.5440 -0.8390
vn 0.6810 -0.7322 -0.0130
vn -0.0000 -0.0064 -1.0000
vn -0.0058 -0.6752 -0.7376
vn -0.6812 -0.7319 -0.0128
vn -0.0093 -0.5439 -0.8391
vn -0.7085 0.0020 0.7057
vn -0.9861 -0.1663 -0.0000
vn -0.9863 -0.1649 -0.0000
vn -0.0000 -0.1037 0.9946
vn -0.0000 -0.1051 0.9945
vn 0.7023 0.0023 0.7119
vn 0.9863 -0.1649 -0.0000
vn 0.9861 -0.1663 -0.0000
vn 0.7085 0.0020 -0.7057
vn -0.0000 -0.1037 -0.9946
vn -0.0000 -0.1051 -0.9945
vn -0.7023 0.0024 -0.7119
vn -0.4085 0.9125 0.0220
vn -0.0067 0.5855 0.8106
vn -0.0026 0.8725 0.4886
vn -0.3613 0.9324 0.0052
vn -0.8287 0.5598 0.0001
vn -0.0000 0.1095 0.9940
vn -0.0000 0.1103 0.9939
vn 0.0067 0.5864 0.8100
vn 0.4084 0.9125 0.0222
vn 0.3609 0.9326 0.0051
vn 0.0026 0.8725 0.4887
vn 0.8287 0.5597 -0.0001
vn 0.4086 0.9125 -0.0219
vn 0.0067 0.5864 -0.8100
vn 0.0026 0.8726 -0.4884
vn 0.3611 0.9325 -0.0051
vn -0.0000 0.1096 -0.9940
vn -0.0000 0.1103 -0.9939
vn -0.0067 0.5868 -0.8097
vn -0.4084 0.9125 -0.0222
vn -0.3614 0.9324 -0.0051
vn -0.0026 0.8728 -0.4881
vn -0.0034 1.0000 0.0084
vn -0.0034 1.0000 -0.0083
vn 0.0034 1.0000 0.0084
vn 0.0034 1.0000 -0.0083
vn -0.0000 0.1095 -0.9940
vn -0.5705 -0.5647 0.5964
vn 0.5692 -0.5649 0.5974
vn 0.5705 -0.5647 -0.5964
vn -0.5692 -0.5649 -0.5974
vn -0.4986 -0.6101 0.6158
vn 0.5068 -0.6108 0.6084
vn 0.4986 -0.6100 -0.6158
vn -0.5068 -0.6108 -0.6084
vn -0.4497 0.6708 0.5897
vn 0.4415 0.6680 0.5990
vn 0.4497 0.6708 -0.5898
vn -0.4415 0.6680 -0.5990
vn -0.0000 0.8355 0.5494
vn 0.5064 -0.8623 -0.0078
vn -0.2225 0.6629 0.7149
vn -0.6313 -0.0000 -0.7756
vn -0.2461 0.6459 0.7226
vn 0.4436 -0.7516 -0.4881
vn -0.0698 -0.6453 -0.7607
vn 0.6714 -0.0000 0.7411
vn 0.8862 0.1456 0.4399
vn -0.8081 -0.0875 -0.5825
vn 0.8041 -0.0000 0.5945
vn -0.6784 0.0003 -0.7347
vn 0.2147 -0.6803 -0.7008
vn 0.2696 -0.3531 -0.8959
vn 0.0599 0.8212 0.5675
vn -0.3335 0.9163 -0.2218
vn -0.8041 -0.0000 -0.5945
vn 0.9014 -0.0000 0.4330
vn 0.4753 0.3751 0.7958
vn 0.5569 -0.7910 -0.2534
vn -0.8372 -0.0000 -0.5469
vn -0.8936 -0.0000 -0.4488
vn 0.8662 -0.0008 0.4997
vn 0.8935 -0.0000 0.4491
vn 0.1200 -0.2958 -0.9477
vn 0.5747 0.1147 0.8103
vn -0.0000 -0.9715 -0.2372
vn 0.2751 0.4058 0.8716
vn -0.8587 -0.0000 -0.5124
vn 0.8076 -0.1609 0.5674
vn 0.9781 -0.0000 0.2080
vn -0.8682 0.0003 -0.4962
vn 0.8374 0.0008 0.5465
vn 0.2260 -0.4727 -0.8518
vn 0.8664 -0.0000 0.4993
vn 0.8175 0.0003 0.5759
vn 0.4201 0.4540 0.7858
vn -0.0000 0.7456 0.6664
vn -0.1464 0.8027 0.5781
vn -0.5328 -0.5112 -0.6744
vn -0.0000 0.9243 0.3816
vn -0.3281 -0.9397 -0.0962
vn -0.0236 0.9976 0.0654
vn 0.9021 -0.0000 -0.4316
vn 0.4850 0.8101 -0.3294
vn 0.1547 -0.9084 -0.3884
vn -0.0000 -0.3069 0.9517
vn -0.9554 -0.0329 -0.2935
vn 0.4876 -0.1503 0.8600
vt 0.979845 0.208174
vt 0.963342 0.275028
vt 0.963107 0.009102
vt 0.967760 0.206272
vt 0.951383 0.271968
vt 0.951223 0.012085
vt 0.971860 0.142515
vt 0.967896 0.078593
vt 0.984126 0.142524
vt 0.979934 0.076661
vt 0.939706 0.200814
vt 0.927041 0.256704
vt 0.926032 0.027799
vt 0.939155 0.083657
vt 0.943033 0.142207
vt 0.876029 0.192899
vt 0.866712 0.039043
vt 0.866971 0.245413
vt 0.875975 0.091842
vt 0.878366 0.142374
vt 0.850508 0.189468
vt 0.844724 0.234460
vt 0.843585 0.050453
vt 0.849785 0.095052
vt 0.851850 0.142178
vt 0.819074 0.189304
vt 0.815732 0.050539
vt 0.816927 0.234632
vt 0.818376 0.095495
vt 0.820144 0.142432
vt 0.796324 0.191220
vt 0.793365 0.241662
vt 0.792696 0.043528
vt 0.796021 0.093754
vt 0.797450 0.142452
vt 0.623409 0.181874
vt 0.857903 0.378445
vt 0.876951 0.397146
vt 0.620209 0.219856
vt 0.618635 0.067231
vt 0.857201 0.301071
vt 0.875902 0.282023
vt 0.622487 0.105314
vt 0.953276 0.281321
vt 0.972324 0.300022
vt 0.624051 0.143587
vt 0.973026 0.377396
vt 0.954325 0.396444
vt 0.865483 0.384470
vt 0.870789 0.389679
vt 0.864668 0.294909
vt 0.869877 0.289603
vt 0.959438 0.288788
vt 0.964745 0.293997
vt 0.965560 0.383558
vt 0.960351 0.388865
vt 0.870705 0.384459
vt 0.869888 0.294825
vt 0.959522 0.294008
vt 0.960339 0.383642
vt 0.875517 0.379533
vt 0.874815 0.299637
vt 0.954711 0.298935
vt 0.955413 0.378830
vt 0.903052 0.089025
vt 0.892789 0.035351
vt 0.893263 0.249275
vt 0.903333 0.195503
vt 0.906226 0.142313
vt 0.911860 0.087935
vt 0.901173 0.033892
vt 0.901633 0.250840
vt 0.912150 0.196629
vt 0.915158 0.142345
vt 0.909730 0.088224
vt 0.899544 0.036494
vt 0.900049 0.248223
vt 0.904922 0.088847
vt 0.895240 0.037229
vt 0.895752 0.247424
vt 0.910054 0.196311
vt 0.905233 0.195734
vt 0.913023 0.142313
vt 0.908156 0.142342
vt 0.830572 0.096028
vt 0.826913 0.051673
vt 0.827990 0.233348
vt 0.831266 0.188651
vt 0.832423 0.142316
vt 0.837505 0.095952
vt 0.833048 0.051764
vt 0.834104 0.233292
vt 0.838202 0.188695
vt 0.839370 0.142301
vt 0.835936 0.096071
vt 0.831747 0.053520
vt 0.832831 0.231514
vt 0.832049 0.096125
vt 0.828511 0.053463
vt 0.829605 0.231548
vt 0.836653 0.188569
vt 0.832762 0.188578
vt 0.837792 0.142289
vt 0.833897 0.142331
vt 0.979845 0.208174
vt 0.963342 0.275028
vt 0.963107 0.009102
vt 0.967760 0.206272
vt 0.951383 0.271968
vt 0.951223 0.012085
vt 0.971860 0.142515
vt 0.967896 0.078593
vt 0.984126 0.142524
vt 0.979934 0.076661
vt 0.939706 0.200814
vt 0.927041 0.256704
vt 0.926032 0.027799
vt 0.939155 0.083657
vt 0.943033 0.142207
vt 0.876029 0.192899
vt 0.866712 0.039043
vt 0.866971 0.245413
vt 0.875975 0.091842
vt 0.878366 0.142374
vt 0.850508 0.189468
vt 0.844724 0.234460
vt 0.843585 0.050453
vt 0.849785 0.095052
vt 0.851850 0.142178
vt 0.819074 0.189304
vt 0.815732 0.050539
vt 0.816927 0.234632
vt 0.818376 0.095495
vt 0.820144 0.142432
vt 0.796324 0.191220
vt 0.793365 0.241662
vt 0.792696 0.043528
vt 0.796021 0.093754
vt 0.797450 0.142452
vt 0.623409 0.181874
vt 0.296584 0.100760
vt 0.314298 0.118151
vt 0.620209 0.219856
vt 0.618635 0.067231
vt 0.295931 0.028804
vt 0.313322 0.011090
vt 0.622487 0.105314
vt 0.385279 0.010437
vt 0.402993 0.027828
vt 0.624051 0.143587
vt 0.403646 0.099784
vt 0.386254 0.117498
vt 0.303632 0.106363
vt 0.308568 0.111207
vt 0.302875 0.023073
vt 0.307719 0.018138
vt 0.391009 0.017381
vt 0.395945 0.022225
vt 0.396702 0.105515
vt 0.391858 0.110450
vt 0.308490 0.106353
vt 0.307729 0.022995
vt 0.391088 0.022235
vt 0.391847 0.105593
vt 0.312964 0.101771
vt 0.312311 0.027470
vt 0.386613 0.026817
vt 0.387266 0.101118
vt 0.903052 0.089025
vt 0.892789 0.035351
vt 0.893263 0.249275
vt 0.903333 0.195503
vt 0.906226 0.142313
vt 0.911860 0.087935
vt 0.901173 0.033892
vt 0.901633 0.250840
vt 0.912150 0.196629
vt 0.915158 0.142345
vt 0.909730 0.088224
vt 0.899544 0.036494
vt 0.900049 0.248223
vt 0.904922 0.088847
vt 0.895240 0.037229
vt 0.895752 0.247424
vt 0.910054 0.196311
vt 0.905233 0.195734
vt 0.913023 0.142313
vt 0.908156 0.142342
vt 0.830572 0.096028
vt 0.826913 0.051673
vt 0.827990 0.233348
vt 0.831266 0.188651
vt 0.832423 0.142316
vt 0.837505 0.095952
vt 0.833048 0.051764
vt 0.834104 0.233292
vt 0.838202 0.188695
vt 0.839370 0.142301
vt 0.835936 0.096071
vt 0.831747 0.053520
vt 0.832831 0.231514
vt 0.832049 0.096125
vt 0.828511 0.053463
vt 0.829605 0.231548
vt 0.836653 0.188569
vt 0.832762 0.188578
vt 0.837792 0.142289
vt 0.833897 0.142331
vt 0.787967 0.327878
vt 0.811995 0.630626
vt 0.981791 0.631952
vt 0.457476 0.325221
vt 0.810531 0.814917
vt 0.674837 0.326968
vt 0.570606 0.326131
vt 0.980326 0.816281
vt 0.675448 0.250974
vt 0.571217 0.250136
vt 0.788578 0.251883
vt 0.838999 0.438688
vt 0.458087 0.249226
vt 0.492631 0.440457
vt 0.602060 0.326383
vt 0.929092 0.815858
vt 0.602671 0.250389
vt 0.532046 0.440256
vt 0.930565 0.631578
vt 0.531559 0.345028
vt 0.643383 0.326716
vt 0.861754 0.815344
vt 0.643994 0.250721
vt 0.799585 0.438890
vt 0.863235 0.631025
vt 0.799099 0.343662
vt 0.639924 0.439705
vt 0.691706 0.439441
vt 0.702488 0.251191
vt 0.701877 0.327186
vt 0.810876 0.770868
vt 0.862116 0.771276
vt 0.691220 0.344213
vt 0.929432 0.771804
vt 0.639438 0.344477
vt 0.980664 0.772215
vt 0.543566 0.325913
vt 0.544177 0.249919
vt 0.840206 0.569444
vt 0.644317 0.660003
vt 0.872502 0.568875
vt 0.673469 0.660426
vt 0.881849 0.612366
vt 0.682483 0.695116
vt 0.881164 0.579400
vt 0.683956 0.670569
vt 0.946392 0.611076
vt 0.744016 0.696457
vt 0.945798 0.578097
vt 0.744868 0.672155
vt 0.953485 0.567182
vt 0.753877 0.661703
vt 0.987047 0.566842
vt 0.785584 0.661677
vt 0.837485 0.407959
vt 0.647535 0.525098
vt 0.645837 0.524668
vt 0.841070 0.613200
vt 0.644455 0.695076
vt 0.644604 0.695879
vt 0.987631 0.610488
vt 0.782958 0.697138
vt 0.783802 0.695768
vt 0.985508 0.405086
vt 0.784693 0.527348
vt 0.785896 0.526131
vt 0.951943 0.404795
vt 0.753816 0.526024
vt 0.755976 0.526294
vt 0.953591 0.577946
vt 0.753933 0.670252
vt 0.752374 0.672849
vt 0.872697 0.579595
vt 0.676207 0.670398
vt 0.673214 0.668762
vt 0.869778 0.407476
vt 0.675434 0.525939
vt 0.676751 0.524664
vt 0.791566 0.705339
vt 0.675458 0.249678
vt 0.743907 0.706062
vt 0.644005 0.249425
vt 0.743986 0.698395
vt 0.784420 0.697309
vt 0.634429 0.659835
vt 0.544188 0.248623
vt 0.642392 0.659967
vt 0.643132 0.696442
vt 0.634971 0.704195
vt 0.571227 0.248840
vt 0.682371 0.697047
vt 0.681938 0.704763
vt 0.602681 0.249093
vt 0.787506 0.661717
vt 0.794937 0.661846
vt 0.702498 0.249896
vt 0.785601 0.526123
vt 0.792969 0.517713
vt 0.788589 0.250588
vt 0.839007 0.440312
vt 0.637993 0.515966
vt 0.458097 0.247931
vt 0.492640 0.442080
vt 0.645817 0.524664
vt 0.683600 0.660560
vt 0.639933 0.441328
vt 0.684581 0.516087
vt 0.532054 0.441879
vt 0.675427 0.660475
vt 0.676454 0.524662
vt 0.683824 0.668626
vt 0.674676 0.669933
vt 0.744930 0.670175
vt 0.744733 0.661872
vt 0.691715 0.441064
vt 0.751990 0.661755
vt 0.753504 0.671503
vt 0.753794 0.526022
vt 0.746464 0.518139
vt 0.799593 0.440513
vt 0.311747 0.130248
vt 0.410079 0.130426
vt 0.024698 0.133208
vt 0.311693 0.155159
vt 0.409643 0.155360
vt 0.025499 0.158096
vt 0.217957 0.156237
vt 0.124192 0.156168
vt 0.217828 0.131285
vt 0.123742 0.131258
vt 0.311040 0.180044
vt 0.401297 0.179405
vt 0.034444 0.182846
vt 0.124795 0.181572
vt 0.217881 0.181168
vt 0.311233 0.204506
vt 0.401630 0.202059
vt 0.034785 0.205509
vt 0.124943 0.206034
vt 0.218118 0.205236
vt 0.311720 0.224737
vt 0.410274 0.221690
vt 0.026677 0.224599
vt 0.124335 0.225837
vt 0.218002 0.225059
vt 0.312214 0.241439
vt 0.574685 0.199867
vt 0.595654 0.178588
vt 0.411098 0.238349
vt 0.026123 0.241297
vt 0.464616 0.200672
vt 0.443337 0.179703
vt 0.124118 0.242550
vt 0.442531 0.069635
vt 0.463500 0.048355
vt 0.218097 0.241793
vt 0.573569 0.047550
vt 0.594849 0.068519
vt 0.581988 0.192217
vt 0.588111 0.186002
vt 0.457202 0.193130
vt 0.450987 0.187006
vt 0.450074 0.062220
vt 0.456197 0.056006
vt 0.580984 0.055093
vt 0.587198 0.061216
vt 0.581954 0.186058
vt 0.457146 0.186972
vt 0.456232 0.062164
vt 0.581040 0.061250
vt 0.577223 0.181404
vt 0.461800 0.182242
vt 0.460962 0.066819
vt 0.576386 0.065981
vt 0.311747 0.130248
vt 0.410079 0.130426
vt 0.024698 0.133208
vt 0.311693 0.155159
vt 0.409643 0.155360
vt 0.025499 0.158096
vt 0.217957 0.156237
vt 0.124192 0.156168
vt 0.217828 0.131285
vt 0.123742 0.131258
vt 0.311040 0.180044
vt 0.401297 0.179405
vt 0.034444 0.182846
vt 0.124795 0.181572
vt 0.217881 0.181168
vt 0.311233 0.204506
vt 0.401630 0.202059
vt 0.034785 0.205509
vt 0.124943 0.206034
vt 0.218118 0.205236
vt 0.311720 0.224737
vt 0.410274 0.221690
vt 0.026677 0.224599
vt 0.124335 0.225837
vt 0.218002 0.225059
vt 0.312214 0.241439
vt 0.574685 0.199867
vt 0.595654 0.178588
vt 0.411098 0.238349
vt 0.026123 0.241297
vt 0.464616 0.200672
vt 0.443337 0.179703
vt 0.124118 0.242550
vt 0.442531 0.069635
vt 0.463500 0.048355
vt 0.218097 0.241793
vt 0.573569 0.047550
vt 0.594849 0.068519
vt 0.581988 0.192217
vt 0.588111 0.186002
vt 0.457202 0.193130
vt 0.450987 0.187006
vt 0.450074 0.062220
vt 0.456197 0.056006
vt 0.580984 0.055093
vt 0.587198 0.061216
vt 0.581954 0.186058
vt 0.457146 0.186972
vt 0.456232 0.062164
vt 0.581040 0.061250
vt 0.577223 0.181404
vt 0.461800 0.182242
vt 0.460962 0.066819
vt 0.576386 0.065981
vt 0.615817 0.705347
vt 0.502480 0.706672
vt 0.615689 0.694413
vt 0.502352 0.695737
vt 0.615627 0.689126
vt 0.502291 0.690451
vt 0.615568 0.684084
vt 0.502232 0.685409
vt 0.615515 0.679505
vt 0.502178 0.680830
vt 0.615455 0.674377
vt 0.502118 0.675702
vt 0.615410 0.670561
vt 0.502074 0.671885
vt 0.615350 0.665389
vt 0.502014 0.666714
vt 0.615306 0.661621
vt 0.501970 0.662946
vt 0.615241 0.656129
vt 0.501905 0.657453
vt 0.615185 0.651343
vt 0.501849 0.652668
vt 0.615121 0.645791
vt 0.501785 0.647116
vt 0.615072 0.641617
vt 0.501736 0.642942
vt 0.615001 0.635581
vt 0.501665 0.636905
vt 0.614943 0.630577
vt 0.501607 0.631902
vt 0.614883 0.625500
vt 0.501547 0.626825
vt 0.614835 0.621378
vt 0.501499 0.622702
vt 0.614769 0.615749
vt 0.501433 0.617073
vt 0.614722 0.611722
vt 0.501386 0.613047
vt 0.614658 0.606170
vt 0.501322 0.607494
vt 0.614608 0.601958
vt 0.501272 0.603282
vt 0.614548 0.596760
vt 0.501212 0.598084
vt 0.614492 0.592009
vt 0.501156 0.593333
vt 0.614431 0.586807
vt 0.501095 0.588131
vt 0.614391 0.583359
vt 0.501055 0.584683
vt 0.614315 0.576836
vt 0.500979 0.578161
vt 0.614251 0.571336
vt 0.500914 0.572661
vt 0.614186 0.565791
vt 0.500849 0.567115
vt 0.614135 0.561406
vt 0.500798 0.562730
vt 0.614065 0.555449
vt 0.500728 0.556774
vt 0.614007 0.550514
vt 0.500671 0.551839
vt 0.613932 0.544031
vt 0.500595 0.545356
vt 0.613876 0.539247
vt 0.500539 0.540571
vt 0.613801 0.532872
vt 0.500465 0.534197
vt 0.613742 0.527810
vt 0.500405 0.529134
vt 0.613657 0.520537
vt 0.500320 0.521861
vt 0.613590 0.514750
vt 0.500253 0.516074
vt 0.613522 0.508938
vt 0.500185 0.510262
vt 0.613468 0.504357
vt 0.500131 0.505682
vt 0.613392 0.497863
vt 0.500055 0.499188
vt 0.613335 0.492986
vt 0.499998 0.494310
vt 0.613267 0.487138
vt 0.499930 0.488463
vt 0.613207 0.482003
vt 0.499870 0.483328
vt 0.613138 0.476050
vt 0.499800 0.477375
vt 0.613087 0.471722
vt 0.499750 0.473046
vt 0.613010 0.465107
vt 0.499672 0.466432
vt 0.612955 0.460431
vt 0.499618 0.461755
vt 0.612874 0.453488
vt 0.499537 0.454813
vt 0.912681 0.763357
vt 0.369067 0.831135
vt 0.011068 0.738059
vt 0.908999 0.628171
vt 0.360008 0.735711
vt 0.976918 0.984572
vt 0.008742 0.827264
vt 0.060039 0.992247
vt 0.975737 0.842841
vt 0.456888 0.731161
vt 0.096031 0.835615
vt 0.058848 0.850516
vt 0.891787 0.763929
vt 0.457668 0.827280
vt 0.096505 0.734228
vt 0.888098 0.628741
vt 0.096707 0.750014
vt 0.457320 0.812027
vt 0.368415 0.816147
vt 0.011734 0.752508
vt 0.096062 0.819705
vt 0.457100 0.746758
vt 0.360778 0.752098
vt 0.010152 0.812489
vt 0.101097 0.762581
vt 0.461019 0.799787
vt 0.371337 0.803512
vt 0.015635 0.764376
vt 0.101260 0.804103
vt 0.460797 0.759240
vt 0.366983 0.765215
vt 0.014761 0.800511
vt 0.350552 0.829716
vt 0.429487 0.847414
vt 0.056140 0.109142
vt 0.350177 0.813253
vt 0.047230 0.097638
vt 0.349940 0.800923
vt 0.038174 0.091448
vt 0.349269 0.760436
vt 0.016087 0.062949
vt 0.349088 0.748135
vt 0.012352 0.052629
vt 0.348940 0.731807
vt 0.003439 0.041113
vt 0.889589 0.683392
vt 0.910482 0.682676
vt 0.345446 0.689210
vt 0.145729 0.697282
vt 0.147953 0.645858
vt 0.429694 0.989152
vt 0.694148 0.732217
vt 0.605123 0.845943
vt 0.214385 0.109087
vt 0.694078 0.747565
vt 0.223109 0.097960
vt 0.694102 0.759111
vt 0.231942 0.091996
vt 0.694287 0.797083
vt 0.253552 0.064434
vt 0.694375 0.808622
vt 0.257236 0.054433
vt 0.694591 0.823947
vt 0.265960 0.043305
vt 0.890292 0.709288
vt 0.911193 0.708865
vt 0.185258 0.645374
vt 0.134894 0.694591
vt 0.199511 0.644417
vt 0.607289 0.987666
vt 0.727151 0.794122
vt 0.466624 0.847103
vt 0.078685 0.109430
vt 0.727086 0.785545
vt 0.087891 0.098161
vt 0.727037 0.779079
vt 0.097098 0.092206
vt 0.726882 0.757823
vt 0.119904 0.064287
vt 0.726831 0.751358
vt 0.123899 0.054073
vt 0.726704 0.742656
vt 0.133099 0.042808
vt 0.889737 0.688869
vt 0.910634 0.688215
vt 0.014092 0.680606
vt 0.010681 0.686687
vt 0.467246 0.988838
vt 0.763424 0.793871
vt 0.567952 0.846254
vt 0.192472 0.109240
vt 0.763374 0.785289
vt 0.183598 0.098238
vt 0.763335 0.778817
vt 0.174686 0.092400
vt 0.763202 0.757537
vt 0.152678 0.065133
vt 0.763164 0.751054
vt 0.148857 0.055188
vt 0.763108 0.742441
vt 0.139986 0.044200
vt 0.890142 0.703808
vt 0.911044 0.703327
vt 0.569703 0.987980
vt 0.034891 0.007297
vt 0.213681 0.009146
vt 0.023179 0.007536
vt 0.191769 0.009302
vt 0.023164 0.006819
vt 0.190928 0.008260
vt 0.034877 0.006581
vt 0.214508 0.008092
vt 0.034869 0.006193
vt 0.214956 0.007520
vt 0.023156 0.006431
vt 0.190472 0.007695
vt 0.034855 0.005509
vt 0.215746 0.006513
vt 0.023143 0.005747
vt 0.189668 0.006698
vt 0.034845 0.005038
vt 0.216289 0.005821
vt 0.023133 0.005277
vt 0.189116 0.006014
vt 0.034833 0.004425
vt 0.216997 0.004917
vt 0.874738 0.709715
vt 0.023121 0.004663
vt 0.188395 0.005121
vt 0.874584 0.704235
vt 0.017470 0.007476
vt 0.080039 0.006597
vt 0.004304 0.008090
vt 0.057487 0.006294
vt 0.004267 0.007285
vt 0.056643 0.005203
vt 0.017432 0.006671
vt 0.080912 0.005530
vt 0.017412 0.006234
vt 0.081384 0.004952
vt 0.004246 0.006849
vt 0.056185 0.004611
vt 0.017376 0.005465
vt 0.082217 0.003932
vt 0.004210 0.006080
vt 0.055379 0.003569
vt 0.017352 0.004937
vt 0.082789 0.003232
vt 0.004186 0.005551
vt 0.054826 0.002852
vt 0.017319 0.004247
vt 0.083536 0.002317
vt 0.874191 0.689291
vt 0.004153 0.004861
vt 0.054103 0.001917
vt 0.874050 0.683812
vt 0.269367 0.329364
vt 0.401158 0.333979
vt 0.270597 0.410917
vt 0.399226 0.409403
vt 0.156512 0.376578
vt 0.172557 0.413902
vt 0.493545 0.411666
vt 0.017610 0.378107
vt 0.155629 0.295983
vt 0.168026 0.334917
vt 0.016723 0.297509
vt 0.496345 0.337583
vt 0.271535 0.455347
vt 0.398571 0.453667
vt 0.474806 0.454526
vt 0.018029 0.429782
vt 0.157193 0.428300
vt 0.193717 0.458201
vt 0.275579 0.607246
vt 0.398970 0.605116
vt 0.472989 0.602837
vt 0.019676 0.598811
vt 0.159039 0.597357
vt 0.200899 0.607615
vt 0.273033 0.612799
vt 0.401720 0.610563
vt 0.476517 0.608789
vt 0.013307 0.604658
vt 0.165527 0.603069
vt 0.197550 0.613731
vt 0.273110 0.617519
vt 0.482923 0.718843
vt 0.401811 0.615268
vt 0.358120 0.719258
vt 0.476635 0.613338
vt 0.013366 0.610344
vt 0.357809 0.641815
vt 0.165587 0.608755
vt 0.197591 0.618318
vt 0.482613 0.641239
vt 0.477989 0.715268
vt 0.363025 0.715650
vt 0.362742 0.645384
vt 0.477710 0.644855
vt 0.269307 0.411898
vt 0.269228 0.409935
vt 0.271938 0.409942
vt 0.271940 0.411834
vt 0.397905 0.410350
vt 0.397926 0.408473
vt 0.400563 0.408506
vt 0.400495 0.410347
vt 0.155096 0.377622
vt 0.155074 0.375567
vt 0.173894 0.412840
vt 0.156501 0.375569
vt 0.156534 0.378222
vt 0.174459 0.414791
vt 0.156512 0.376578
vt 0.491749 0.412535
vt 0.017610 0.378107
vt 0.492277 0.410705
vt 0.017599 0.377096
vt 0.019027 0.377064
vt 0.493172 0.412518
vt 0.019045 0.379119
vt 0.270723 0.329411
vt 0.267967 0.329440
vt 0.402473 0.334029
vt 0.399802 0.333932
vt 0.155629 0.295983
vt 0.169425 0.334841
vt 0.154200 0.295999
vt 0.018152 0.297494
vt 0.016723 0.297509
vt 0.495030 0.337533
vt 0.270268 0.456291
vt 0.270205 0.454462
vt 0.272839 0.454398
vt 0.272866 0.456241
vt 0.397288 0.454596
vt 0.397277 0.452755
vt 0.399868 0.452753
vt 0.399857 0.454590
vt 0.473520 0.455424
vt 0.473808 0.453597
vt 0.019452 0.428735
vt 0.475180 0.453671
vt 0.474795 0.455430
vt 0.019470 0.430797
vt 0.474806 0.454526
vt 0.155772 0.429346
vt 0.155744 0.427282
vt 0.194719 0.457231
vt 0.157186 0.427770
vt 0.157204 0.429319
vt 0.195077 0.459053
vt 0.157193 0.428300
vt 0.274094 0.608127
vt 0.274319 0.606229
vt 0.276802 0.606269
vt 0.276600 0.608331
vt 0.398059 0.606231
vt 0.397715 0.604161
vt 0.400189 0.604092
vt 0.400571 0.605930
vt 0.472462 0.603792
vt 0.471780 0.601875
vt 0.021049 0.597729
vt 0.473001 0.601901
vt 0.020131 0.599963
vt 0.472989 0.602837
vt 0.158609 0.598518
vt 0.157613 0.596281
vt 0.202090 0.606598
vt 0.159027 0.596231
vt 0.201559 0.608564
vt 0.159039 0.597357
vt 0.271929 0.613745
vt 0.272353 0.611958
vt 0.275074 0.611662
vt 0.274218 0.613665
vt 0.400567 0.611467
vt 0.399743 0.609517
vt 0.402463 0.609677
vt 0.402847 0.611468
vt 0.475430 0.609718
vt 0.474911 0.607898
vt 0.016310 0.603470
vt 0.475134 0.606456
vt 0.476539 0.609643
vt 0.014703 0.605711
vt 0.476227 0.608300
vt 0.164154 0.604151
vt 0.162553 0.601964
vt 0.199255 0.612771
vt 0.163423 0.601217
vt 0.165539 0.604195
vt 0.198678 0.614625
vt 0.165252 0.602827
vt 0.271598 0.617535
vt 0.481959 0.717084
vt 0.273984 0.617472
vt 0.271965 0.616552
vt 0.274273 0.616574
vt 0.480165 0.717955
vt 0.275575 0.617386
vt 0.360867 0.718351
vt 0.399296 0.615312
vt 0.400593 0.614350
vt 0.402893 0.614282
vt 0.403278 0.615141
vt 0.359070 0.717482
vt 0.400931 0.615284
vt 0.358774 0.643571
vt 0.475136 0.613376
vt 0.475491 0.612423
vt 0.014747 0.609216
vt 0.476612 0.612447
vt 0.016282 0.610205
vt 0.360568 0.642700
vt 0.475950 0.613356
vt 0.479867 0.642150
vt 0.162613 0.608786
vt 0.164156 0.607635
vt 0.198693 0.617368
vt 0.165575 0.607595
vt 0.199072 0.618209
vt 0.481663 0.643020
vt 0.164547 0.608766
vt 0.478787 0.714859
vt 0.477716 0.716109
vt 0.477138 0.714422
vt 0.363869 0.714799
vt 0.363295 0.716473
vt 0.362224 0.715237
vt 0.363614 0.646247
vt 0.361945 0.645792
vt 0.363010 0.644559
vt 0.476866 0.645707
vt 0.477439 0.644033
vt 0.478511 0.645270
vt 0.360778 0.752098
vt 0.010681 0.686687
vt 0.000000 0.000000
vt 0.366983 0.765215
vt 0.014092 0.680606
vt 0.000000 0.000000
vt 0.910482 0.682676
vt 0.199511 0.644417
vt 0.607289 0.987666
vt 0.134894 0.694591
vt 0.910634 0.688215
vt 0.185258 0.645374
vt 0.911044 0.703327
vt 0.147953 0.645858
vt 0.569703 0.987980
vt 0.145729 0.697282
vt 0.010152 0.812489
vt 0.345446 0.689210
vt 0.000000 0.000000
vt 0.014761 0.800511
vt 0.341353 0.682150
vt 0.912681 0.763357
vt 0.369067 0.831135
vt 0.010635 0.646487
vt 0.368415 0.816147
vt 0.010642 0.654556
vt 0.911193 0.708865
vt 0.135076 0.646388
vt 0.011068 0.738059
vt 0.908999 0.628171
vt 0.344775 0.642205
vt 0.011734 0.752508
vt 0.344916 0.651628
vt 0.360008 0.735711
vt 0.976918 0.984572
vt 0.010691 0.694744
vt 0.371337 0.803512
vt 0.014069 0.660634
vt 0.429694 0.989152
vt 0.200030 0.700500
vt 0.467246 0.988838
vt 0.184655 0.699903
vt 0.008742 0.827264
vt 0.060039 0.992247
vt 0.345568 0.698647
vt 0.015635 0.764376
vt 0.341029 0.658794
vt 0.341353 0.682150
vt 0.000000 0.000000
vt 0.010635 0.646487
vt 0.010642 0.654556
vt 0.135076 0.646388
vt 0.344775 0.642205
vt 0.344916 0.651628
vt 0.010691 0.694744
vt 0.000000 0.000000
vt 0.000000 0.000000
vt 0.014069 0.660634
vt 0.200030 0.700500
vt 0.184655 0.699903
vt 0.345568 0.698647
vt 0.000000 0.000000
vt 0.341029 0.658794
vt 0.000000 0.000000
vt 0.000000 0.000000
s 0
usemtl lambert4SG
f 1/1/1 2/2/1 4/5/1 3/4/1
f 41/61/2 42/62/2 43/63/2 44/64/2
f 5/7/3 6/8/3 8/10/3 7/9/3
f 2/3/4 8/10/4 6/8/4 4/6/4
f 7/9/5 1/1/5 3/4/5 5/7/5
f 3/4/6 4/5/6 10/12/6 9/11/6
f 4/6/7 6/8/7 11/14/7 10/13/7
f 6/8/8 5/7/8 12/15/8 11/14/8
f 5/7/9 3/4/9 9/11/9 12/15/9
f 9/11/1 10/12/1 50/72/1 51/73/1
f 10/13/4 11/14/4 49/70/4 50/71/4
f 11/14/3 12/15/3 52/74/3 49/70/3
f 12/15/5 9/11/5 51/73/5 52/74/5
f 13/16/10 14/18/10 18/22/10 17/21/10
f 14/17/11 15/19/11 19/24/11 18/23/11
f 15/19/12 16/20/12 20/25/12 19/24/12
f 16/20/13 13/16/13 17/21/13 20/25/13
f 17/21/1 18/22/1 66/92/1 67/93/1
f 18/23/4 19/24/4 65/90/4 66/91/4
f 19/24/3 20/25/3 68/94/3 65/90/3
f 20/25/5 17/21/5 67/93/5 68/94/5
f 21/26/14 22/28/14 26/32/14 25/31/14
f 22/27/15 23/29/15 27/34/15 26/33/15
f 23/29/16 24/30/16 28/35/16 27/34/16
f 24/30/17 21/26/17 25/31/17 28/35/17
f 25/31/18 26/32/18 30/39/18 29/36/18
f 26/33/19 27/34/19 31/43/19 30/40/19
f 27/34/20 28/35/20 32/46/20 31/43/20
f 28/35/21 25/31/21 29/36/21 32/46/21
f 29/37/22 30/41/22 34/51/22 33/49/22
f 30/42/23 31/44/23 35/53/23 34/52/23
f 31/45/24 32/47/24 36/55/24 35/54/24
f 32/48/25 29/38/25 33/50/25 36/56/25
f 33/49/1 34/51/1 38/58/1 37/57/1
f 34/52/4 35/53/4 39/59/4 38/58/4
f 35/54/3 36/55/3 40/60/3 39/59/3
f 36/56/5 33/50/5 37/57/5 40/60/5
f 37/57/26 38/58/26 42/62/26 41/61/26
f 38/58/27 39/59/27 43/63/27 42/62/27
f 39/59/28 40/60/28 44/64/28 43/63/28
f 40/60/29 37/57/29 41/61/29 44/64/29
f 46/66/4 45/65/4 15/19/4 14/17/4
f 47/68/1 46/67/1 14/18/1 13/16/1
f 48/69/5 47/68/5 13/16/5 16/20/5
f 45/65/3 48/69/3 16/20/3 15/19/3
f 54/76/4 53/75/4 55/78/4 56/79/4
f 57/81/1 54/77/1 56/80/1 58/82/1
f 59/83/5 57/81/5 58/82/5 60/84/5
f 53/75/3 59/83/3 60/84/3 55/78/3
f 50/71/30 49/70/30 53/75/30 54/76/30
f 45/65/31 46/66/31 56/79/31 55/78/31
f 51/73/32 50/72/32 54/77/32 57/81/32
f 46/67/33 47/68/33 58/82/33 56/80/33
f 52/74/34 51/73/34 57/81/34 59/83/34
f 47/68/35 48/69/35 60/84/35 58/82/35
f 49/70/36 52/74/36 59/83/36 53/75/36
f 48/69/37 45/65/37 55/78/37 60/84/37
f 62/86/4 61/85/4 23/29/4 22/27/4
f 63/88/1 62/87/1 22/28/1 21/26/1
f 64/89/5 63/88/5 21/26/5 24/30/5
f 61/85/3 64/89/3 24/30/3 23/29/3
f 70/96/4 69/95/4 71/98/4 72/99/4
f 73/101/1 70/97/1 72/100/1 74/102/1
f 75/103/5 73/101/5 74/102/5 76/104/5
f 69/95/3 75/103/3 76/104/3 71/98/3
f 66/91/38 65/90/38 69/95/38 70/96/38
f 61/85/39 62/86/39 72/99/39 71/98/39
f 67/93/40 66/92/40 70/97/40 73/101/40
f 62/87/41 63/88/41 74/102/41 72/100/41
f 68/94/42 67/93/42 73/101/42 75/103/42
f 63/88/43 64/89/43 76/104/43 74/102/43
f 65/90/44 68/94/44 75/103/44 69/95/44
f 64/89/45 61/85/45 71/98/45 76/104/45
f 77/105/1 78/106/1 80/109/1 79/108/1
f 117/165/2 118/166/2 119/167/2 120/168/2
f 81/111/3 82/112/3 84/114/3 83/113/3
f 78/107/4 84/114/4 82/112/4 80/110/4
f 83/113/5 77/105/5 79/108/5 81/111/5
f 79/108/6 80/109/6 86/116/6 85/115/6
f 80/110/7 82/112/7 87/118/7 86/117/7
f 82/112/8 81/111/8 88/119/8 87/118/8
f 81/111/9 79/108/9 85/115/9 88/119/9
f 85/115/1 86/116/1 126/176/1 127/177/1
f 86/117/4 87/118/4 125/174/4 126/175/4
f 87/118/3 88/119/3 128/178/3 125/174/3
f 88/119/5 85/115/5 127/177/5 128/178/5
f 89/120/10 90/122/10 94/126/10 93/125/10
f 90/121/11 91/123/11 95/128/11 94/127/11
f 91/123/12 92/124/12 96/129/12 95/128/12
f 92/124/13 89/120/13 93/125/13 96/129/13
f 93/125/1 94/126/1 142/196/1 143/197/1
f 94/127/4 95/128/4 141/194/4 142/195/4
f 95/128/3 96/129/3 144/198/3 141/194/3
f 96/129/5 93/125/5 143/197/5 144/198/5
f 97/130/14 98/132/14 102/136/14 101/135/14
f 98/131/15 99/133/15 103/138/15 102/137/15
f 99/133/16 100/134/16 104/139/16 103/138/16
f 100/134/17 97/130/17 101/135/17 104/139/17
f 101/135/18 102/136/18 106/143/18 105/140/18
f 102/137/19 103/138/19 107/147/19 106/144/19
f 103/138/20 104/139/20 108/150/20 107/147/20
f 104/139/21 101/135/21 105/140/21 108/150/21
f 105/141/22 106/145/22 110/155/22 109/153/22
f 106/146/23 107/148/23 111/157/23 110/156/23
f 107/149/24 108/151/24 112/159/24 111/158/24
f 108/152/25 105/142/25 109/154/25 112/160/25
f 109/153/1 110/155/1 114/162/1 113/161/1
f 110/156/4 111/157/4 115/163/4 114/162/4
f 111/158/3 112/159/3 116/164/3 115/163/3
f 112/160/5 109/154/5 113/161/5 116/164/5
f 113/161/26 114/162/26 118/166/26 117/165/26
f 114/162/27 115/163/27 119/167/27 118/166/27
f 115/163/28 116/164/28 120/168/28 119/167/28
f 116/164/29 113/161/29 117/165/29 120/168/29
f 122/170/4 121/169/4 91/123/4 90/121/4
f 123/172/1 122/171/1 90/122/1 89/120/1
f 124/173/5 123/172/5 89/120/5 92/124/5
f 121/169/3 124/173/3 92/124/3 91/123/3
f 130/180/4 129/179/4 131/182/4 132/183/4
f 133/185/1 130/181/1 132/184/1 134/186/1
f 135/187/5 133/185/5 134/186/5 136/188/5
f 129/179/3 135/187/3 136/188/3 131/182/3
f 126/175/30 125/174/30 129/179/30 130/180/30
f 121/169/31 122/170/31 132/183/31 131/182/31
f 127/177/32 126/176/32 130/181/32 133/185/32
f 122/171/33 123/172/33 134/186/33 132/184/33
f 128/178/34 127/177/34 133/185/34 135/187/34
f 123/172/35 124/173/35 136/188/35 134/186/35
f 125/174/36 128/178/36 135/187/36 129/179/36
f 124/173/37 121/169/37 131/182/37 136/188/37
f 138/190/4 137/189/4 99/133/4 98/131/4
f 139/192/1 138/191/1 98/132/1 97/130/1
f 140/193/5 139/192/5 97/130/5 100/134/5
f 137/189/3 140/193/3 100/134/3 99/133/3
f 146/200/4 145/199/4 147/202/4 148/203/4
f 149/205/1 146/201/1 148/204/1 150/206/1
f 151/207/5 149/205/5 150/206/5 152/208/5
f 145/199/3 151/207/3 152/208/3 147/202/3
f 142/195/38 141/194/38 145/199/38 146/200/38
f 137/189/39 138/190/39 148/203/39 147/202/39
f 143/197/40 142/196/40 146/201/40 149/205/40
f 138/191/41 139/192/41 150/206/41 148/204/41
f 144/198/42 143/197/42 149/205/42 151/207/42
f 139/192/43 140/193/43 152/208/43 150/206/43
f 141/194/44 144/198/44 151/207/44 145/199/44
f 140/193/45 137/189/45 147/202/45 152/208/45
s 1
f 172/239/46 173/240/47 165/230/2 155/213/2
f 155/214/2 165/229/2 166/231/2 157/217/2
f 193/287/3 194/289/3 195/291/3 196/292/3
f 175/245/4 176/246/4 158/218/4 156/215/4
f 171/237/5 172/238/5 155/214/5 157/217/5
f 161/223/2 156/215/2 158/218/2 162/225/2
f 197/293/3 198/295/3 199/296/3 200/297/3
f 161/224/2 174/242/47 175/244/46 156/216/2
f 165/229/2 161/223/2 162/225/2 166/231/2
f 201/299/3 195/291/3 194/289/3 202/300/3
f 165/230/2 173/240/47 174/242/47 161/224/2
f 204/303/3 203/302/3 205/305/3 206/306/3
f 159/219/5 153/209/5 172/238/5 171/237/5
f 153/210/1 168/233/1 173/240/47 172/239/46
f 175/244/46 174/242/47 164/227/1 154/211/1
f 154/212/4 160/221/4 176/246/4 175/245/4
f 207/309/3 208/312/3 198/295/3 197/293/3
s 0
f 164/228/5 174/243/5 169/235/5 163/226/5
f 173/241/4 168/234/4 167/232/4 170/236/4
f 170/236/48 169/235/48 174/243/48 173/241/48
s 1
f 210/315/3 209/313/3 211/317/3 212/318/3
f 213/319/3 214/320/3 211/317/3 209/313/3
f 216/322/3 215/321/3 213/319/3 209/313/3
f 217/324/3 218/325/3 215/321/3 216/322/3
f 183/259/3 189/275/3 188/272/3 184/261/3
f 190/278/3 187/269/3 181/255/3 182/257/3
f 180/253/3 182/257/3 181/255/3 179/251/3
f 179/251/3 186/266/3 191/281/3 180/253/3
f 210/315/3 212/318/3 208/312/3 207/309/3
f 185/263/3 192/284/3 178/249/3 177/247/3
f 200/297/3 199/296/3 201/299/3 202/300/3
f 191/281/3 186/266/3 177/247/3 178/249/3
f 184/261/3 187/269/3 190/278/3 183/259/3
f 193/287/3 196/292/3 203/302/3 204/303/3
f 206/306/3 205/305/3 219/326/3 220/327/3
f 220/327/3 219/326/3 217/324/3 216/322/3
s 0
f 157/217/2 166/231/2 194/290/2 193/288/2
f 181/256/49 187/270/49 196/292/49 195/291/49
f 177/248/5 186/267/5 199/296/5 198/295/5
f 158/218/4 176/246/4 197/294/4 200/298/4
f 179/252/49 181/256/49 195/291/49 201/299/49
f 166/231/2 162/225/2 202/301/2 194/290/2
f 184/262/4 188/273/4 205/305/4 203/302/4
f 159/219/5 171/237/5 204/304/5 206/307/5
f 185/264/5 177/248/5 198/295/5 208/312/5
f 176/246/4 160/221/4 207/310/4 197/294/4
f 163/226/5 169/235/5 209/314/5 210/316/5
f 178/250/4 192/285/4 212/318/4 211/317/4
f 180/254/2 191/282/2 214/320/2 213/319/2
f 191/283/4 178/250/4 211/317/4 214/320/4
f 182/258/2 180/254/2 213/319/2 215/321/2
f 169/235/49 170/236/49 216/323/49 209/314/49
f 183/260/5 190/279/5 218/325/5 217/324/5
f 190/280/2 182/258/2 215/321/2 218/325/2
f 192/286/50 185/265/50 208/312/50 212/318/50
f 160/222/49 163/226/49 210/316/49 207/311/49
f 186/268/49 179/252/49 201/299/49 199/296/49
f 162/225/2 158/218/2 200/298/2 202/301/2
f 187/271/4 184/262/4 203/302/4 196/292/4
f 171/237/5 157/217/5 193/288/5 204/304/5
f 188/274/51 189/276/51 219/326/51 205/305/51
f 167/232/49 159/220/49 206/308/49 220/328/49
f 189/277/5 183/260/5 217/324/5 219/326/5
f 170/236/4 167/232/4 220/328/4 216/323/4
f 221/329/1 222/330/1 224/333/1 223/332/1
f 253/379/2 254/380/2 255/381/2 256/382/2
f 225/335/3 226/336/3 228/338/3 227/337/3
f 222/331/4 228/338/4 226/336/4 224/334/4
f 227/337/5 221/329/5 223/332/5 225/335/5
f 223/332/52 224/333/52 230/340/52 229/339/52
f 224/334/53 226/336/53 231/342/53 230/341/53
f 226/336/54 225/335/54 232/343/54 231/342/54
f 225/335/55 223/332/55 229/339/55 232/343/55
f 229/339/1 230/340/1 234/345/1 233/344/1
f 230/341/4 231/342/4 235/347/4 234/346/4
f 231/342/3 232/343/3 236/348/3 235/347/3
f 232/343/5 229/339/5 233/344/5 236/348/5
f 233/344/56 234/345/56 238/350/56 237/349/56
f 234/346/57 235/347/57 239/352/57 238/351/57
f 235/347/58 236/348/58 240/353/58 239/352/58
f 236/348/59 233/344/59 237/349/59 240/353/59
f 237/349/1 238/350/1 242/357/1 241/354/1
f 238/351/4 239/352/4 243/361/4 242/358/4
f 239/352/3 240/353/3 244/364/3 243/361/3
f 240/353/5 237/349/5 241/354/5 244/364/5
f 241/355/60 242/359/60 246/369/60 245/367/60
f 242/360/61 243/362/61 247/371/61 246/370/61
f 243/363/62 244/365/62 248/373/62 247/372/62
f 244/366/63 241/356/63 245/368/63 248/374/63
f 245/367/1 246/369/1 250/376/1 249/375/1
f 246/370/4 247/371/4 251/377/4 250/376/4
f 247/372/3 248/373/3 252/378/3 251/377/3
f 248/374/5 245/368/5 249/375/5 252/378/5
f 249/375/64 250/376/64 254/380/64 253/379/64
f 250/376/65 251/377/65 255/381/65 254/380/65
f 251/377/66 252/378/66 256/382/66 255/381/66
f 252/378/67 249/375/67 253/379/67 256/382/67
f 257/383/1 258/384/1 260/387/1 259/386/1
f 289/433/2 290/434/2 291/435/2 292/436/2
f 261/389/3 262/390/3 264/392/3 263/391/3
f 258/385/4 264/392/4 262/390/4 260/388/4
f 263/391/5 257/383/5 259/386/5 261/389/5
f 259/386/52 260/387/52 266/394/52 265/393/52
f 260/388/53 262/390/53 267/396/53 266/395/53
f 262/390/54 261/389/54 268/397/54 267/396/54
f 261/389/55 259/386/55 265/393/55 268/397/55
f 265/393/1 266/394/1 270/399/1 269/398/1
f 266/395/4 267/396/4 271/401/4 270/400/4
f 267/396/3 268/397/3 272/402/3 271/401/3
f 268/397/5 265/393/5 269/398/5 272/402/5
f 269/398/56 270/399/56 274/404/56 273/403/56
f 270/400/57 271/401/57 275/406/57 274/405/57
f 271/401/58 272/402/58 276/407/58 275/406/58
f 272/402/59 269/398/59 273/403/59 276/407/59
f 273/403/1 274/404/1 278/411/1 277/408/1
f 274/405/4 275/406/4 279/415/4 278/412/4
f 275/406/3 276/407/3 280/418/3 279/415/3
f 276/407/5 273/403/5 277/408/5 280/418/5
f 277/409/60 278/413/60 282/423/60 281/421/60
f 278/414/61 279/416/61 283/425/61 282/424/61
f 279/417/62 280/419/62 284/427/62 283/426/62
f 280/420/63 277/410/63 281/422/63 284/428/63
f 281/421/1 282/423/1 286/430/1 285/429/1
f 282/424/4 283/425/4 287/431/4 286/430/4
f 283/426/3 284/427/3 288/432/3 287/431/3
f 284/428/5 281/422/5 285/429/5 288/432/5
f 285/429/64 286/430/64 290/434/64 289/433/64
f 286/430/65 287/431/65 291/435/65 290/434/65
f 287/431/66 288/432/66 292/436/66 291/435/66
f 288/432/67 285/429/67 289/433/67 292/436/67
f 293/437/2 294/438/2 296/440/2 295/439/2
f 295/439/2 296/440/2 298/442/2 297/441/2
f 297/441/3 298/442/3 300/444/3 299/443/3
f 299/443/2 300/444/2 302/446/2 301/445/2
f 301/445/68 302/446/68 304/448/68 303/447/68
f 303/447/2 304/448/2 306/450/2 305/449/2
f 305/449/68 306/450/68 308/452/68 307/451/68
f 307/451/2 308/452/2 310/454/2 309/453/2
f 309/453/3 310/454/3 312/456/3 311/455/3
f 311/455/2 312/456/2 314/458/2 313/457/2
f 313/457/68 314/458/68 316/460/68 315/459/68
f 315/459/2 316/460/2 318/462/2 317/461/2
f 317/461/3 318/462/3 320/464/3 319/463/3
f 319/463/2 320/464/2 322/466/2 321/465/2
f 321/465/68 322/466/68 324/468/68 323/467/68
f 323/467/2 324/468/2 326/470/2 325/469/2
f 325/469/3 326/470/3 328/472/3 327/471/3
f 327/471/2 328/472/2 330/474/2 329/473/2
f 329/473/3 330/474/3 332/476/3 331/475/3
f 331/475/2 332/476/2 334/478/2 333/477/2
f 333/477/3 334/478/3 336/480/3 335/479/3
f 335/479/2 336/480/2 338/482/2 337/481/2
f 337/481/3 338/482/3 340/484/3 339/483/3
f 339/483/2 340/484/2 342/486/2 341/485/2
f 341/485/3 342/486/3 344/488/3 343/487/3
f 343/487/2 344/488/2 346/490/2 345/489/2
f 345/489/3 346/490/3 348/492/3 347/491/3
f 347/491/2 348/492/2 350/494/2 349/493/2
f 349/493/3 350/494/3 352/496/3 351/495/3
f 351/495/2 352/496/2 354/498/2 353/497/2
f 353/497/3 354/498/3 356/500/3 355/499/3
f 355/499/2 356/500/2 358/502/2 357/501/2
f 357/501/3 358/502/3 360/504/3 359/503/3
f 359/503/2 360/504/2 362/506/2 361/505/2
f 361/505/3 362/506/3 364/508/3 363/507/3
f 363/507/2 364/508/2 366/510/2 365/509/2
f 365/509/3 366/510/3 368/512/3 367/511/3
f 367/511/2 368/512/2 370/514/2 369/513/2
f 369/513/3 370/514/3 372/516/3 371/515/3
f 371/515/2 372/516/2 374/518/2 373/517/2
f 373/517/3 374/518/3 376/520/3 375/519/3
f 375/519/2 376/520/2 378/522/2 377/521/2
f 377/521/3 378/522/3 380/524/3 379/523/3
f 379/523/2 380/524/2 382/526/2 381/525/2
f 381/525/3 382/526/3 384/528/3 383/527/3
f 383/527/2 384/528/2 386/530/2 385/529/2
f 385/529/3 386/530/3 388/532/3 387/531/3
s 1
f 391/538/2 434/602/2 424/585/2 393/541/2
f 393/542/3 424/584/3 425/587/69 402/554/70
f 395/545/49 429/597/49 430/598/49 389/533/49
f 404/556/71 401/553/71 394/543/4 392/539/4
f 402/554/72 403/555/72 391/537/5 393/542/5
f 398/550/73 428/593/74 429/595/3 395/546/3
f 395/546/5 389/534/5 399/551/75 398/550/75
f 390/535/4 396/547/4 397/549/76 400/552/76
f 402/554/70 425/587/69 426/589/77 410/562/78
f 410/562/79 411/563/80 403/555/72 402/554/72
f 412/564/81 409/561/82 401/553/71 404/556/71
f 406/558/83 427/591/84 428/593/74 398/550/73
f 398/550/75 399/551/75 407/559/85 406/558/86
f 400/552/76 397/549/76 405/557/87 408/560/88
f 410/562/78 426/589/77 427/591/84 406/558/83
f 406/558/86 407/559/85 411/563/80 410/562/79
f 408/560/88 405/557/87 409/561/82 412/564/81
f 413/565/3 394/543/3 401/553/70 414/568/69
f 415/570/77 414/568/69 401/553/70 409/561/89
f 416/572/84 415/570/77 409/561/89 405/557/90
f 417/574/74 416/572/84 405/557/90 397/549/73
f 418/576/3 417/574/74 397/549/73 396/547/3
f 419/579/49 418/578/49 396/548/49 390/536/49
f 390/535/1 400/552/91 618/902/92 617/899/93
f 411/563/94 407/559/95 620/907/96 606/874/97
f 444/620/98 452/636/99 611/885/100 622/911/101
f 407/559/95 399/551/102 615/895/103 620/907/96
f 452/636/99 434/602/104 608/879/105 611/885/100
f 413/566/2 423/583/2 392/540/2 394/544/2
f 453/637/3 454/639/3 455/641/106 456/643/106
f 457/645/106 456/643/106 455/641/106 458/647/106
f 459/649/3 457/645/106 458/647/106 460/651/3
f 461/653/3 459/649/3 460/651/3 462/655/3
f 463/657/3 461/653/3 462/655/3 464/660/3
f 430/598/49 429/597/49 450/634/49 451/635/49
f 441/617/107 419/579/108 607/877/109 609/881/110
f 389/533/1 430/598/111 616/897/112 614/892/1
f 403/555/113 411/563/94 606/874/97 605/871/114
f 391/537/115 403/555/113 605/871/114 619/904/1
f 419/579/108 390/536/1 617/900/93 607/877/109
f 424/585/2 434/602/2 452/636/2 445/622/2
f 465/663/3 466/665/3 467/667/106 468/669/106
f 469/671/106 468/669/106 467/667/106 470/673/106
f 471/675/3 469/671/106 470/673/106 472/677/3
f 473/679/3 471/675/3 472/677/3 474/681/3
f 475/683/3 473/679/3 474/681/3 476/686/3
f 441/617/49 440/616/49 418/578/49 419/579/49
f 434/602/104 391/538/115 619/905/1 608/879/105
f 412/564/116 404/556/117 612/887/118 613/890/119
f 408/560/120 412/564/116 613/890/119 624/916/121
f 423/583/1 444/620/98 622/911/101 621/909/1
f 400/552/91 408/560/120 624/916/121 618/902/92
f 435/604/2 444/620/2 423/583/2 413/566/2
f 445/621/3 435/603/3 436/606/122 446/624/122
f 447/626/123 446/624/122 436/606/122 437/608/123
f 448/628/124 447/626/123 437/608/123 438/610/124
f 449/630/125 448/628/124 438/610/124 439/612/125
f 450/632/3 449/630/125 439/612/125 440/614/3
f 451/635/49 450/634/49 440/616/49 441/617/49
f 430/598/111 451/635/126 610/883/1 616/897/112
f 399/551/102 389/534/1 614/893/1 615/895/103
f 404/556/117 392/539/1 623/913/127 612/887/118
f 451/635/126 441/617/107 609/881/110 610/883/1
f 392/540/1 423/583/1 621/909/1 623/914/127
f 445/622/2 452/636/2 444/620/2 435/604/2
s 0
f 424/586/128 445/623/128 454/640/128 453/638/128
f 445/623/4 446/625/4 455/642/4 454/640/4
f 425/588/5 424/586/5 453/638/5 456/644/5
f 426/590/5 425/588/5 456/644/5 457/646/5
f 446/625/4 447/627/4 458/648/4 455/642/4
f 427/592/5 426/590/5 457/646/5 459/650/5
f 447/627/4 448/629/4 460/652/4 458/648/4
f 428/594/5 427/592/5 459/650/5 461/654/5
f 448/629/4 449/631/4 462/656/4 460/652/4
f 429/596/5 428/594/5 461/654/5 463/658/5
f 449/631/4 450/633/4 464/661/4 462/656/4
f 450/634/49 429/597/49 463/659/49 464/662/49
f 435/605/128 413/567/128 466/666/128 465/664/128
f 413/567/4 414/569/4 467/668/4 466/666/4
f 436/607/5 435/605/5 465/664/5 468/670/5
f 437/609/5 436/607/5 468/670/5 469/672/5
f 414/569/4 415/571/4 470/674/4 467/668/4
f 438/611/5 437/609/5 469/672/5 471/676/5
f 415/571/4 416/573/4 472/678/4 470/674/4
f 439/613/5 438/611/5 471/676/5 473/680/5
f 416/573/4 417/575/4 474/682/4 472/678/4
f 440/615/5 439/613/5 473/680/5 475/684/5
f 417/575/4 418/577/4 476/687/4 474/682/4
f 418/578/49 440/616/49 475/685/49 476/688/49
f 477/689/1 478/690/1 480/692/1 479/691/1
f 501/729/2 502/730/2 503/731/2 504/732/2
f 481/693/3 482/696/3 484/699/3 483/697/3
f 478/690/4 484/700/4 482/695/4 480/692/4
f 483/698/5 477/689/5 479/691/5 481/694/5
f 479/691/1 480/692/1 486/702/1 485/701/1
f 480/692/4 482/695/4 487/703/4 486/702/4
f 482/696/129 481/693/129 488/705/129 487/704/129
f 481/694/5 479/691/5 485/701/5 488/706/5
f 485/701/1 486/702/1 490/708/1 489/707/1
f 486/702/4 487/703/4 491/709/4 490/708/4
f 487/704/3 488/705/3 492/711/3 491/710/3
f 488/706/5 485/701/5 489/707/5 492/712/5
f 489/707/130 490/708/130 494/714/130 493/713/130
f 490/708/131 491/709/131 495/715/131 494/714/131
f 491/710/132 492/711/132 496/717/132 495/716/132
f 492/712/133 489/707/133 493/713/133 496/718/133
f 493/713/1 494/714/1 498/721/1 497/719/1
f 494/714/4 495/715/4 499/723/4 498/721/4
f 495/716/3 496/717/3 500/726/3 499/724/3
f 496/718/5 493/713/5 497/719/5 500/727/5
f 497/720/134 498/722/134 502/730/134 501/729/134
f 498/722/135 499/725/135 503/731/135 502/730/135
f 499/725/136 500/728/136 504/732/136 503/731/136
f 500/728/137 497/720/137 501/729/137 504/732/137
s 1
f 505/733/138 508/736/138 531/767/138 530/766/138
f 506/734/5 505/733/5 516/746/5 515/743/5
f 507/735/139 506/734/139 522/756/139 521/755/139
f 508/736/1 507/735/1 510/738/1 509/737/1
f 509/737/140 512/740/140 535/771/140 534/770/140
f 511/739/141 510/738/141 524/758/141 523/757/141
f 512/740/4 511/739/4 518/750/4 517/748/4
f 513/741/142 516/745/143 543/783/144 542/781/145
f 514/742/146 513/741/147 520/754/147 519/752/148
f 515/744/149 514/742/150 526/761/151 525/759/151
f 517/748/152 520/753/153 539/776/154 538/774/155
f 519/752/156 518/751/157 528/763/158 527/762/158
f 529/765/159 532/768/160 547/789/160 546/788/160
f 530/766/5 529/765/5 544/785/5 543/782/5
f 532/768/1 531/767/1 534/770/1 533/769/1
f 533/769/161 536/772/161 551/793/161 550/792/161
f 536/772/4 535/771/4 538/774/4 537/773/4
f 537/773/162 540/777/163 555/798/164 554/796/164
f 540/778/165 539/775/147 542/781/166 541/780/167
f 541/780/168 544/784/169 559/804/170 558/802/170
f 545/787/171 548/790/172 563/809/173 562/808/174
f 546/788/175 545/787/171 560/805/176 559/803/177
f 548/790/172 547/789/178 550/792/179 549/791/180
f 549/791/180 552/794/181 567/813/182 566/812/183
f 552/794/181 551/793/184 554/796/185 553/795/186
f 553/795/186 556/800/187 571/818/188 570/816/189
f 556/799/187 555/797/190 558/802/190 557/801/191
f 557/801/191 560/806/176 575/825/192 574/823/193
s 0
f 561/807/194 564/810/194 579/833/194 578/832/194
s 1
f 562/808/174 561/807/195 576/827/196 575/824/192
f 564/810/197 563/809/173 566/812/183 565/811/198
s 0
f 565/811/199 568/814/199 583/839/199 582/838/199
s 1
f 568/814/200 567/813/182 570/816/189 569/815/201
s 0
f 569/815/202 572/819/202 587/847/202 586/845/202
s 1
f 572/820/203 571/817/188 574/823/193 573/822/204
s 0
f 573/822/205 576/826/205 591/855/205 590/853/205
s 1
f 577/830/206 580/834/207 594/860/208 593/859/209
s 0
f 578/832/210 577/829/210 592/856/210 591/854/210
s 1
f 580/835/207 579/833/211 582/838/212 581/837/213
f 581/836/213 584/841/214 598/864/215 597/863/216
s 0
f 584/840/217 583/839/217 586/845/217 585/844/217
s 1
f 585/843/218 588/849/219 601/867/220 600/866/221
f 588/848/219 587/846/222 590/853/223 589/852/224
f 589/851/224 592/857/225 604/870/226 603/869/227
f 593/859/209 595/861/228 602/868/229 604/870/226
f 595/861/228 594/860/208 597/863/216 596/862/230
f 596/862/230 598/864/215 600/866/221 599/865/231
f 599/865/231 601/867/220 603/869/227 602/868/229
f 507/735/1 521/755/1 524/758/1 510/738/1
f 595/861/228 596/862/230 599/865/231 602/868/229
f 514/742/146 519/752/148 527/762/3 526/761/3
f 511/739/4 523/757/4 528/764/4 518/750/4
f 515/743/5 525/760/5 522/756/5 506/734/5
f 508/736/1 509/737/1 534/770/1 531/767/1
f 512/740/4 517/748/4 538/774/4 535/771/4
f 520/754/147 513/741/147 542/781/166 539/775/147
f 516/746/5 505/733/5 530/766/5 543/782/5
f 532/768/1 533/769/1 550/792/179 547/789/178
f 536/772/4 537/773/4 554/796/185 551/793/184
f 540/778/165 541/780/167 558/802/190 555/797/190
f 544/785/5 529/765/5 546/788/175 559/803/177
f 548/790/172 549/791/180 566/812/183 563/809/173
f 552/794/181 553/795/186 570/816/189 567/813/182
f 556/799/187 557/801/191 574/823/193 571/817/188
f 560/805/176 545/787/171 562/808/174 575/824/192
f 564/810/197 565/811/198 582/838/212 579/833/211
f 568/814/200 569/815/201 586/845/4 583/839/4
f 572/820/203 573/822/204 590/853/223 587/846/232
f 576/827/196 561/807/195 578/832/5 591/854/5
f 580/834/207 581/836/213 597/863/216 594/860/208
f 584/841/214 585/843/218 600/866/221 598/864/215
f 588/849/219 589/851/224 603/869/227 601/867/220
f 592/857/225 577/830/206 593/859/209 604/870/226
f 505/733/138 506/734/139 507/735/139 508/736/138
f 509/737/140 510/738/141 511/739/141 512/740/140
f 513/741/142 514/742/150 515/744/149 516/747/143
f 517/749/152 518/751/157 519/752/156 520/754/153
f 529/765/159 530/766/138 531/767/138 532/768/160
f 533/769/161 534/770/140 535/771/140 536/772/161
f 537/773/162 538/774/155 539/776/154 540/779/163
f 541/780/168 542/781/145 543/783/144 544/786/169
f 545/787/171 546/788/233 547/789/233 548/790/172
f 549/791/180 550/792/234 551/793/234 552/794/181
f 553/795/186 554/796/235 555/798/235 556/800/187
f 557/801/191 558/802/236 559/804/236 560/806/176
f 561/807/237 562/808/174 563/809/173 564/810/237
f 565/811/238 566/812/183 567/813/182 568/814/238
f 569/815/239 570/816/189 571/818/188 572/821/239
f 573/822/240 574/823/193 575/825/192 576/828/240
f 577/831/206 578/832/241 579/833/241 580/835/207
f 581/837/213 582/838/242 583/839/242 584/842/214
f 585/844/218 586/845/243 587/847/243 588/850/219
f 589/852/224 590/853/244 591/855/244 592/858/225
f 593/859/209 594/860/208 595/861/228
f 596/862/230 597/863/216 598/864/215
f 599/865/231 600/866/221 601/867/220
f 602/868/229 603/869/227 604/870/226
f 617/901/245 618/903/246 632/924/247 631/923/248
f 619/906/249 605/872/250 443/619/251 633/925/252
f 622/912/253 611/886/254 421/581/255 636/930/256
f 624/917/257 613/891/258 625/918/259 638/933/260
f 608/880/261 619/906/249 633/925/252 432/600/262
f 605/872/250 606/875/263 442/618/264 443/619/251
f 610/884/265 609/882/266 431/599/267 422/582/268
f 618/903/246 624/917/257 638/933/260 632/924/247
f 612/888/269 623/915/270 637/931/271 420/580/272
f 621/910/273 622/912/253 636/930/256 635/929/274
f 614/894/275 616/898/276 630/922/277 628/920/278
f 609/882/266 607/878/279 433/601/280 431/599/267
f 623/915/270 621/910/273 635/929/274 637/931/271
f 606/875/263 620/908/281 634/928/282 442/618/264
f 615/896/283 614/894/275 628/920/278 629/921/284
f 616/898/276 610/884/265 422/582/268 630/922/277
f 607/878/279 617/901/245 631/923/248 433/601/280
f 613/891/258 612/888/269 420/580/272 625/918/259
f 620/908/281 615/896/283 629/921/284 634/928/282
f 611/886/254 608/880/261 432/600/262 421/581/255
f 631/923/285 632/924/286 629/921/287 628/920/288
f 634/927/289 638/933/290 625/919/1 606/876/1
s 0
f 612/889/291 605/873/291 606/876/291 625/919/291
s 1
f 641/934/292 612/889/3 605/873/3 642/935/293
f 638/933/290 634/928/289 629/921/287 632/924/286
f 633/926/5 637/932/1 641/934/292 642/935/293
s 0
f 164/228/2 163/226/2 167/232/2 168/234/2
l 221 605
l 222 606
l 607 635
l 609 636
l 610 611
l 608 630
l 626 640
l 627 639
