# Blender 3.5.1
# www.blender.org
mtllib piramide7.mtl
o pyramids.002
v -1.647878 -0.002357 13.547039
v -1.019870 -0.002357 13.547039
v -1.647878 0.104774 13.547039
v -1.019870 0.104774 13.547039
v -1.647878 0.104774 13.026240
v -1.019870 0.104774 13.026240
v -1.647878 -0.002357 13.026240
v -1.019870 -0.002357 13.026240
v -1.580458 0.343394 13.491131
v -1.087289 0.343394 13.491131
v -1.087289 0.343394 13.082150
v -1.580458 0.343394 13.082150
v -1.580458 0.865675 13.491131
v -1.087289 0.865675 13.491131
v -1.087289 0.865675 13.082150
v -1.580458 0.865675 13.082150
v -1.526613 1.083207 13.446477
v -1.141134 1.083207 13.446477
v -1.141134 1.083207 13.126802
v -1.526613 1.083207 13.126802
v -1.526613 1.327513 13.446477
v -1.141134 1.327513 13.446477
v -1.141134 1.327512 13.126802
v -1.526613 1.327512 13.126802
v -1.560804 1.524294 13.474831
v -1.106943 1.524294 13.474831
v -1.106943 1.524293 13.098450
v -1.560804 1.524293 13.098450
v -1.500564 3.042881 13.424875
v -1.167183 3.042881 13.424875
v -1.167183 3.042881 13.148405
v -1.500564 3.042881 13.148405
v -1.526725 3.062871 13.446569
v -1.141022 3.062871 13.446569
v -1.141022 3.062871 13.126710
v -1.526725 3.062871 13.126710
v -1.526725 3.085724 13.446569
v -1.141022 3.085724 13.446569
v -1.141022 3.085724 13.126710
v -1.526725 3.085724 13.126710
v -1.508660 3.099838 13.431590
v -1.159086 3.099838 13.431590
v -1.159086 3.099838 13.141692
v -1.508660 3.099838 13.141692
v -1.087289 0.627023 13.082150
v -1.087289 0.627023 13.491131
v -1.580458 0.627023 13.491131
v -1.580458 0.627023 13.082150
v -1.087289 0.582046 13.082150
v -1.087289 0.582046 13.491131
v -1.580458 0.582046 13.491131
v -1.580458 0.582046 13.082150
v -1.106658 0.583812 13.098213
v -1.106658 0.583812 13.475067
v -1.106658 0.625257 13.098213
v -1.106658 0.625257 13.475067
v -1.561089 0.583812 13.475067
v -1.561089 0.625257 13.475067
v -1.561089 0.583812 13.098213
v -1.561089 0.625257 13.098213
v -1.141134 1.222984 13.126802
v -1.141134 1.222985 13.446477
v -1.526613 1.222985 13.446477
v -1.526613 1.222984 13.126802
v -1.141134 1.187734 13.126802
v -1.141134 1.187734 13.446477
v -1.526613 1.187734 13.446477
v -1.526613 1.187734 13.126802
v -1.155544 1.189052 13.138754
v -1.155544 1.189053 13.434526
v -1.155544 1.221666 13.138754
v -1.155544 1.221667 13.434526
v -1.512203 1.189053 13.434526
v -1.512203 1.221667 13.434526
v -1.512203 1.189052 13.138754
v -1.512203 1.221666 13.138754
v 0.856393 -0.002357 13.547039
v 1.484401 -0.002357 13.547039
v 0.856393 0.104774 13.547039
v 1.484401 0.104774 13.547039
v 0.856393 0.104774 13.026240
v 1.484401 0.104774 13.026240
v 0.856393 -0.002357 13.026240
v 1.484401 -0.002357 13.026240
v 0.923812 0.343394 13.491131
v 1.416982 0.343394 13.491131
v 1.416982 0.343394 13.082150
v 0.923812 0.343394 13.082150
v 0.923812 0.865675 13.491131
v 1.416982 0.865675 13.491131
v 1.416982 0.865675 13.082150
v 0.923812 0.865675 13.082150
v 0.977657 1.083207 13.446477
v 1.363137 1.083207 13.446477
v 1.363137 1.083207 13.126802
v 0.977657 1.083207 13.126802
v 0.977657 1.327513 13.446477
v 1.363137 1.327513 13.446477
v 1.363137 1.327512 13.126802
v 0.977657 1.327512 13.126802
v 0.943466 1.524294 13.474831
v 1.397328 1.524294 13.474831
v 1.397328 1.524293 13.098450
v 0.943466 1.524293 13.098450
v 1.003707 3.042881 13.424875
v 1.337088 3.042881 13.424875
v 1.337088 3.042881 13.148405
v 1.003707 3.042881 13.148405
v 0.977546 3.062871 13.446569
v 1.363249 3.062871 13.446569
v 1.363249 3.062871 13.126710
v 0.977546 3.062871 13.126710
v 0.977546 3.085724 13.446569
v 1.363249 3.085724 13.446569
v 1.363249 3.085724 13.126710
v 0.977546 3.085724 13.126710
v 0.995611 3.099838 13.431590
v 1.345184 3.099838 13.431590
v 1.345184 3.099838 13.141692
v 0.995611 3.099838 13.141692
v 1.416982 0.627023 13.082150
v 1.416982 0.627023 13.491131
v 0.923812 0.627023 13.491131
v 0.923812 0.627023 13.082150
v 1.416982 0.582046 13.082150
v 1.416982 0.582046 13.491131
v 0.923812 0.582046 13.491131
v 0.923812 0.582046 13.082150
v 1.397613 0.583812 13.098213
v 1.397613 0.583812 13.475067
v 1.397613 0.625257 13.098213
v 1.397613 0.625257 13.475067
v 0.943182 0.583812 13.475067
v 0.943182 0.625257 13.475067
v 0.943182 0.583812 13.098213
v 0.943182 0.625257 13.098213
v 1.363137 1.222984 13.126802
v 1.363137 1.222985 13.446477
v 0.977657 1.222985 13.446477
v 0.977657 1.222984 13.126802
v 1.363137 1.187734 13.126802
v 1.363137 1.187734 13.446477
v 0.977657 1.187734 13.446477
v 0.977657 1.187734 13.126802
v 1.348727 1.189052 13.138754
v 1.348727 1.189053 13.434526
v 1.348727 1.221666 13.138754
v 1.348727 1.221667 13.434526
v 0.992068 1.189053 13.434526
v 0.992068 1.221667 13.434526
v 0.992068 1.189052 13.138754
v 0.992068 1.221666 13.138754
v -0.639744 0.936392 16.642923
v 0.639744 0.936392 16.642923
v -0.639744 2.325119 16.642921
v 0.639744 2.325119 16.642921
v -0.639744 2.325119 13.673252
v 0.639744 2.325119 13.673252
v -0.639744 0.936392 13.673252
v 0.639744 0.936392 13.673252
v 0.253635 2.325119 16.642921
v 0.253635 2.325119 13.673252
v 0.253635 0.997600 13.673252
v 0.253635 0.997600 16.642923
v -0.253635 2.325119 16.642921
v -0.253635 2.325119 13.673252
v -0.253635 0.997600 13.673252
v -0.253635 0.997600 16.642923
v 0.253635 1.993193 13.673252
v -0.253635 1.993193 13.673252
v -0.639744 1.993193 13.673252
v -0.639744 1.993193 16.642921
v -0.253635 1.993193 16.642921
v 0.253635 1.993193 16.642921
v 0.639744 1.993193 16.642921
v 0.639744 1.993193 13.673252
v 0.573760 1.993193 13.673252
v 0.320139 1.993193 13.673252
v 0.253635 2.261502 13.673252
v 0.253635 2.059109 13.673252
v -0.253635 2.261502 13.673252
v -0.253635 2.059109 13.673252
v -0.314630 1.993193 13.673252
v -0.578165 1.993193 13.673252
v 0.573760 1.002117 13.673252
v 0.573760 2.261502 13.673252
v -0.578165 2.261502 13.673252
v -0.578165 1.000365 13.673252
v -0.314630 0.996655 13.673252
v -0.314630 2.059109 13.673252
v 0.320139 2.059109 13.673252
v 0.320139 1.002432 13.673252
v -0.639744 2.325119 13.657349
v -0.253635 2.325119 13.657349
v -0.253635 2.261502 13.657349
v -0.578165 2.261502 13.657349
v 0.639744 1.993193 13.657349
v 0.573760 1.993193 13.657349
v 0.573760 2.261502 13.657349
v 0.639744 2.325119 13.657349
v 0.253635 2.261502 13.657349
v 0.253635 2.325119 13.657349
v -0.578165 1.993193 13.657349
v -0.639744 1.993193 13.657349
v -0.578165 1.000365 13.657349
v -0.639744 0.936392 13.657349
v 0.639744 0.936392 13.657349
v 0.573760 1.002117 13.657349
v 0.253635 1.993193 13.657349
v 0.253635 0.936392 13.657349
v 0.320139 1.993193 13.657349
v 0.320139 1.002432 13.657349
v 0.253635 2.059109 13.657349
v 0.320139 2.059109 13.657349
v -0.253635 2.059109 13.657349
v -0.253635 1.993193 13.657349
v -0.314630 1.993193 13.657349
v -0.314630 2.059109 13.657349
v -0.314630 0.996655 13.657349
v -0.253635 0.936392 13.657349
v -2.747427 0.964177 14.502872
v -2.099600 0.964177 14.502872
v -2.747427 1.121392 14.502872
v -2.099600 1.121392 14.502872
v -2.747427 1.121392 13.855044
v -2.099600 1.121392 13.855044
v -2.747427 0.964177 13.855044
v -2.099600 0.964177 13.855044
v -2.701069 1.272835 14.456514
v -2.145958 1.272835 14.456514
v -2.145958 1.272835 13.901403
v -2.701069 1.272835 13.901403
v -2.701069 1.423687 14.456514
v -2.145958 1.423687 14.456514
v -2.145958 1.423687 13.901403
v -2.701069 1.423687 13.901403
v -2.747272 1.541524 14.502716
v -2.099755 1.541524 14.502716
v -2.099755 1.541524 13.855200
v -2.747272 1.541524 13.855200
v -2.747272 1.646939 14.502716
v -2.099755 1.646939 14.502716
v -2.099755 1.646939 13.855200
v -2.747272 1.646939 13.855200
v -2.790530 1.659078 14.545975
v -2.056497 1.659078 14.545975
v -2.056497 1.659078 13.811942
v -2.790530 1.659078 13.811942
v -2.790530 1.695498 14.545975
v -2.056497 1.695498 14.545975
v -2.056497 1.695498 13.811942
v -2.790530 1.695498 13.811942
v -2.764595 1.707623 14.520039
v -2.082432 1.707623 14.520039
v -2.082432 1.707623 13.837878
v -2.764595 1.707623 13.837878
v 2.141600 0.964177 14.502872
v 2.789428 0.964177 14.502872
v 2.141600 1.121392 14.502872
v 2.789428 1.121392 14.502872
v 2.141600 1.121392 13.855044
v 2.789428 1.121392 13.855044
v 2.141600 0.964177 13.855044
v 2.789428 0.964177 13.855044
v 2.187958 1.272835 14.456514
v 2.743070 1.272835 14.456514
v 2.743070 1.272835 13.901403
v 2.187958 1.272835 13.901403
v 2.187958 1.423687 14.456514
v 2.743070 1.423687 14.456514
v 2.743070 1.423687 13.901403
v 2.187958 1.423687 13.901403
v 2.141755 1.541524 14.502716
v 2.789272 1.541524 14.502716
v 2.789272 1.541524 13.855200
v 2.141755 1.541524 13.855200
v 2.141755 1.646939 14.502716
v 2.789272 1.646939 14.502716
v 2.789272 1.646939 13.855200
v 2.141755 1.646939 13.855200
v 2.098497 1.659078 14.545975
v 2.832530 1.659078 14.545975
v 2.832530 1.659078 13.811942
v 2.098497 1.659078 13.811942
v 2.098497 1.695498 14.545975
v 2.832530 1.695498 14.545975
v 2.832530 1.695498 13.811942
v 2.098497 1.695498 13.811942
v 2.124432 1.707623 14.520039
v 2.806595 1.707623 14.520039
v 2.806595 1.707623 13.837878
v 2.124432 1.707623 13.837878
v -0.392691 0.933761 13.708666
v 0.392691 0.933761 13.708666
v -0.392691 0.933760 13.632889
v 0.392691 0.933760 13.632889
v -0.392691 0.933760 13.596256
v 0.392691 0.933760 13.596256
v -0.392691 0.898819 13.596256
v 0.392691 0.898819 13.596256
v -0.392691 0.898819 13.564528
v 0.392691 0.898819 13.564528
v -0.392691 0.863279 13.564524
v 0.392691 0.863279 13.564524
v -0.392691 0.863279 13.538080
v 0.392691 0.863279 13.538080
v -0.392691 0.827442 13.538077
v 0.392691 0.827442 13.538077
v -0.392691 0.827442 13.511965
v 0.392691 0.827442 13.511965
v -0.392691 0.789381 13.511965
v 0.392691 0.789381 13.511965
v -0.392691 0.789381 13.478804
v 0.392691 0.789381 13.478804
v -0.392691 0.750906 13.478800
v 0.392691 0.750906 13.478800
v -0.392691 0.750906 13.449877
v 0.392691 0.750906 13.449877
v -0.392691 0.709073 13.449875
v 0.392691 0.709073 13.449875
v -0.392691 0.709073 13.415202
v 0.392691 0.709073 13.415202
v -0.392691 0.673892 13.415199
v 0.392691 0.673892 13.415199
v -0.392691 0.673892 13.386633
v 0.392691 0.673892 13.386633
v -0.392691 0.634883 13.386633
v 0.392691 0.634883 13.386633
v -0.392691 0.634883 13.358729
v 0.392691 0.634883 13.358729
v -0.392691 0.596406 13.358729
v 0.392691 0.596406 13.358729
v -0.392691 0.596406 13.329543
v 0.392691 0.596406 13.329543
v -0.392691 0.560384 13.329543
v 0.392691 0.560384 13.329543
v -0.392691 0.560384 13.296622
v 0.392691 0.560384 13.296622
v -0.392691 0.524334 13.296622
v 0.392691 0.524334 13.296622
v -0.392691 0.524334 13.272728
v 0.392691 0.524334 13.272728
v -0.392691 0.479134 13.272728
v 0.392691 0.479134 13.272728
v -0.392691 0.479134 13.234615
v 0.392691 0.479134 13.234615
v -0.392691 0.440705 13.234615
v 0.392691 0.440705 13.234615
v -0.392691 0.440705 13.204230
v 0.392691 0.440705 13.204230
v -0.392691 0.399427 13.204230
v 0.392691 0.399427 13.204230
v -0.392691 0.399427 13.170033
v 0.392691 0.399427 13.170033
v -0.392691 0.354502 13.170033
v 0.392691 0.354502 13.170033
v -0.392691 0.354502 13.136879
v 0.392691 0.354502 13.136879
v -0.392691 0.310329 13.136879
v 0.392691 0.310329 13.136879
v -0.392691 0.310329 13.101795
v 0.392691 0.310329 13.101795
v -0.392691 0.259932 13.101795
v 0.392691 0.259932 13.101795
v -0.392691 0.259932 13.061694
v 0.392691 0.259932 13.061694
v -0.392691 0.219654 13.061694
v 0.392691 0.219654 13.061694
v -0.392691 0.219654 13.029953
v 0.392691 0.219654 13.029953
v -0.392691 0.174652 13.029953
v 0.392691 0.174652 13.029953
v -0.392691 0.174652 12.996157
v 0.392691 0.174652 12.996157
v -0.392691 0.134130 12.996157
v 0.392691 0.134130 12.996157
v -0.392691 0.134130 12.960574
v 0.392691 0.134130 12.960574
v -0.392691 0.092877 12.960574
v 0.392691 0.092877 12.960574
v -0.392691 0.092877 12.930578
v 0.392691 0.092877 12.930578
v -0.392691 0.047043 12.930578
v 0.392691 0.047043 12.930578
v -0.392691 0.047043 12.898170
v 0.392691 0.047043 12.898170
v -0.392691 -0.001065 12.898170
v 0.392691 -0.001065 12.898170
v -3.234602 -0.002545 14.640250
v 3.234602 -0.002545 14.640250
v -3.234602 0.997455 14.640250
v 3.234602 0.997455 14.640250
v -3.234602 0.997455 13.640250
v 3.234602 0.997455 13.640250
v -3.234602 -0.002546 13.640250
v 3.234602 -0.002546 13.640250
v 3.234602 0.166611 13.640250
v -3.234602 0.166611 13.640250
v -3.234602 0.166612 14.640250
v 3.234602 0.166612 14.640250
v 3.234602 0.828297 13.640250
v -3.234602 0.828297 13.640250
v -3.234602 0.828298 14.640250
v 3.234602 0.828298 14.640250
v 3.162974 0.287959 13.679384
v -3.162974 0.287959 13.679384
v -3.162974 0.287960 14.601116
v 3.162974 0.287960 14.601116
v 3.162974 0.706950 13.679384
v -3.162974 0.706950 13.679384
v -3.162974 0.706950 14.601116
v 3.162974 0.706950 14.601116
v 0.619599 0.997455 13.640250
v 0.619599 0.828297 13.640250
v 0.619599 0.706950 13.679384
v 0.619599 0.287959 13.679384
v 0.619599 0.166611 13.640250
v 0.619599 -0.002546 13.640250
v 0.626536 -0.002545 14.640250
v 0.626536 0.166612 14.640250
v 0.612662 0.287960 14.601116
v 0.612662 0.706950 14.601116
v 0.626536 0.828298 14.640250
v 0.626536 0.997455 14.640250
v -0.619599 0.997455 13.640250
v -0.619599 0.828297 13.640250
v -0.619599 0.706950 13.679384
v -0.619599 0.287959 13.679384
v -0.619599 0.166611 13.640250
v -0.619599 -0.002546 13.640250
v -0.626536 -0.002545 14.640250
v -0.626536 0.166612 14.640250
v -0.612662 0.287960 14.601116
v -0.612662 0.706950 14.601116
v -0.626536 0.828298 14.640250
v -0.626536 0.997455 14.640250
v 0.357456 0.997455 13.640250
v 0.357456 0.828297 13.640250
v 0.357456 0.706950 13.679384
v 0.357456 0.287959 13.679384
v 0.357456 0.166611 13.640250
v 0.357456 -0.002546 13.640250
v 0.361458 -0.002545 14.640250
v 0.361458 0.166612 14.640250
v 0.353454 0.287960 14.601116
v 0.353454 0.706950 14.601116
v 0.361458 0.828298 14.640250
v 0.361458 0.997455 14.640250
v -0.357457 0.997455 13.640250
v -0.357457 0.828297 13.640250
v -0.357457 0.706950 13.679384
v -0.357457 0.287959 13.679384
v -0.357457 0.166611 13.640250
v -0.357457 -0.002546 13.640250
v -0.361459 -0.002545 14.640250
v -0.361459 0.166612 14.640250
v -0.353455 0.287960 14.601116
v -0.353455 0.706950 14.601116
v -0.361459 0.828298 14.640250
v -0.361459 0.997455 14.640250
v -0.619599 0.061747 12.895930
v -0.357457 0.061747 12.895930
v -0.357457 0.045718 12.895930
v -0.619599 0.045718 12.895930
v -0.619599 0.037033 12.895931
v -0.357457 0.037033 12.895931
v -0.619599 0.021716 12.895931
v -0.357457 0.021716 12.895931
v -0.619599 0.011193 12.895930
v -0.357457 0.011193 12.895930
v -0.619599 -0.002546 12.895930
v -0.357457 -0.002546 12.895930
v 0.357456 0.061747 12.895930
v 0.619599 0.061747 12.895930
v 0.619599 0.045718 12.895930
v 0.357456 0.045718 12.895930
v 0.357456 0.037033 12.895931
v 0.619599 0.037033 12.895931
v 0.357456 0.021716 12.895931
v 0.619599 0.021716 12.895931
v 0.357456 0.011193 12.895930
v 0.619599 0.011193 12.895930
v 0.357456 -0.002546 12.895930
v 0.619599 -0.002546 12.895930
v -1.709783 0.985582 14.606127
v -0.629860 0.985582 14.606127
v -1.709783 1.612172 14.606127
v -0.629860 1.612172 14.606127
v -1.709783 1.612172 13.801549
v -0.629860 1.612172 13.801549
v -1.709783 0.985582 13.801549
v -0.629860 0.985582 13.801549
v -1.709783 1.986439 14.606127
v -0.629860 1.986439 14.606127
v -0.629860 1.986439 13.946058
v -1.709783 1.986439 13.946058
v -1.709783 3.296180 14.606126
v -0.629860 3.296180 14.606126
v -0.629860 3.296180 13.946058
v -1.709783 3.296180 13.946058
v -1.759584 3.326759 14.638816
v -0.580060 3.326759 14.638816
v -0.580060 3.326759 13.913366
v -1.759584 3.326759 13.913366
v -1.759584 3.370806 14.638816
v -0.580060 3.370806 14.638816
v -0.580060 3.370806 13.913366
v -1.759584 3.370806 13.913366
v -1.714452 3.391055 14.609188
v -0.625192 3.391055 14.609188
v -0.625192 3.391055 13.942991
v -1.714452 3.391055 13.942991
v 0.654307 1.620030 14.595015
v 0.654307 1.604316 14.595015
v 0.665418 1.604316 14.606127
v 0.665418 1.620030 14.606127
v 1.723119 1.620030 14.606127
v 1.723119 1.604316 14.606127
v 1.734230 1.604316 14.595015
v 1.734230 1.620030 14.595015
v 0.665400 1.619617 13.804423
v 0.665402 1.604192 13.801549
v 0.654307 1.604326 13.812649
v 0.654307 1.620057 13.816544
v 1.734230 1.620057 13.816544
v 1.734230 1.604313 13.812666
v 1.723127 1.604187 13.801549
v 1.723137 1.619617 13.804423
v 0.665418 0.985582 14.606127
v 0.654307 0.985582 14.595015
v 1.734230 0.985582 14.595015
v 1.723119 0.985582 14.606127
v 0.654307 0.985582 13.812661
v 0.665418 0.985582 13.801549
v 1.723119 0.985582 13.801549
v 1.734230 0.985582 13.812661
v 0.654307 1.994297 14.595015
v 0.654307 1.978583 14.595015
v 0.665418 1.978583 14.606127
v 0.665418 1.994297 14.606127
v 1.723119 1.994297 14.606127
v 1.723119 1.978583 14.606127
v 1.734230 1.978583 14.595015
v 1.734230 1.994297 14.595015
v 1.734230 1.994334 13.957221
v 1.734230 1.978618 13.954895
v 1.723104 1.978975 13.943175
v 1.723127 1.994426 13.946058
v 0.665410 1.994426 13.946058
v 0.665446 1.978965 13.943172
v 0.654307 1.978624 13.954889
v 0.654307 1.994334 13.957221
v 0.646533 3.300954 14.600776
v 0.654307 3.287354 14.595230
v 0.665035 3.287911 14.606126
v 0.657740 3.302299 14.612665
v 1.730797 3.302299 14.612665
v 1.723270 3.287734 14.606126
v 1.734230 3.287462 14.595366
v 1.742004 3.300954 14.600776
v 1.742003 3.300954 13.951406
v 1.734230 3.287353 13.956953
v 1.723502 3.287911 13.946058
v 1.730796 3.302299 13.939516
v 0.657740 3.302299 13.939516
v 0.665266 3.287734 13.946058
v 0.654307 3.287462 13.956817
v 0.646533 3.300954 13.951406
v 0.604506 3.335477 14.628056
v 0.612170 3.322053 14.623481
v 0.627868 3.320642 14.632275
v 0.615234 3.335027 14.638816
v 1.773302 3.335027 14.638816
v 1.761076 3.320748 14.632389
v 1.776257 3.321985 14.623260
v 1.784030 3.335477 14.628056
v 1.784030 3.335477 13.924125
v 1.776367 3.322053 13.928699
v 1.760670 3.320642 13.919906
v 1.773302 3.335027 13.913366
v 0.615234 3.335027 13.913366
v 0.627460 3.320748 13.919792
v 0.612280 3.321985 13.928921
v 0.604506 3.335477 13.924125
v 0.613291 3.374748 14.622987
v 0.604506 3.361669 14.627968
v 0.615299 3.362178 14.638816
v 0.630202 3.375869 14.631410
v 1.758335 3.375869 14.631410
v 1.773035 3.362015 14.638816
v 1.784030 3.361816 14.628143
v 1.775246 3.374748 14.622987
v 1.775246 3.374748 13.929193
v 1.784030 3.361669 13.924213
v 1.773238 3.362178 13.913366
v 1.758335 3.375869 13.920771
v 0.630202 3.375869 13.920771
v 0.615502 3.362015 13.913366
v 0.604506 3.361816 13.924038
v 0.613291 3.374748 13.929194
v 0.642307 3.387765 14.604635
v 0.652568 3.386320 14.616117
v 0.657673 3.391055 14.601154
v 1.730863 3.391055 14.601154
v 1.736027 3.386415 14.615978
v 1.746229 3.387765 14.604635
v 1.730675 3.391055 13.951216
v 1.746229 3.387765 13.947544
v 1.736027 3.386415 13.936201
v 0.657673 3.391055 13.951027
v 0.652509 3.386415 13.936201
v 0.642307 3.387765 13.947544
vn -0.0000 -0.0000 1.0000
vn -0.0000 1.0000 -0.0000
vn -0.0000 -0.0000 -1.0000
vn 1.0000 -0.0000 -0.0000
vn -1.0000 -0.0000 -0.0000
vn -0.0000 0.2281 0.9736
vn 0.9623 0.2719 -0.0000
vn -0.0000 0.2281 -0.9736
vn -0.9623 0.2719 -0.0000
vn -0.0000 0.2011 0.9796
vn 0.9707 0.2403 -0.0000
vn -0.0000 0.2011 -0.9796
vn -0.9707 0.2403 -0.0000
vn -0.0000 -0.1426 0.9898
vn 0.9852 -0.1712 -0.0000
vn -0.0000 -0.1426 -0.9898
vn -0.9852 -0.1712 -0.0000
vn -0.0000 0.0329 0.9995
vn 0.9992 0.0396 -0.0000
vn -0.0000 0.0329 -0.9995
vn -0.9992 0.0396 -0.0000
vn -0.0000 -0.7354 0.6776
vn 0.6072 -0.7946 -0.0000
vn -0.0000 -0.7354 -0.6776
vn -0.6072 -0.7946 -0.0000
vn -0.0000 0.7278 0.6858
vn 0.6157 0.7880 -0.0000
vn -0.0000 0.7279 -0.6857
vn -0.6157 0.7880 -0.0000
vn 0.0908 0.9959 -0.0000
vn 0.0908 -0.9959 -0.0000
vn -0.0000 0.9940 0.1093
vn -0.0000 -0.9940 0.1093
vn -0.0908 0.9959 -0.0000
vn -0.0908 -0.9959 -0.0000
vn -0.0000 0.9940 -0.1093
vn -0.0000 -0.9940 -0.1093
vn 0.0911 0.9958 -0.0000
vn 0.0911 -0.9958 -0.0000
vn -0.0000 0.9940 0.1096
vn -0.0000 -0.9940 0.1096
vn -0.0911 0.9958 -0.0000
vn -0.0911 -0.9958 -0.0000
vn -0.0000 0.9940 -0.1096
vn -0.0000 -0.9940 -0.1096
vn -0.0000 -1.0000 -0.0000
vn 0.0012 1.0000 -0.0000
vn -0.0365 -0.4608 0.8868
vn 0.0141 0.9999 -0.0000
vn 0.0365 -0.4608 0.8868
vn -0.0000 0.2927 0.9562
vn 0.9562 0.2927 -0.0000
vn -0.0000 0.2927 -0.9562
vn -0.9562 0.2927 -0.0000
vn -0.0000 -0.3650 0.9310
vn 0.9310 -0.3650 -0.0000
vn -0.0000 -0.3650 -0.9310
vn -0.9310 -0.3650 -0.0000
vn -0.0000 -0.9628 0.2702
vn 0.2702 -0.9628 -0.0000
vn -0.0000 -0.9628 -0.2702
vn -0.2702 -0.9628 -0.0000
vn -0.0000 0.9059 0.4235
vn 0.4235 0.9059 -0.0000
vn -0.0000 0.9059 -0.4235
vn -0.4235 0.9059 -0.0000
vn -0.0000 0.0001 -1.0000
vn -0.0000 -0.1038 0.9946
vn -0.0000 -0.1368 0.9906
vn -0.0000 -0.1324 -0.9912
vn -0.0000 -0.1036 -0.9946
vn 0.9778 -0.2096 -0.0000
vn -0.9778 -0.2096 -0.0000
vn -0.0000 0.1036 -0.9946
vn -0.0000 0.1324 -0.9912
vn -0.9778 0.2096 -0.0000
vn -0.0000 0.1368 0.9906
vn -0.0000 0.1038 0.9946
vn 0.9778 0.2096 -0.0000
vn -0.0000 -0.0730 -0.9973
vn -0.0000 -0.0900 -0.9959
vn -0.9883 -0.1525 0.0001
vn -0.9883 -0.1525 -0.0000
vn -0.0000 -0.0899 0.9960
vn -0.0000 -0.0697 0.9976
vn 0.9883 -0.1525 -0.0001
vn 0.9883 -0.1525 -0.0000
vn 0.0001 0.0900 -0.9959
vn -0.0000 0.0730 -0.9973
vn -0.9883 0.1525 -0.0001
vn -0.9883 0.1525 -0.0000
vn -0.0000 0.0697 0.9976
vn -0.0000 0.0899 0.9960
vn 0.9883 0.1525 0.0001
vn 0.9883 0.1525 -0.0000
vn -0.0001 -0.0900 -0.9959
vn -0.0000 0.0900 -0.9959
vn -0.0001 0.0899 0.9960
vn -0.0000 -0.0001 -1.0000
vn -0.0000 0.1312 0.9913
vn -0.0000 0.0739 0.9973
vn -0.0000 -0.0739 0.9973
vn -0.0000 -0.1312 0.9913
vn -0.0000 -0.1335 -0.9910
vn -0.0000 -0.0723 -0.9974
vn -0.0000 0.0723 -0.9974
vn -0.0000 0.1335 -0.9910
vn -0.0000 0.6225 -0.7826
vn -0.0000 0.3602 -0.9329
vn -0.0000 -0.7303 0.6831
vn 0.5233 -0.8522 -0.0000
vn -0.0000 -0.7303 -0.6831
vn -0.5232 -0.8522 -0.0000
vn -0.0000 0.8256 0.5643
vn 0.4093 0.9124 -0.0000
vn -0.0000 0.8256 -0.5643
vn -0.4093 0.9124 -0.0000
vn -0.7072 -0.0000 0.7071
vn -0.7071 -0.0000 0.7071
vn 0.7072 -0.0000 0.7071
vn 0.7071 -0.0000 0.7071
vn -0.7072 0.2492 -0.6616
vn -0.7070 0.2517 -0.6609
vn -0.7073 0.2480 -0.6619
vn -0.7071 0.2504 -0.6613
vn 0.0001 0.0045 -1.0000
vn -0.0000 0.3535 -0.9354
vn -0.0000 0.0046 -1.0000
vn -0.7075 0.0042 -0.7067
vn -0.7075 0.0034 -0.7067
vn -0.7072 -0.0000 -0.7071
vn 0.7073 0.2516 -0.6606
vn 0.7075 0.2491 -0.6613
vn 0.7078 0.2502 -0.6607
vn 0.7077 0.2479 -0.6616
vn 0.7077 0.0034 -0.7065
vn 0.7077 0.0042 -0.7065
vn 0.7073 -0.0000 -0.7069
vn -0.7097 -0.0002 0.7045
vn -0.7098 -0.0002 0.7044
vn 0.7039 -0.0001 0.7103
vn 0.7104 0.0012 -0.7038
vn 0.7109 0.0013 -0.7033
vn 0.7107 -0.0002 -0.7035
vn -0.0001 0.0022 -1.0000
vn -0.0002 0.3535 -0.9354
vn -0.0000 0.0022 -1.0000
vn -0.7050 0.0014 -0.7092
vn -0.7050 0.0012 -0.7092
vn -0.7048 -0.0002 -0.7094
vn -0.5926 -0.8054 0.0101
vn -0.0058 -0.6748 0.7380
vn -0.0092 -0.5440 0.8391
vn -0.6810 -0.7321 0.0129
vn -1.0000 -0.0073 -0.0000
vn -0.5929 -0.8052 -0.0101
vn -1.0000 -0.0073 0.0001
vn -0.0001 -0.0064 1.0000
vn -0.0000 -0.0064 1.0000
vn 0.0058 -0.6752 0.7376
vn 0.5929 -0.8052 0.0101
vn 0.6813 -0.7319 0.0128
vn 0.0093 -0.5439 0.8391
vn 1.0000 -0.0073 0.0002
vn 1.0000 -0.0073 -0.0000
vn 0.5926 -0.8055 -0.0101
vn 0.0058 -0.6748 -0.7380
vn 0.0092 -0.5440 -0.8390
vn 0.6810 -0.7322 -0.0130
vn 0.0001 -0.0064 -1.0000
vn -0.0000 -0.0064 -1.0000
vn -0.0058 -0.6752 -0.7376
vn -0.6812 -0.7319 -0.0128
vn -0.0093 -0.5439 -0.8391
vn -0.7085 0.0020 0.7057
vn -0.9861 -0.1663 -0.0000
vn -0.9863 -0.1649 -0.0000
vn -0.0000 -0.1037 0.9946
vn -0.0000 -0.1051 0.9945
vn 0.7023 0.0023 0.7119
vn 0.9863 -0.1649 -0.0000
vn 0.9861 -0.1663 -0.0000
vn 0.7085 0.0020 -0.7057
vn -0.0000 -0.1037 -0.9946
vn -0.0000 -0.1051 -0.9945
vn -0.7023 0.0024 -0.7119
vn -0.4085 0.9125 0.0220
vn -0.0067 0.5855 0.8106
vn -0.0026 0.8725 0.4886
vn -0.3613 0.9324 0.0052
vn -0.8287 0.5598 0.0001
vn -0.0000 0.1095 0.9940
vn -0.0000 0.1103 0.9939
vn 0.0067 0.5864 0.8100
vn 0.4084 0.9125 0.0222
vn 0.3609 0.9326 0.0051
vn 0.0026 0.8725 0.4887
vn 0.8287 0.5597 -0.0001
vn 0.4086 0.9125 -0.0219
vn 0.0067 0.5864 -0.8100
vn 0.0026 0.8726 -0.4884
vn 0.3611 0.9325 -0.0051
vn -0.0000 0.1096 -0.9940
vn -0.0000 0.1103 -0.9939
vn -0.0067 0.5868 -0.8097
vn -0.4084 0.9125 -0.0222
vn -0.3614 0.9324 -0.0051
vn -0.0026 0.8728 -0.4881
vn -0.0034 1.0000 0.0084
vn -0.0034 1.0000 -0.0083
vn 0.0034 1.0000 0.0084
vn 0.0034 1.0000 -0.0083
vn -0.0000 0.1095 -0.9940
vn -0.5705 -0.5647 0.5964
vn 0.5692 -0.5649 0.5974
vn 0.5705 -0.5647 -0.5964
vn -0.5692 -0.5649 -0.5974
vn -0.4986 -0.6101 0.6158
vn 0.5068 -0.6108 0.6084
vn 0.4986 -0.6100 -0.6158
vn -0.5068 -0.6108 -0.6084
vn -0.4497 0.6708 0.5897
vn 0.4415 0.6680 0.5990
vn 0.4497 0.6708 -0.5898
vn -0.4415 0.6680 -0.5990
vt 0.979845 0.208174
vt 0.963342 0.275028
vt 0.963107 0.009102
vt 0.967760 0.206272
vt 0.951383 0.271968
vt 0.951223 0.012085
vt 0.971860 0.142515
vt 0.967896 0.078593
vt 0.984126 0.142524
vt 0.979934 0.076661
vt 0.939706 0.200814
vt 0.927041 0.256704
vt 0.926032 0.027799
vt 0.939155 0.083657
vt 0.943033 0.142207
vt 0.876029 0.192899
vt 0.866712 0.039043
vt 0.866971 0.245413
vt 0.875975 0.091842
vt 0.878366 0.142374
vt 0.850508 0.189468
vt 0.844724 0.234460
vt 0.843585 0.050453
vt 0.849785 0.095052
vt 0.851850 0.142178
vt 0.819074 0.189304
vt 0.815732 0.050539
vt 0.816927 0.234632
vt 0.818376 0.095495
vt 0.820144 0.142432
vt 0.796324 0.191220
vt 0.793365 0.241662
vt 0.792696 0.043528
vt 0.796021 0.093754
vt 0.797450 0.142452
vt 0.623409 0.181874
vt 0.857903 0.378445
vt 0.876951 0.397146
vt 0.620209 0.219856
vt 0.618635 0.067231
vt 0.857201 0.301071
vt 0.875902 0.282023
vt 0.622487 0.105314
vt 0.953276 0.281321
vt 0.972324 0.300022
vt 0.624051 0.143587
vt 0.973026 0.377396
vt 0.954325 0.396444
vt 0.865483 0.384470
vt 0.870789 0.389679
vt 0.864668 0.294909
vt 0.869877 0.289603
vt 0.959438 0.288788
vt 0.964745 0.293997
vt 0.965560 0.383558
vt 0.960351 0.388865
vt 0.870705 0.384459
vt 0.869888 0.294825
vt 0.959522 0.294008
vt 0.960339 0.383642
vt 0.875517 0.379533
vt 0.874815 0.299637
vt 0.954711 0.298935
vt 0.955413 0.378830
vt 0.903052 0.089025
vt 0.892789 0.035351
vt 0.893263 0.249275
vt 0.903333 0.195503
vt 0.906226 0.142313
vt 0.911860 0.087935
vt 0.901173 0.033892
vt 0.901633 0.250840
vt 0.912150 0.196629
vt 0.915158 0.142345
vt 0.909730 0.088224
vt 0.899544 0.036494
vt 0.900049 0.248223
vt 0.904922 0.088847
vt 0.895240 0.037229
vt 0.895752 0.247424
vt 0.910054 0.196311
vt 0.905233 0.195734
vt 0.913023 0.142313
vt 0.908156 0.142342
vt 0.830572 0.096028
vt 0.826913 0.051673
vt 0.827990 0.233348
vt 0.831266 0.188651
vt 0.832423 0.142316
vt 0.837505 0.095952
vt 0.833048 0.051764
vt 0.834104 0.233292
vt 0.838202 0.188695
vt 0.839370 0.142301
vt 0.835936 0.096071
vt 0.831747 0.053520
vt 0.832831 0.231514
vt 0.832049 0.096125
vt 0.828511 0.053463
vt 0.829605 0.231548
vt 0.836653 0.188569
vt 0.832762 0.188578
vt 0.837792 0.142289
vt 0.833897 0.142331
vt 0.979845 0.208174
vt 0.963342 0.275028
vt 0.963107 0.009102
vt 0.967760 0.206272
vt 0.951383 0.271968
vt 0.951223 0.012085
vt 0.971860 0.142515
vt 0.967896 0.078593
vt 0.984126 0.142524
vt 0.979934 0.076661
vt 0.939706 0.200814
vt 0.927041 0.256704
vt 0.926032 0.027799
vt 0.939155 0.083657
vt 0.943033 0.142207
vt 0.876029 0.192899
vt 0.866712 0.039043
vt 0.866971 0.245413
vt 0.875975 0.091842
vt 0.878366 0.142374
vt 0.850508 0.189468
vt 0.844724 0.234460
vt 0.843585 0.050453
vt 0.849785 0.095052
vt 0.851850 0.142178
vt 0.819074 0.189304
vt 0.815732 0.050539
vt 0.816927 0.234632
vt 0.818376 0.095495
vt 0.820144 0.142432
vt 0.796324 0.191220
vt 0.793365 0.241662
vt 0.792696 0.043528
vt 0.796021 0.093754
vt 0.797450 0.142452
vt 0.623409 0.181874
vt 0.296584 0.100760
vt 0.314298 0.118151
vt 0.620209 0.219856
vt 0.618635 0.067231
vt 0.295931 0.028804
vt 0.313322 0.011090
vt 0.622487 0.105314
vt 0.385279 0.010437
vt 0.402993 0.027828
vt 0.624051 0.143587
vt 0.403646 0.099784
vt 0.386254 0.117498
vt 0.303632 0.106363
vt 0.308568 0.111207
vt 0.302875 0.023073
vt 0.307719 0.018138
vt 0.391009 0.017381
vt 0.395945 0.022225
vt 0.396702 0.105515
vt 0.391858 0.110450
vt 0.308490 0.106353
vt 0.307729 0.022995
vt 0.391088 0.022235
vt 0.391847 0.105593
vt 0.312964 0.101771
vt 0.312311 0.027470
vt 0.386613 0.026817
vt 0.387266 0.101118
vt 0.903052 0.089025
vt 0.892789 0.035351
vt 0.893263 0.249275
vt 0.903333 0.195503
vt 0.906226 0.142313
vt 0.911860 0.087935
vt 0.901173 0.033892
vt 0.901633 0.250840
vt 0.912150 0.196629
vt 0.915158 0.142345
vt 0.909730 0.088224
vt 0.899544 0.036494
vt 0.900049 0.248223
vt 0.904922 0.088847
vt 0.895240 0.037229
vt 0.895752 0.247424
vt 0.910054 0.196311
vt 0.905233 0.195734
vt 0.913023 0.142313
vt 0.908156 0.142342
vt 0.830572 0.096028
vt 0.826913 0.051673
vt 0.827990 0.233348
vt 0.831266 0.188651
vt 0.832423 0.142316
vt 0.837505 0.095952
vt 0.833048 0.051764
vt 0.834104 0.233292
vt 0.838202 0.188695
vt 0.839370 0.142301
vt 0.835936 0.096071
vt 0.831747 0.053520
vt 0.832831 0.231514
vt 0.832049 0.096125
vt 0.828511 0.053463
vt 0.829605 0.231548
vt 0.836653 0.188569
vt 0.832762 0.188578
vt 0.837792 0.142289
vt 0.833897 0.142331
vt 0.787967 0.327878
vt 0.811995 0.630626
vt 0.981791 0.631952
vt 0.457476 0.325221
vt 0.810531 0.814917
vt 0.674837 0.326968
vt 0.570606 0.326131
vt 0.980326 0.816281
vt 0.675448 0.250974
vt 0.571217 0.250136
vt 0.788578 0.251883
vt 0.838999 0.438688
vt 0.458087 0.249226
vt 0.492631 0.440457
vt 0.602060 0.326383
vt 0.929092 0.815858
vt 0.602671 0.250389
vt 0.532046 0.440256
vt 0.930565 0.631578
vt 0.531559 0.345028
vt 0.000000 0.000000
vt 0.643383 0.326716
vt 0.861754 0.815344
vt 0.643994 0.250721
vt 0.799585 0.438890
vt 0.863235 0.631025
vt 0.799099 0.343662
vt 0.000000 0.000000
vt 0.639924 0.439705
vt 0.691706 0.439441
vt 0.702488 0.251191
vt 0.701877 0.327186
vt 0.810876 0.770868
vt 0.862116 0.771276
vt 0.691220 0.344213
vt 0.000000 0.000000
vt 0.929432 0.771804
vt 0.639438 0.344477
vt 0.000000 0.000000
vt 0.980664 0.772215
vt 0.543566 0.325913
vt 0.544177 0.249919
vt 0.840206 0.569444
vt 0.644317 0.660003
vt 0.872502 0.568875
vt 0.673469 0.660426
vt 0.881849 0.612366
vt 0.682483 0.695116
vt 0.881164 0.579400
vt 0.683956 0.670569
vt 0.946392 0.611076
vt 0.744016 0.696457
vt 0.945798 0.578097
vt 0.744868 0.672155
vt 0.953485 0.567182
vt 0.753877 0.661703
vt 0.987047 0.566842
vt 0.785584 0.661677
vt 0.837485 0.407959
vt 0.647535 0.525098
vt 0.645837 0.524668
vt 0.841070 0.613200
vt 0.644455 0.695076
vt 0.644604 0.695879
vt 0.987631 0.610488
vt 0.782958 0.697138
vt 0.783802 0.695768
vt 0.985508 0.405086
vt 0.784693 0.527348
vt 0.785896 0.526131
vt 0.951943 0.404795
vt 0.753816 0.526024
vt 0.755976 0.526294
vt 0.953591 0.577946
vt 0.753933 0.670252
vt 0.752374 0.672849
vt 0.872697 0.579595
vt 0.676207 0.670398
vt 0.673214 0.668762
vt 0.869778 0.407476
vt 0.675434 0.525939
vt 0.676751 0.524664
vt 0.791566 0.705339
vt 0.675458 0.249678
vt 0.743907 0.706062
vt 0.644005 0.249425
vt 0.743986 0.698395
vt 0.784420 0.697309
vt 0.634429 0.659835
vt 0.544188 0.248623
vt 0.642392 0.659967
vt 0.643132 0.696442
vt 0.634971 0.704195
vt 0.571227 0.248840
vt 0.682371 0.697047
vt 0.681938 0.704763
vt 0.602681 0.249093
vt 0.787506 0.661717
vt 0.794937 0.661846
vt 0.702498 0.249896
vt 0.785601 0.526123
vt 0.792969 0.517713
vt 0.788589 0.250588
vt 0.839007 0.440312
vt 0.637993 0.515966
vt 0.458097 0.247931
vt 0.492640 0.442080
vt 0.645817 0.524664
vt 0.683600 0.660560
vt 0.639933 0.441328
vt 0.684581 0.516087
vt 0.532054 0.441879
vt 0.675427 0.660475
vt 0.676454 0.524662
vt 0.683824 0.668626
vt 0.674676 0.669933
vt 0.744930 0.670175
vt 0.744733 0.661872
vt 0.691715 0.441064
vt 0.751990 0.661755
vt 0.753504 0.671503
vt 0.753794 0.526022
vt 0.746464 0.518139
vt 0.799593 0.440513
vt 0.311747 0.130248
vt 0.410079 0.130426
vt 0.024698 0.133208
vt 0.311693 0.155159
vt 0.409643 0.155360
vt 0.025499 0.158096
vt 0.217957 0.156237
vt 0.124192 0.156168
vt 0.217828 0.131285
vt 0.123742 0.131258
vt 0.311040 0.180044
vt 0.401297 0.179405
vt 0.034444 0.182846
vt 0.124795 0.181572
vt 0.217881 0.181168
vt 0.311233 0.204506
vt 0.401630 0.202059
vt 0.034785 0.205509
vt 0.124943 0.206034
vt 0.218118 0.205236
vt 0.311720 0.224737
vt 0.410274 0.221690
vt 0.026677 0.224599
vt 0.124335 0.225837
vt 0.218002 0.225059
vt 0.312214 0.241439
vt 0.574685 0.199867
vt 0.595654 0.178588
vt 0.411098 0.238349
vt 0.026123 0.241297
vt 0.464616 0.200672
vt 0.443337 0.179703
vt 0.124118 0.242550
vt 0.442531 0.069635
vt 0.463500 0.048355
vt 0.218097 0.241793
vt 0.573569 0.047550
vt 0.594849 0.068519
vt 0.581988 0.192217
vt 0.588111 0.186002
vt 0.457202 0.193130
vt 0.450987 0.187006
vt 0.450074 0.062220
vt 0.456197 0.056006
vt 0.580984 0.055093
vt 0.587198 0.061216
vt 0.581954 0.186058
vt 0.457146 0.186972
vt 0.456232 0.062164
vt 0.581040 0.061250
vt 0.577223 0.181404
vt 0.461800 0.182242
vt 0.460962 0.066819
vt 0.576386 0.065981
vt 0.311747 0.130248
vt 0.410079 0.130426
vt 0.024698 0.133208
vt 0.311693 0.155159
vt 0.409643 0.155360
vt 0.025499 0.158096
vt 0.217957 0.156237
vt 0.124192 0.156168
vt 0.217828 0.131285
vt 0.123742 0.131258
vt 0.311040 0.180044
vt 0.401297 0.179405
vt 0.034444 0.182846
vt 0.124795 0.181572
vt 0.217881 0.181168
vt 0.311233 0.204506
vt 0.401630 0.202059
vt 0.034785 0.205509
vt 0.124943 0.206034
vt 0.218118 0.205236
vt 0.311720 0.224737
vt 0.410274 0.221690
vt 0.026677 0.224599
vt 0.124335 0.225837
vt 0.218002 0.225059
vt 0.312214 0.241439
vt 0.574685 0.199867
vt 0.595654 0.178588
vt 0.411098 0.238349
vt 0.026123 0.241297
vt 0.464616 0.200672
vt 0.443337 0.179703
vt 0.124118 0.242550
vt 0.442531 0.069635
vt 0.463500 0.048355
vt 0.218097 0.241793
vt 0.573569 0.047550
vt 0.594849 0.068519
vt 0.581988 0.192217
vt 0.588111 0.186002
vt 0.457202 0.193130
vt 0.450987 0.187006
vt 0.450074 0.062220
vt 0.456197 0.056006
vt 0.580984 0.055093
vt 0.587198 0.061216
vt 0.581954 0.186058
vt 0.457146 0.186972
vt 0.456232 0.062164
vt 0.581040 0.061250
vt 0.577223 0.181404
vt 0.461800 0.182242
vt 0.460962 0.066819
vt 0.576386 0.065981
vt 0.615817 0.705347
vt 0.502480 0.706672
vt 0.615689 0.694413
vt 0.502352 0.695737
vt 0.615627 0.689126
vt 0.502291 0.690451
vt 0.615568 0.684084
vt 0.502232 0.685409
vt 0.615515 0.679505
vt 0.502178 0.680830
vt 0.615455 0.674377
vt 0.502118 0.675702
vt 0.615410 0.670561
vt 0.502074 0.671885
vt 0.615350 0.665389
vt 0.502014 0.666714
vt 0.615306 0.661621
vt 0.501970 0.662946
vt 0.615241 0.656129
vt 0.501905 0.657453
vt 0.615185 0.651343
vt 0.501849 0.652668
vt 0.615121 0.645791
vt 0.501785 0.647116
vt 0.615072 0.641617
vt 0.501736 0.642942
vt 0.615001 0.635581
vt 0.501665 0.636905
vt 0.614943 0.630577
vt 0.501607 0.631902
vt 0.614883 0.625500
vt 0.501547 0.626825
vt 0.614835 0.621378
vt 0.501499 0.622702
vt 0.614769 0.615749
vt 0.501433 0.617073
vt 0.614722 0.611722
vt 0.501386 0.613047
vt 0.614658 0.606170
vt 0.501322 0.607494
vt 0.614608 0.601958
vt 0.501272 0.603282
vt 0.614548 0.596760
vt 0.501212 0.598084
vt 0.614492 0.592009
vt 0.501156 0.593333
vt 0.614431 0.586807
vt 0.501095 0.588131
vt 0.614391 0.583359
vt 0.501055 0.584683
vt 0.614315 0.576836
vt 0.500979 0.578161
vt 0.614251 0.571336
vt 0.500914 0.572661
vt 0.614186 0.565791
vt 0.500849 0.567115
vt 0.614135 0.561406
vt 0.500798 0.562730
vt 0.614065 0.555449
vt 0.500728 0.556774
vt 0.614007 0.550514
vt 0.500671 0.551839
vt 0.613932 0.544031
vt 0.500595 0.545356
vt 0.613876 0.539247
vt 0.500539 0.540571
vt 0.613801 0.532872
vt 0.500465 0.534197
vt 0.613742 0.527810
vt 0.500405 0.529134
vt 0.613657 0.520537
vt 0.500320 0.521861
vt 0.613590 0.514750
vt 0.500253 0.516074
vt 0.613522 0.508938
vt 0.500185 0.510262
vt 0.613468 0.504357
vt 0.500131 0.505682
vt 0.613392 0.497863
vt 0.500055 0.499188
vt 0.613335 0.492986
vt 0.499998 0.494310
vt 0.613267 0.487138
vt 0.499930 0.488463
vt 0.613207 0.482003
vt 0.499870 0.483328
vt 0.613138 0.476050
vt 0.499800 0.477375
vt 0.613087 0.471722
vt 0.499750 0.473046
vt 0.613010 0.465107
vt 0.499672 0.466432
vt 0.612955 0.460431
vt 0.499618 0.461755
vt 0.612874 0.453488
vt 0.499537 0.454813
vt 0.912681 0.763357
vt 0.369067 0.831135
vt 0.010635 0.646487
vt 0.011068 0.738059
vt 0.908999 0.628171
vt 0.344775 0.642205
vt 0.010691 0.694744
vt 0.976918 0.984572
vt 0.360008 0.735711
vt 0.008742 0.827264
vt 0.345568 0.698647
vt 0.060039 0.992247
vt 0.975737 0.842841
vt 0.456888 0.731161
vt 0.096031 0.835615
vt 0.058848 0.850516
vt 0.891787 0.763929
vt 0.457668 0.827280
vt 0.096505 0.734228
vt 0.888098 0.628741
vt 0.096707 0.750014
vt 0.457320 0.812027
vt 0.368415 0.816147
vt 0.010642 0.654556
vt 0.011734 0.752508
vt 0.344916 0.651628
vt 0.096062 0.819705
vt 0.457100 0.746758
vt 0.360778 0.752098
vt 0.010681 0.686687
vt 0.010152 0.812489
vt 0.345446 0.689210
vt 0.101097 0.762581
vt 0.461019 0.799787
vt 0.371337 0.803512
vt 0.014069 0.660634
vt 0.015635 0.764376
vt 0.341029 0.658794
vt 0.101260 0.804103
vt 0.460797 0.759240
vt 0.366983 0.765215
vt 0.014092 0.680606
vt 0.014761 0.800511
vt 0.341353 0.682150
vt 0.350552 0.829716
vt 0.429487 0.847414
vt 0.056140 0.109142
vt 0.350177 0.813253
vt 0.047230 0.097638
vt 0.349940 0.800923
vt 0.038174 0.091448
vt 0.349269 0.760436
vt 0.016087 0.062949
vt 0.349088 0.748135
vt 0.012352 0.052629
vt 0.348940 0.731807
vt 0.003439 0.041113
vt 0.889589 0.683392
vt 0.910482 0.682676
vt 0.199511 0.644417
vt 0.199678 0.653782
vt 0.199008 0.660838
vt 0.199169 0.683976
vt 0.199977 0.691056
vt 0.200030 0.700500
vt 0.429694 0.989152
vt 0.694148 0.732217
vt 0.605123 0.845943
vt 0.214385 0.109087
vt 0.694078 0.747565
vt 0.223109 0.097960
vt 0.694102 0.759111
vt 0.231942 0.091996
vt 0.694287 0.797083
vt 0.253552 0.064434
vt 0.694375 0.808622
vt 0.257236 0.054433
vt 0.694591 0.823947
vt 0.265960 0.043305
vt 0.890292 0.709288
vt 0.911193 0.708865
vt 0.135076 0.646388
vt 0.135105 0.654492
vt 0.135777 0.660605
vt 0.135721 0.680615
vt 0.135111 0.686539
vt 0.134894 0.694591
vt 0.607289 0.987666
vt 0.727151 0.794122
vt 0.466624 0.847103
vt 0.078685 0.109430
vt 0.727086 0.785545
vt 0.087891 0.098161
vt 0.727037 0.779079
vt 0.097098 0.092206
vt 0.726882 0.757823
vt 0.119904 0.064287
vt 0.726831 0.751358
vt 0.123899 0.054073
vt 0.726704 0.742656
vt 0.133099 0.042808
vt 0.889737 0.688869
vt 0.910634 0.688215
vt 0.185258 0.645374
vt 0.185444 0.654287
vt 0.185091 0.661075
vt 0.184881 0.683682
vt 0.185083 0.690646
vt 0.184655 0.699903
vt 0.467246 0.988838
vt 0.763424 0.793871
vt 0.567952 0.846254
vt 0.192472 0.109240
vt 0.763374 0.785289
vt 0.183598 0.098238
vt 0.763335 0.778817
vt 0.174686 0.092400
vt 0.763202 0.757537
vt 0.152678 0.065133
vt 0.763164 0.751054
vt 0.148857 0.055188
vt 0.763108 0.742441
vt 0.139986 0.044200
vt 0.890142 0.703808
vt 0.911044 0.703327
vt 0.147953 0.645858
vt 0.148041 0.654410
vt 0.148403 0.660857
vt 0.147491 0.682196
vt 0.146263 0.688955
vt 0.145729 0.697282
vt 0.569703 0.987980
vt 0.034891 0.007297
vt 0.213681 0.009146
vt 0.023179 0.007536
vt 0.191769 0.009302
vt 0.023164 0.006819
vt 0.190928 0.008260
vt 0.034877 0.006581
vt 0.214508 0.008092
vt 0.034869 0.006193
vt 0.214956 0.007520
vt 0.023156 0.006431
vt 0.190472 0.007695
vt 0.034855 0.005509
vt 0.215746 0.006513
vt 0.023143 0.005747
vt 0.189668 0.006698
vt 0.034845 0.005038
vt 0.216289 0.005821
vt 0.023133 0.005277
vt 0.189116 0.006014
vt 0.034833 0.004425
vt 0.216997 0.004917
vt 0.874738 0.709715
vt 0.023121 0.004663
vt 0.188395 0.005121
vt 0.874584 0.704235
vt 0.017470 0.007476
vt 0.080039 0.006597
vt 0.004304 0.008090
vt 0.057487 0.006294
vt 0.004267 0.007285
vt 0.056643 0.005203
vt 0.017432 0.006671
vt 0.080912 0.005530
vt 0.017412 0.006234
vt 0.081384 0.004952
vt 0.004246 0.006849
vt 0.056185 0.004611
vt 0.017376 0.005465
vt 0.082217 0.003932
vt 0.004210 0.006080
vt 0.055379 0.003569
vt 0.017352 0.004937
vt 0.082789 0.003232
vt 0.004186 0.005551
vt 0.054826 0.002852
vt 0.017319 0.004247
vt 0.083536 0.002317
vt 0.874191 0.689291
vt 0.004153 0.004861
vt 0.054103 0.001917
vt 0.874050 0.683812
vt 0.269367 0.329364
vt 0.401158 0.333979
vt 0.270597 0.410917
vt 0.399226 0.409403
vt 0.156512 0.376578
vt 0.172557 0.413902
vt 0.493545 0.411666
vt 0.017610 0.378107
vt 0.155629 0.295983
vt 0.168026 0.334917
vt 0.016723 0.297509
vt 0.496345 0.337583
vt 0.271535 0.455347
vt 0.398571 0.453667
vt 0.474806 0.454526
vt 0.018029 0.429782
vt 0.157193 0.428300
vt 0.193717 0.458201
vt 0.275579 0.607246
vt 0.398970 0.605116
vt 0.472989 0.602837
vt 0.019676 0.598811
vt 0.159039 0.597357
vt 0.200899 0.607615
vt 0.273033 0.612799
vt 0.401720 0.610563
vt 0.476517 0.608789
vt 0.013307 0.604658
vt 0.165527 0.603069
vt 0.197550 0.613731
vt 0.273110 0.617519
vt 0.482923 0.718843
vt 0.401811 0.615268
vt 0.358120 0.719258
vt 0.476635 0.613338
vt 0.013366 0.610344
vt 0.357809 0.641815
vt 0.165587 0.608755
vt 0.197591 0.618318
vt 0.482613 0.641239
vt 0.477989 0.715268
vt 0.363025 0.715650
vt 0.362742 0.645384
vt 0.477710 0.644855
vt 0.269307 0.411898
vt 0.269228 0.409935
vt 0.271938 0.409942
vt 0.271940 0.411834
vt 0.397905 0.410350
vt 0.397926 0.408473
vt 0.400563 0.408506
vt 0.400495 0.410347
vt 0.155096 0.377622
vt 0.155074 0.375567
vt 0.173894 0.412840
vt 0.156501 0.375569
vt 0.156534 0.378222
vt 0.174459 0.414791
vt 0.156512 0.376578
vt 0.491749 0.412535
vt 0.017610 0.378107
vt 0.492277 0.410705
vt 0.017599 0.377096
vt 0.019027 0.377064
vt 0.493172 0.412518
vt 0.019045 0.379119
vt 0.270723 0.329411
vt 0.267967 0.329440
vt 0.402473 0.334029
vt 0.399802 0.333932
vt 0.155629 0.295983
vt 0.169425 0.334841
vt 0.154200 0.295999
vt 0.018152 0.297494
vt 0.016723 0.297509
vt 0.495030 0.337533
vt 0.270268 0.456291
vt 0.270205 0.454462
vt 0.272839 0.454398
vt 0.272866 0.456241
vt 0.397288 0.454596
vt 0.397277 0.452755
vt 0.399868 0.452753
vt 0.399857 0.454590
vt 0.473520 0.455424
vt 0.473808 0.453597
vt 0.019452 0.428735
vt 0.475180 0.453671
vt 0.474795 0.455430
vt 0.019470 0.430797
vt 0.474806 0.454526
vt 0.155772 0.429346
vt 0.155744 0.427282
vt 0.194719 0.457231
vt 0.157186 0.427770
vt 0.157204 0.429319
vt 0.195077 0.459053
vt 0.157193 0.428300
vt 0.274094 0.608127
vt 0.274319 0.606229
vt 0.276802 0.606269
vt 0.276600 0.608331
vt 0.398059 0.606231
vt 0.397715 0.604161
vt 0.400189 0.604092
vt 0.400571 0.605930
vt 0.472462 0.603792
vt 0.471780 0.601875
vt 0.021049 0.597729
vt 0.473001 0.601901
vt 0.020131 0.599963
vt 0.472989 0.602837
vt 0.158609 0.598518
vt 0.157613 0.596281
vt 0.202090 0.606598
vt 0.159027 0.596231
vt 0.201559 0.608564
vt 0.159039 0.597357
vt 0.271929 0.613745
vt 0.272353 0.611958
vt 0.275074 0.611662
vt 0.274218 0.613665
vt 0.400567 0.611467
vt 0.399743 0.609517
vt 0.402463 0.609677
vt 0.402847 0.611468
vt 0.475430 0.609718
vt 0.474911 0.607898
vt 0.016310 0.603470
vt 0.475134 0.606456
vt 0.476539 0.609643
vt 0.014703 0.605711
vt 0.476227 0.608300
vt 0.164154 0.604151
vt 0.162553 0.601964
vt 0.199255 0.612771
vt 0.163423 0.601217
vt 0.165539 0.604195
vt 0.198678 0.614625
vt 0.165252 0.602827
vt 0.271598 0.617535
vt 0.481959 0.717084
vt 0.273984 0.617472
vt 0.271965 0.616552
vt 0.274273 0.616574
vt 0.480165 0.717955
vt 0.275575 0.617386
vt 0.360867 0.718351
vt 0.399296 0.615312
vt 0.400593 0.614350
vt 0.402893 0.614282
vt 0.403278 0.615141
vt 0.359070 0.717482
vt 0.400931 0.615284
vt 0.358774 0.643571
vt 0.475136 0.613376
vt 0.475491 0.612423
vt 0.014747 0.609216
vt 0.476612 0.612447
vt 0.016282 0.610205
vt 0.360568 0.642700
vt 0.475950 0.613356
vt 0.479867 0.642150
vt 0.162613 0.608786
vt 0.164156 0.607635
vt 0.198693 0.617368
vt 0.165575 0.607595
vt 0.199072 0.618209
vt 0.481663 0.643020
vt 0.164547 0.608766
vt 0.478787 0.714859
vt 0.477716 0.716109
vt 0.477138 0.714422
vt 0.363869 0.714799
vt 0.363295 0.716473
vt 0.362224 0.715237
vt 0.363614 0.646247
vt 0.361945 0.645792
vt 0.363010 0.644559
vt 0.476866 0.645707
vt 0.477439 0.644033
vt 0.478511 0.645270
s 0
usemtl lambert4SG.001
f 1/1/1 2/2/1 4/5/1 3/4/1
f 41/61/2 42/62/2 43/63/2 44/64/2
f 5/7/3 6/8/3 8/10/3 7/9/3
f 2/3/4 8/10/4 6/8/4 4/6/4
f 7/9/5 1/1/5 3/4/5 5/7/5
f 3/4/6 4/5/6 10/12/6 9/11/6
f 4/6/7 6/8/7 11/14/7 10/13/7
f 6/8/8 5/7/8 12/15/8 11/14/8
f 5/7/9 3/4/9 9/11/9 12/15/9
f 9/11/1 10/12/1 50/72/1 51/73/1
f 10/13/4 11/14/4 49/70/4 50/71/4
f 11/14/3 12/15/3 52/74/3 49/70/3
f 12/15/5 9/11/5 51/73/5 52/74/5
f 13/16/10 14/18/10 18/22/10 17/21/10
f 14/17/11 15/19/11 19/24/11 18/23/11
f 15/19/12 16/20/12 20/25/12 19/24/12
f 16/20/13 13/16/13 17/21/13 20/25/13
f 17/21/1 18/22/1 66/92/1 67/93/1
f 18/23/4 19/24/4 65/90/4 66/91/4
f 19/24/3 20/25/3 68/94/3 65/90/3
f 20/25/5 17/21/5 67/93/5 68/94/5
f 21/26/14 22/28/14 26/32/14 25/31/14
f 22/27/15 23/29/15 27/34/15 26/33/15
f 23/29/16 24/30/16 28/35/16 27/34/16
f 24/30/17 21/26/17 25/31/17 28/35/17
f 25/31/18 26/32/18 30/39/18 29/36/18
f 26/33/19 27/34/19 31/43/19 30/40/19
f 27/34/20 28/35/20 32/46/20 31/43/20
f 28/35/21 25/31/21 29/36/21 32/46/21
f 29/37/22 30/41/22 34/51/22 33/49/22
f 30/42/23 31/44/23 35/53/23 34/52/23
f 31/45/24 32/47/24 36/55/24 35/54/24
f 32/48/25 29/38/25 33/50/25 36/56/25
f 33/49/1 34/51/1 38/58/1 37/57/1
f 34/52/4 35/53/4 39/59/4 38/58/4
f 35/54/3 36/55/3 40/60/3 39/59/3
f 36/56/5 33/50/5 37/57/5 40/60/5
f 37/57/26 38/58/26 42/62/26 41/61/26
f 38/58/27 39/59/27 43/63/27 42/62/27
f 39/59/28 40/60/28 44/64/28 43/63/28
f 40/60/29 37/57/29 41/61/29 44/64/29
f 46/66/4 45/65/4 15/19/4 14/17/4
f 47/68/1 46/67/1 14/18/1 13/16/1
f 48/69/5 47/68/5 13/16/5 16/20/5
f 45/65/3 48/69/3 16/20/3 15/19/3
f 54/76/4 53/75/4 55/78/4 56/79/4
f 57/81/1 54/77/1 56/80/1 58/82/1
f 59/83/5 57/81/5 58/82/5 60/84/5
f 53/75/3 59/83/3 60/84/3 55/78/3
f 50/71/30 49/70/30 53/75/30 54/76/30
f 45/65/31 46/66/31 56/79/31 55/78/31
f 51/73/32 50/72/32 54/77/32 57/81/32
f 46/67/33 47/68/33 58/82/33 56/80/33
f 52/74/34 51/73/34 57/81/34 59/83/34
f 47/68/35 48/69/35 60/84/35 58/82/35
f 49/70/36 52/74/36 59/83/36 53/75/36
f 48/69/37 45/65/37 55/78/37 60/84/37
f 62/86/4 61/85/4 23/29/4 22/27/4
f 63/88/1 62/87/1 22/28/1 21/26/1
f 64/89/5 63/88/5 21/26/5 24/30/5
f 61/85/3 64/89/3 24/30/3 23/29/3
f 70/96/4 69/95/4 71/98/4 72/99/4
f 73/101/1 70/97/1 72/100/1 74/102/1
f 75/103/5 73/101/5 74/102/5 76/104/5
f 69/95/3 75/103/3 76/104/3 71/98/3
f 66/91/38 65/90/38 69/95/38 70/96/38
f 61/85/39 62/86/39 72/99/39 71/98/39
f 67/93/40 66/92/40 70/97/40 73/101/40
f 62/87/41 63/88/41 74/102/41 72/100/41
f 68/94/42 67/93/42 73/101/42 75/103/42
f 63/88/43 64/89/43 76/104/43 74/102/43
f 65/90/44 68/94/44 75/103/44 69/95/44
f 64/89/45 61/85/45 71/98/45 76/104/45
f 77/105/1 78/106/1 80/109/1 79/108/1
f 117/165/2 118/166/2 119/167/2 120/168/2
f 81/111/3 82/112/3 84/114/3 83/113/3
f 78/107/4 84/114/4 82/112/4 80/110/4
f 83/113/5 77/105/5 79/108/5 81/111/5
f 79/108/6 80/109/6 86/116/6 85/115/6
f 80/110/7 82/112/7 87/118/7 86/117/7
f 82/112/8 81/111/8 88/119/8 87/118/8
f 81/111/9 79/108/9 85/115/9 88/119/9
f 85/115/1 86/116/1 126/176/1 127/177/1
f 86/117/4 87/118/4 125/174/4 126/175/4
f 87/118/3 88/119/3 128/178/3 125/174/3
f 88/119/5 85/115/5 127/177/5 128/178/5
f 89/120/10 90/122/10 94/126/10 93/125/10
f 90/121/11 91/123/11 95/128/11 94/127/11
f 91/123/12 92/124/12 96/129/12 95/128/12
f 92/124/13 89/120/13 93/125/13 96/129/13
f 93/125/1 94/126/1 142/196/1 143/197/1
f 94/127/4 95/128/4 141/194/4 142/195/4
f 95/128/3 96/129/3 144/198/3 141/194/3
f 96/129/5 93/125/5 143/197/5 144/198/5
f 97/130/14 98/132/14 102/136/14 101/135/14
f 98/131/15 99/133/15 103/138/15 102/137/15
f 99/133/16 100/134/16 104/139/16 103/138/16
f 100/134/17 97/130/17 101/135/17 104/139/17
f 101/135/18 102/136/18 106/143/18 105/140/18
f 102/137/19 103/138/19 107/147/19 106/144/19
f 103/138/20 104/139/20 108/150/20 107/147/20
f 104/139/21 101/135/21 105/140/21 108/150/21
f 105/141/22 106/145/22 110/155/22 109/153/22
f 106/146/23 107/148/23 111/157/23 110/156/23
f 107/149/24 108/151/24 112/159/24 111/158/24
f 108/152/25 105/142/25 109/154/25 112/160/25
f 109/153/1 110/155/1 114/162/1 113/161/1
f 110/156/4 111/157/4 115/163/4 114/162/4
f 111/158/3 112/159/3 116/164/3 115/163/3
f 112/160/5 109/154/5 113/161/5 116/164/5
f 113/161/26 114/162/26 118/166/26 117/165/26
f 114/162/27 115/163/27 119/167/27 118/166/27
f 115/163/28 116/164/28 120/168/28 119/167/28
f 116/164/29 113/161/29 117/165/29 120/168/29
f 122/170/4 121/169/4 91/123/4 90/121/4
f 123/172/1 122/171/1 90/122/1 89/120/1
f 124/173/5 123/172/5 89/120/5 92/124/5
f 121/169/3 124/173/3 92/124/3 91/123/3
f 130/180/4 129/179/4 131/182/4 132/183/4
f 133/185/1 130/181/1 132/184/1 134/186/1
f 135/187/5 133/185/5 134/186/5 136/188/5
f 129/179/3 135/187/3 136/188/3 131/182/3
f 126/175/30 125/174/30 129/179/30 130/180/30
f 121/169/31 122/170/31 132/183/31 131/182/31
f 127/177/32 126/176/32 130/181/32 133/185/32
f 122/171/33 123/172/33 134/186/33 132/184/33
f 128/178/34 127/177/34 133/185/34 135/187/34
f 123/172/35 124/173/35 136/188/35 134/186/35
f 125/174/36 128/178/36 135/187/36 129/179/36
f 124/173/37 121/169/37 131/182/37 136/188/37
f 138/190/4 137/189/4 99/133/4 98/131/4
f 139/192/1 138/191/1 98/132/1 97/130/1
f 140/193/5 139/192/5 97/130/5 100/134/5
f 137/189/3 140/193/3 100/134/3 99/133/3
f 146/200/4 145/199/4 147/202/4 148/203/4
f 149/205/1 146/201/1 148/204/1 150/206/1
f 151/207/5 149/205/5 150/206/5 152/208/5
f 145/199/3 151/207/3 152/208/3 147/202/3
f 142/195/38 141/194/38 145/199/38 146/200/38
f 137/189/39 138/190/39 148/203/39 147/202/39
f 143/197/40 142/196/40 146/201/40 149/205/40
f 138/191/41 139/192/41 150/206/41 148/204/41
f 144/198/42 143/197/42 149/205/42 151/207/42
f 139/192/43 140/193/43 152/208/43 150/206/43
f 141/194/44 144/198/44 151/207/44 145/199/44
f 140/193/45 137/189/45 147/202/45 152/208/45
s 1
f 172/241/1 173/242/1 165/231/1 155/213/1
f 155/214/2 165/230/2 166/232/2 157/217/2
f 193/291/3 194/293/3 195/295/3 196/296/3
f 175/249/4 176/250/4 158/218/4 156/215/4
f 171/239/5 172/240/5 155/214/5 157/217/5
f 161/223/2 156/215/2 158/218/2 162/225/2
f 197/297/3 198/299/3 199/300/3 200/301/3
f 161/224/1 174/245/1 175/248/1 156/216/1
f 165/230/2 161/223/2 162/225/2 166/232/2
f 201/303/3 195/295/3 194/293/3 202/304/3
f 165/231/1 173/242/1 174/245/1 161/224/1
f 204/307/3 203/306/3 205/309/3 206/310/3
f 159/219/5 153/209/5 172/240/5 171/239/5
f 153/210/1 168/234/1 173/242/1 172/241/1
f 175/248/1 174/245/1 164/227/1 154/211/1
f 154/212/4 160/221/4 176/250/4 175/249/4
f 207/313/3 208/316/3 198/299/3 197/297/3
s 0
f 164/228/5 174/246/5 169/237/5 163/226/5
f 173/243/4 168/235/4 167/233/4 170/238/4
f 170/238/46 169/237/46 174/246/46 173/243/46
s 1
f 210/319/3 209/317/3 211/321/3 212/322/3
f 213/323/3 214/324/3 211/321/3 209/317/3
f 216/326/3 215/325/3 213/323/3 209/317/3
f 217/328/3 218/329/3 215/325/3 216/326/3
f 183/263/3 189/279/3 188/276/3 184/265/3
f 190/282/3 187/273/3 181/259/3 182/261/3
f 180/257/3 182/261/3 181/259/3 179/255/3
f 179/255/3 186/270/3 191/285/3 180/257/3
f 210/319/3 212/322/3 208/316/3 207/313/3
f 185/267/3 192/288/3 178/253/3 177/251/3
f 200/301/3 199/300/3 201/303/3 202/304/3
f 191/285/3 186/270/3 177/251/3 178/253/3
f 184/265/3 187/273/3 190/282/3 183/263/3
f 193/291/3 196/296/3 203/306/3 204/307/3
f 206/310/3 205/309/3 219/330/3 220/331/3
f 220/331/3 219/330/3 217/328/3 216/326/3
s 0
f 157/217/2 166/232/2 194/294/2 193/292/2
f 181/260/46 187/274/46 196/296/46 195/295/46
f 177/252/5 186/271/5 199/300/5 198/299/5
f 158/218/4 176/250/4 197/298/4 200/302/4
f 179/256/46 181/260/46 195/295/46 201/303/46
f 166/232/2 162/225/2 202/305/2 194/294/2
f 184/266/4 188/277/4 205/309/4 203/306/4
f 159/219/5 171/239/5 204/308/5 206/311/5
f 185/268/5 177/252/5 198/299/5 208/316/5
f 176/250/4 160/221/4 207/314/4 197/298/4
f 163/226/5 169/237/5 209/318/5 210/320/5
f 178/254/4 192/289/4 212/322/4 211/321/4
f 180/258/2 191/286/2 214/324/2 213/323/2
f 191/287/4 178/254/4 211/321/4 214/324/4
f 182/262/2 180/258/2 213/323/2 215/325/2
f 169/237/46 170/238/46 216/327/46 209/318/46
f 183/264/5 190/283/5 218/329/5 217/328/5
f 190/284/2 182/262/2 215/325/2 218/329/2
f 192/290/47 185/269/47 208/316/47 212/322/47
f 160/222/48 163/226/48 210/320/48 207/315/48
f 186/272/46 179/256/46 201/303/46 199/300/46
f 162/225/2 158/218/2 200/302/2 202/305/2
f 187/275/4 184/266/4 203/306/4 196/296/4
f 171/239/5 157/217/5 193/292/5 204/308/5
f 188/278/49 189/280/49 219/330/49 205/309/49
f 167/233/50 159/220/50 206/312/50 220/332/50
f 189/281/5 183/264/5 217/328/5 219/330/5
f 170/238/4 167/233/4 220/332/4 216/327/4
f 221/333/1 222/334/1 224/337/1 223/336/1
f 253/383/2 254/384/2 255/385/2 256/386/2
f 225/339/3 226/340/3 228/342/3 227/341/3
f 222/335/4 228/342/4 226/340/4 224/338/4
f 227/341/5 221/333/5 223/336/5 225/339/5
f 223/336/51 224/337/51 230/344/51 229/343/51
f 224/338/52 226/340/52 231/346/52 230/345/52
f 226/340/53 225/339/53 232/347/53 231/346/53
f 225/339/54 223/336/54 229/343/54 232/347/54
f 229/343/1 230/344/1 234/349/1 233/348/1
f 230/345/4 231/346/4 235/351/4 234/350/4
f 231/346/3 232/347/3 236/352/3 235/351/3
f 232/347/5 229/343/5 233/348/5 236/352/5
f 233/348/55 234/349/55 238/354/55 237/353/55
f 234/350/56 235/351/56 239/356/56 238/355/56
f 235/351/57 236/352/57 240/357/57 239/356/57
f 236/352/58 233/348/58 237/353/58 240/357/58
f 237/353/1 238/354/1 242/361/1 241/358/1
f 238/355/4 239/356/4 243/365/4 242/362/4
f 239/356/3 240/357/3 244/368/3 243/365/3
f 240/357/5 237/353/5 241/358/5 244/368/5
f 241/359/59 242/363/59 246/373/59 245/371/59
f 242/364/60 243/366/60 247/375/60 246/374/60
f 243/367/61 244/369/61 248/377/61 247/376/61
f 244/370/62 241/360/62 245/372/62 248/378/62
f 245/371/1 246/373/1 250/380/1 249/379/1
f 246/374/4 247/375/4 251/381/4 250/380/4
f 247/376/3 248/377/3 252/382/3 251/381/3
f 248/378/5 245/372/5 249/379/5 252/382/5
f 249/379/63 250/380/63 254/384/63 253/383/63
f 250/380/64 251/381/64 255/385/64 254/384/64
f 251/381/65 252/382/65 256/386/65 255/385/65
f 252/382/66 249/379/66 253/383/66 256/386/66
f 257/387/1 258/388/1 260/391/1 259/390/1
f 289/437/2 290/438/2 291/439/2 292/440/2
f 261/393/3 262/394/3 264/396/3 263/395/3
f 258/389/4 264/396/4 262/394/4 260/392/4
f 263/395/5 257/387/5 259/390/5 261/393/5
f 259/390/51 260/391/51 266/398/51 265/397/51
f 260/392/52 262/394/52 267/400/52 266/399/52
f 262/394/53 261/393/53 268/401/53 267/400/53
f 261/393/54 259/390/54 265/397/54 268/401/54
f 265/397/1 266/398/1 270/403/1 269/402/1
f 266/399/4 267/400/4 271/405/4 270/404/4
f 267/400/3 268/401/3 272/406/3 271/405/3
f 268/401/5 265/397/5 269/402/5 272/406/5
f 269/402/55 270/403/55 274/408/55 273/407/55
f 270/404/56 271/405/56 275/410/56 274/409/56
f 271/405/57 272/406/57 276/411/57 275/410/57
f 272/406/58 269/402/58 273/407/58 276/411/58
f 273/407/1 274/408/1 278/415/1 277/412/1
f 274/409/4 275/410/4 279/419/4 278/416/4
f 275/410/3 276/411/3 280/422/3 279/419/3
f 276/411/5 273/407/5 277/412/5 280/422/5
f 277/413/59 278/417/59 282/427/59 281/425/59
f 278/418/60 279/420/60 283/429/60 282/428/60
f 279/421/61 280/423/61 284/431/61 283/430/61
f 280/424/62 277/414/62 281/426/62 284/432/62
f 281/425/1 282/427/1 286/434/1 285/433/1
f 282/428/4 283/429/4 287/435/4 286/434/4
f 283/430/3 284/431/3 288/436/3 287/435/3
f 284/432/5 281/426/5 285/433/5 288/436/5
f 285/433/63 286/434/63 290/438/63 289/437/63
f 286/434/64 287/435/64 291/439/64 290/438/64
f 287/435/65 288/436/65 292/440/65 291/439/65
f 288/436/66 285/433/66 289/437/66 292/440/66
f 293/441/2 294/442/2 296/444/2 295/443/2
f 295/443/2 296/444/2 298/446/2 297/445/2
f 297/445/3 298/446/3 300/448/3 299/447/3
f 299/447/2 300/448/2 302/450/2 301/449/2
f 301/449/67 302/450/67 304/452/67 303/451/67
f 303/451/2 304/452/2 306/454/2 305/453/2
f 305/453/67 306/454/67 308/456/67 307/455/67
f 307/455/2 308/456/2 310/458/2 309/457/2
f 309/457/3 310/458/3 312/460/3 311/459/3
f 311/459/2 312/460/2 314/462/2 313/461/2
f 313/461/67 314/462/67 316/464/67 315/463/67
f 315/463/2 316/464/2 318/466/2 317/465/2
f 317/465/3 318/466/3 320/468/3 319/467/3
f 319/467/2 320/468/2 322/470/2 321/469/2
f 321/469/67 322/470/67 324/472/67 323/471/67
f 323/471/2 324/472/2 326/474/2 325/473/2
f 325/473/3 326/474/3 328/476/3 327/475/3
f 327/475/2 328/476/2 330/478/2 329/477/2
f 329/477/3 330/478/3 332/480/3 331/479/3
f 331/479/2 332/480/2 334/482/2 333/481/2
f 333/481/3 334/482/3 336/484/3 335/483/3
f 335/483/2 336/484/2 338/486/2 337/485/2
f 337/485/3 338/486/3 340/488/3 339/487/3
f 339/487/2 340/488/2 342/490/2 341/489/2
f 341/489/3 342/490/3 344/492/3 343/491/3
f 343/491/2 344/492/2 346/494/2 345/493/2
f 345/493/3 346/494/3 348/496/3 347/495/3
f 347/495/2 348/496/2 350/498/2 349/497/2
f 349/497/3 350/498/3 352/500/3 351/499/3
f 351/499/2 352/500/2 354/502/2 353/501/2
f 353/501/3 354/502/3 356/504/3 355/503/3
f 355/503/2 356/504/2 358/506/2 357/505/2
f 357/505/3 358/506/3 360/508/3 359/507/3
f 359/507/2 360/508/2 362/510/2 361/509/2
f 361/509/3 362/510/3 364/512/3 363/511/3
f 363/511/2 364/512/2 366/514/2 365/513/2
f 365/513/3 366/514/3 368/516/3 367/515/3
f 367/515/2 368/516/2 370/518/2 369/517/2
f 369/517/3 370/518/3 372/520/3 371/519/3
f 371/519/2 372/520/2 374/522/2 373/521/2
f 373/521/3 374/522/3 376/524/3 375/523/3
f 375/523/2 376/524/2 378/526/2 377/525/2
f 377/525/3 378/526/3 380/528/3 379/527/3
f 379/527/2 380/528/2 382/530/2 381/529/2
f 381/529/3 382/530/3 384/532/3 383/531/3
f 383/531/2 384/532/2 386/534/2 385/533/2
f 385/533/3 386/534/3 388/536/3 387/535/3
s 1
f 403/566/68 435/622/69 436/623/1 391/543/1
f 391/544/2 436/624/2 425/604/2 393/549/2
f 393/550/3 425/603/3 426/606/70 402/564/71
f 395/553/46 430/616/46 431/617/46 389/537/46
f 404/567/72 401/563/72 394/551/4 392/546/4
f 402/564/73 403/565/73 391/545/5 393/550/5
f 398/558/74 429/612/75 430/614/3 395/554/3
f 395/554/5 389/538/5 399/559/76 398/558/76
f 389/539/1 431/618/1 432/619/77 399/560/78
f 390/540/4 396/555/4 397/557/79 400/561/79
f 402/564/71 426/606/70 427/608/80 410/576/81
f 410/576/82 411/577/83 403/565/73 402/564/73
f 411/578/84 434/621/85 435/622/69 403/566/68
f 412/579/86 409/575/87 401/563/72 404/567/72
f 406/570/88 428/610/89 429/612/75 398/558/74
f 398/558/76 399/559/76 407/571/90 406/570/91
f 399/560/78 432/619/77 433/620/92 407/572/93
f 400/561/79 397/557/79 405/569/94 408/573/95
f 410/576/81 427/608/80 428/610/89 406/570/88
f 406/570/91 407/571/90 411/577/83 410/576/82
f 407/572/93 433/620/92 434/621/85 411/578/84
f 408/573/95 405/569/94 409/575/87 412/579/86
f 413/581/3 394/551/3 401/563/71 414/584/70
f 415/586/80 414/584/70 401/563/71 409/575/96
f 416/588/89 415/586/80 409/575/96 405/569/97
f 417/590/75 416/588/89 405/569/97 397/557/74
f 418/592/3 417/590/75 397/557/74 396/555/3
f 419/595/46 418/594/46 396/556/46 390/541/46
f 420/597/77 419/596/1 390/542/1 400/562/78
f 421/598/92 420/597/77 400/562/78 408/574/98
f 422/599/85 421/598/92 408/574/98 412/580/84
f 423/600/69 422/599/85 412/580/84 404/568/68
f 424/601/1 423/600/69 404/568/68 392/547/1
f 413/582/2 424/602/2 392/548/2 394/552/2
f 461/669/3 462/671/3 463/673/99 464/675/99
f 465/677/99 464/675/99 463/673/99 466/679/99
f 467/681/3 465/677/99 466/679/99 468/683/3
f 469/685/3 467/681/3 468/683/3 470/687/3
f 471/689/3 469/685/3 470/687/3 472/692/3
f 431/617/46 430/616/46 454/660/46 455/661/46
f 432/619/77 431/618/1 455/662/1 456/663/100
f 433/620/92 432/619/77 456/663/100 457/664/101
f 434/621/85 433/620/92 457/664/101 458/665/102
f 435/622/69 434/621/85 458/665/102 459/666/103
f 436/623/1 435/622/69 459/666/103 460/667/1
f 425/604/2 436/624/2 460/668/2 449/648/2
f 473/695/3 474/697/3 475/699/99 476/701/99
f 477/703/99 476/701/99 475/699/99 478/705/99
f 479/707/3 477/703/99 478/705/99 480/709/3
f 481/711/3 479/707/3 480/709/3 482/713/3
f 483/715/3 481/711/3 482/713/3 484/718/3
f 443/639/46 442/638/46 418/594/46 419/595/46
f 444/641/100 443/640/1 419/596/1 420/597/77
f 445/642/101 444/641/100 420/597/77 421/598/92
f 446/643/102 445/642/101 421/598/92 422/599/85
f 447/644/103 446/643/102 422/599/85 423/600/69
f 448/645/1 447/644/103 423/600/69 424/601/1
f 437/626/2 448/646/2 424/602/2 413/582/2
f 449/647/3 437/625/3 438/628/104 450/650/104
f 451/652/105 450/650/104 438/628/104 439/630/105
f 452/654/106 451/652/105 439/630/105 440/632/106
f 453/656/107 452/654/106 440/632/106 441/634/107
f 454/658/3 453/656/107 441/634/107 442/636/3
f 455/661/46 454/660/46 442/638/46 443/639/46
f 456/663/100 455/662/1 443/640/1 444/641/100
f 457/664/101 456/663/100 444/641/100 445/642/101
f 458/665/102 457/664/101 445/642/101 446/643/102
f 459/666/103 458/665/102 446/643/102 447/644/103
f 460/667/1 459/666/103 447/644/103 448/645/1
f 449/648/2 460/668/2 448/646/2 437/626/2
s 0
f 425/605/108 449/649/108 462/672/108 461/670/108
f 449/649/4 450/651/4 463/674/4 462/672/4
f 426/607/5 425/605/5 461/670/5 464/676/5
f 427/609/5 426/607/5 464/676/5 465/678/5
f 450/651/4 451/653/4 466/680/4 463/674/4
f 428/611/5 427/609/5 465/678/5 467/682/5
f 451/653/4 452/655/4 468/684/4 466/680/4
f 429/613/5 428/611/5 467/682/5 469/686/5
f 452/655/4 453/657/4 470/688/4 468/684/4
f 430/615/5 429/613/5 469/686/5 471/690/5
f 453/657/4 454/659/4 472/693/4 470/688/4
f 454/660/46 430/616/46 471/691/46 472/694/46
f 437/627/108 413/583/108 474/698/108 473/696/108
f 413/583/4 414/585/4 475/700/4 474/698/4
f 438/629/5 437/627/5 473/696/5 476/702/5
f 439/631/5 438/629/5 476/702/5 477/704/5
f 414/585/4 415/587/4 478/706/4 475/700/4
f 440/633/5 439/631/5 477/704/5 479/708/5
f 415/587/4 416/589/4 480/710/4 478/706/4
f 441/635/5 440/633/5 479/708/5 481/712/5
f 416/589/4 417/591/4 482/714/4 480/710/4
f 442/637/5 441/635/5 481/712/5 483/716/5
f 417/591/4 418/593/4 484/719/4 482/714/4
f 418/594/46 442/638/46 483/717/46 484/720/46
f 485/721/1 486/722/1 488/724/1 487/723/1
f 509/761/2 510/762/2 511/763/2 512/764/2
f 489/725/3 490/728/3 492/731/3 491/729/3
f 486/722/4 492/732/4 490/727/4 488/724/4
f 491/730/5 485/721/5 487/723/5 489/726/5
f 487/723/1 488/724/1 494/734/1 493/733/1
f 488/724/4 490/727/4 495/735/4 494/734/4
f 490/728/109 489/725/109 496/737/109 495/736/109
f 489/726/5 487/723/5 493/733/5 496/738/5
f 493/733/1 494/734/1 498/740/1 497/739/1
f 494/734/4 495/735/4 499/741/4 498/740/4
f 495/736/3 496/737/3 500/743/3 499/742/3
f 496/738/5 493/733/5 497/739/5 500/744/5
f 497/739/110 498/740/110 502/746/110 501/745/110
f 498/740/111 499/741/111 503/747/111 502/746/111
f 499/742/112 500/743/112 504/749/112 503/748/112
f 500/744/113 497/739/113 501/745/113 504/750/113
f 501/745/1 502/746/1 506/753/1 505/751/1
f 502/746/4 503/747/4 507/755/4 506/753/4
f 503/748/3 504/749/3 508/758/3 507/756/3
f 504/750/5 501/745/5 505/751/5 508/759/5
f 505/752/114 506/754/114 510/762/114 509/761/114
f 506/754/115 507/757/115 511/763/115 510/762/115
f 507/757/116 508/760/116 512/764/116 511/763/116
f 508/760/117 505/752/117 509/761/117 512/764/117
s 1
f 513/765/118 516/768/118 539/799/118 538/798/118
f 514/766/5 513/765/5 524/778/5 523/775/5
f 515/767/119 514/766/119 530/788/119 529/787/119
f 516/768/1 515/767/1 518/770/1 517/769/1
f 517/769/120 520/772/120 543/803/120 542/802/120
f 519/771/121 518/770/121 532/790/121 531/789/121
f 520/772/4 519/771/4 526/782/4 525/780/4
f 521/773/122 524/777/123 551/815/124 550/813/125
f 522/774/126 521/773/127 528/786/127 527/784/128
f 523/776/129 522/774/130 534/793/131 533/791/131
f 525/780/132 528/785/133 547/808/134 546/806/135
f 527/784/136 526/783/137 536/795/138 535/794/138
f 537/797/139 540/800/140 555/821/140 554/820/140
f 538/798/5 537/797/5 552/817/5 551/814/5
f 540/800/1 539/799/1 542/802/1 541/801/1
f 541/801/141 544/804/141 559/825/141 558/824/141
f 544/804/4 543/803/4 546/806/4 545/805/4
f 545/805/142 548/809/143 563/830/144 562/828/144
f 548/810/145 547/807/127 550/813/146 549/812/147
f 549/812/148 552/816/149 567/836/150 566/834/150
f 553/819/151 556/822/152 571/841/153 570/840/154
f 554/820/155 553/819/151 568/837/156 567/835/157
f 556/822/152 555/821/158 558/824/159 557/823/160
f 557/823/160 560/826/161 575/845/162 574/844/163
f 560/826/161 559/825/164 562/828/165 561/827/166
f 561/827/166 564/832/167 579/850/168 578/848/169
f 564/831/167 563/829/170 566/834/171 565/833/172
f 565/833/172 568/838/156 583/857/173 582/855/174
s 0
f 569/839/175 572/842/175 587/865/175 586/864/175
s 1
f 570/840/154 569/839/176 584/859/177 583/856/173
f 572/842/178 571/841/153 574/844/163 573/843/179
s 0
f 573/843/180 576/846/180 591/871/180 590/870/180
s 1
f 576/846/181 575/845/162 578/848/169 577/847/182
s 0
f 577/847/183 580/851/183 595/879/183 594/877/183
s 1
f 580/852/184 579/849/168 582/855/174 581/854/185
s 0
f 581/854/186 584/858/186 599/887/186 598/885/186
s 1
f 585/862/187 588/866/188 602/892/189 601/891/190
s 0
f 586/864/191 585/861/191 600/888/191 599/886/191
s 1
f 588/867/188 587/865/192 590/870/193 589/869/194
f 589/868/194 592/873/195 606/896/196 605/895/197
s 0
f 592/872/198 591/871/198 594/877/198 593/876/198
s 1
f 593/875/199 596/881/200 609/899/201 608/898/202
f 596/880/200 595/878/203 598/885/204 597/884/205
f 597/883/205 600/889/206 612/902/207 611/901/208
f 601/891/190 603/893/209 610/900/210 612/902/207
f 603/893/209 602/892/189 605/895/197 604/894/211
f 604/894/211 606/896/196 608/898/202 607/897/212
f 607/897/212 609/899/201 611/901/208 610/900/210
f 515/767/1 529/787/1 532/790/1 518/770/1
f 603/893/209 604/894/211 607/897/212 610/900/210
f 522/774/126 527/784/128 535/794/3 534/793/3
f 519/771/4 531/789/4 536/796/4 526/782/4
f 523/775/5 533/792/5 530/788/5 514/766/5
f 516/768/1 517/769/1 542/802/1 539/799/1
f 520/772/4 525/780/4 546/806/4 543/803/4
f 528/786/127 521/773/127 550/813/146 547/807/127
f 524/778/5 513/765/5 538/798/5 551/814/5
f 540/800/1 541/801/1 558/824/159 555/821/158
f 544/804/4 545/805/4 562/828/165 559/825/164
f 548/810/145 549/812/147 566/834/171 563/829/170
f 552/817/5 537/797/5 554/820/155 567/835/157
f 556/822/152 557/823/160 574/844/163 571/841/153
f 560/826/161 561/827/166 578/848/169 575/845/162
f 564/831/167 565/833/172 582/855/174 579/849/168
f 568/837/156 553/819/151 570/840/154 583/856/173
f 572/842/178 573/843/179 590/870/193 587/865/192
f 576/846/181 577/847/182 594/877/4 591/871/4
f 580/852/184 581/854/185 598/885/204 595/878/213
f 584/859/177 569/839/176 586/864/5 599/886/5
f 588/866/188 589/868/194 605/895/197 602/892/189
f 592/873/195 593/875/199 608/898/202 606/896/196
f 596/881/200 597/883/205 611/901/208 609/899/201
f 600/889/206 585/862/187 601/891/190 612/902/207
f 513/765/118 514/766/119 515/767/119 516/768/118
f 517/769/120 518/770/121 519/771/121 520/772/120
f 521/773/122 522/774/130 523/776/129 524/779/123
f 525/781/132 526/783/137 527/784/136 528/786/133
f 537/797/139 538/798/118 539/799/118 540/800/140
f 541/801/141 542/802/120 543/803/120 544/804/141
f 545/805/142 546/806/135 547/808/134 548/811/143
f 549/812/148 550/813/125 551/815/124 552/818/149
f 553/819/151 554/820/214 555/821/214 556/822/152
f 557/823/160 558/824/215 559/825/215 560/826/161
f 561/827/166 562/828/216 563/830/216 564/832/167
f 565/833/172 566/834/217 567/836/217 568/838/156
f 569/839/218 570/840/154 571/841/153 572/842/218
f 573/843/219 574/844/163 575/845/162 576/846/219
f 577/847/220 578/848/169 579/850/168 580/853/220
f 581/854/221 582/855/174 583/857/173 584/860/221
f 585/863/187 586/864/222 587/865/222 588/867/188
f 589/869/194 590/870/223 591/871/223 592/874/195
f 593/876/199 594/877/224 595/879/224 596/882/200
f 597/884/205 598/885/225 599/887/225 600/890/206
f 601/891/190 602/892/189 603/893/209
f 604/894/211 605/895/197 606/896/196
f 607/897/212 608/898/202 609/899/201
f 610/900/210 611/901/208 612/902/207
s 0
f 164/228/2 163/226/2 167/233/2 168/235/2
f 164/229/3 168/236/3 173/244/3 174/247/3
