# Blender 3.5.1
# www.blender.org
mtllib piramide3.mtl
o pyramids
v -1.647878 -0.002357 -6.799034
v -1.019870 -0.002357 -6.799034
v -1.647878 0.104774 -6.799034
v -1.019870 0.104774 -6.799034
v -1.647878 0.104774 -7.319833
v -1.019870 0.104774 -7.319833
v -1.647878 -0.002357 -7.319833
v -1.019870 -0.002357 -7.319833
v -1.580458 0.343394 -6.854943
v -1.087289 0.343394 -6.854943
v -1.087289 0.343394 -7.263923
v -1.580458 0.343394 -7.263923
v -1.580458 0.865675 -6.854943
v -1.087289 0.865675 -6.854943
v -1.087289 0.865675 -7.263923
v -1.580458 0.865675 -7.263923
v -1.526613 1.083207 -6.899596
v -1.141134 1.083207 -6.899596
v -1.141134 1.083207 -7.219270
v -1.526613 1.083207 -7.219270
v -1.526613 1.327513 -6.899596
v -1.141134 1.327513 -6.899596
v -1.141134 1.327512 -7.219270
v -1.526613 1.327512 -7.219270
v -1.560804 1.524294 -6.871242
v -1.106943 1.524294 -6.871242
v -1.106943 1.524293 -7.247624
v -1.560804 1.524293 -7.247624
v -1.500564 3.042881 -6.921198
v -1.167183 3.042881 -6.921198
v -1.167183 3.042881 -7.197668
v -1.500564 3.042881 -7.197668
v -1.526725 3.062871 -6.899503
v -1.141022 3.062871 -6.899503
v -1.141022 3.062871 -7.219363
v -1.526725 3.062871 -7.219363
v -1.526725 3.085724 -6.899503
v -1.141022 3.085724 -6.899503
v -1.141022 3.085724 -7.219363
v -1.526725 3.085724 -7.219363
v -1.508660 3.099838 -6.914483
v -1.159086 3.099838 -6.914483
v -1.159086 3.099838 -7.204381
v -1.508660 3.099838 -7.204381
v -1.087289 0.627023 -7.263923
v -1.087289 0.627023 -6.854943
v -1.580458 0.627023 -6.854943
v -1.580458 0.627023 -7.263923
v -1.087289 0.582046 -7.263923
v -1.087289 0.582046 -6.854943
v -1.580458 0.582046 -6.854943
v -1.580458 0.582046 -7.263923
v -1.106658 0.583812 -7.247860
v -1.106658 0.583812 -6.871006
v -1.106658 0.625257 -7.247860
v -1.106658 0.625257 -6.871006
v -1.561089 0.583812 -6.871006
v -1.561089 0.625257 -6.871006
v -1.561089 0.583812 -7.247860
v -1.561089 0.625257 -7.247860
v -1.141134 1.222984 -7.219270
v -1.141134 1.222985 -6.899596
v -1.526613 1.222985 -6.899596
v -1.526613 1.222984 -7.219270
v -1.141134 1.187734 -7.219270
v -1.141134 1.187734 -6.899596
v -1.526613 1.187734 -6.899596
v -1.526613 1.187734 -7.219270
v -1.155544 1.189052 -7.207319
v -1.155544 1.189053 -6.911546
v -1.155544 1.221666 -7.207319
v -1.155544 1.221667 -6.911546
v -1.512203 1.189053 -6.911546
v -1.512203 1.221667 -6.911546
v -1.512203 1.189052 -7.207319
v -1.512203 1.221666 -7.207319
v 0.856393 -0.002357 -6.799034
v 1.484401 -0.002357 -6.799034
v 0.856393 0.104774 -6.799034
v 1.484401 0.104774 -6.799034
v 0.856393 0.104774 -7.319833
v 1.484401 0.104774 -7.319833
v 0.856393 -0.002357 -7.319833
v 1.484401 -0.002357 -7.319833
v 0.923812 0.343394 -6.854943
v 1.416982 0.343394 -6.854943
v 1.416982 0.343394 -7.263923
v 0.923812 0.343394 -7.263923
v 0.923812 0.865675 -6.854943
v 1.416982 0.865675 -6.854943
v 1.416982 0.865675 -7.263923
v 0.923812 0.865675 -7.263923
v 0.977657 1.083207 -6.899596
v 1.363137 1.083207 -6.899596
v 1.363137 1.083207 -7.219270
v 0.977657 1.083207 -7.219270
v 0.977657 1.327513 -6.899596
v 1.363137 1.327513 -6.899596
v 1.363137 1.327512 -7.219270
v 0.977657 1.327512 -7.219270
v 0.943466 1.524294 -6.871242
v 1.397328 1.524294 -6.871242
v 1.397328 1.524293 -7.247624
v 0.943466 1.524293 -7.247624
v 1.003707 3.042881 -6.921198
v 1.337088 3.042881 -6.921198
v 1.337088 3.042881 -7.197668
v 1.003707 3.042881 -7.197668
v 0.977546 3.062871 -6.899503
v 1.363249 3.062871 -6.899503
v 1.363249 3.062871 -7.219363
v 0.977546 3.062871 -7.219363
v 0.977546 3.085724 -6.899503
v 1.363249 3.085724 -6.899503
v 1.363249 3.085724 -7.219363
v 0.977546 3.085724 -7.219363
v 0.995611 3.099838 -6.914483
v 1.345184 3.099838 -6.914483
v 1.345184 3.099838 -7.204381
v 0.995611 3.099838 -7.204381
v 1.416982 0.627023 -7.263923
v 1.416982 0.627023 -6.854943
v 0.923812 0.627023 -6.854943
v 0.923812 0.627023 -7.263923
v 1.416982 0.582046 -7.263923
v 1.416982 0.582046 -6.854943
v 0.923812 0.582046 -6.854943
v 0.923812 0.582046 -7.263923
v 1.397613 0.583812 -7.247860
v 1.397613 0.583812 -6.871006
v 1.397613 0.625257 -7.247860
v 1.397613 0.625257 -6.871006
v 0.943182 0.583812 -6.871006
v 0.943182 0.625257 -6.871006
v 0.943182 0.583812 -7.247860
v 0.943182 0.625257 -7.247860
v 1.363137 1.222984 -7.219270
v 1.363137 1.222985 -6.899596
v 0.977657 1.222985 -6.899596
v 0.977657 1.222984 -7.219270
v 1.363137 1.187734 -7.219270
v 1.363137 1.187734 -6.899596
v 0.977657 1.187734 -6.899596
v 0.977657 1.187734 -7.219270
v 1.348727 1.189052 -7.207319
v 1.348727 1.189053 -6.911546
v 1.348727 1.221666 -7.207319
v 1.348727 1.221667 -6.911546
v 0.992068 1.189053 -6.911546
v 0.992068 1.221667 -6.911546
v 0.992068 1.189052 -7.207319
v 0.992068 1.221666 -7.207319
v -0.639744 0.936392 -3.691305
v 0.639744 0.936392 -3.691305
v -0.639744 2.325119 -6.672821
v 0.639744 2.325119 -6.672821
v -0.639744 0.936392 -6.672821
v 0.639744 0.936392 -6.672821
v 0.253635 2.325119 -6.672821
v 0.253635 0.936392 -6.672821
v 0.253635 0.936392 -3.691305
v -0.253635 2.325119 -6.672821
v -0.253635 0.936392 -6.672821
v -0.253635 0.936392 -3.691305
v 0.253635 1.993193 -6.672821
v -0.253635 1.993193 -6.672821
v -0.639744 1.993193 -6.672821
v -0.639744 2.325120 -3.691305
v -0.253635 2.325120 -3.691305
v 0.253635 2.325120 -3.691305
v 0.639744 2.325120 -3.691305
v 0.639744 1.993193 -6.672821
v 0.573760 1.993193 -6.672821
v 0.320139 1.993193 -6.672821
v 0.253635 2.261502 -6.672821
v 0.253635 2.059109 -6.672821
v -0.253635 2.261502 -6.672821
v -0.253635 2.059109 -6.672821
v -0.314630 1.993193 -6.672821
v -0.578165 1.993193 -6.672821
v 0.573760 1.002117 -6.672821
v 0.573760 2.261502 -6.672821
v -0.578165 2.261502 -6.672821
v -0.578165 1.000365 -6.672821
v -0.314630 0.996655 -6.672821
v -0.314630 2.059109 -6.672821
v 0.320139 2.059109 -6.672821
v 0.320139 1.002432 -6.672821
v -0.639744 2.325119 -6.688724
v -0.253635 2.325119 -6.688724
v -0.253635 2.261502 -6.688724
v -0.578165 2.261502 -6.688725
v 0.639744 1.993193 -6.688724
v 0.573760 1.993193 -6.688724
v 0.573760 2.261502 -6.688725
v 0.639744 2.325119 -6.688724
v 0.253635 2.261502 -6.688724
v 0.253635 2.325119 -6.688724
v -0.578165 1.993193 -6.688724
v -0.639744 1.993193 -6.688724
v -0.578165 1.000365 -6.688725
v -0.639744 0.936392 -6.688724
v 0.639744 0.936392 -6.688724
v 0.573760 1.002117 -6.688725
v 0.253635 1.993193 -6.688724
v 0.253635 0.936392 -6.688724
v 0.320139 1.993193 -6.688724
v 0.320139 1.002432 -6.688725
v 0.253635 2.059109 -6.688724
v 0.320139 2.059109 -6.688725
v -0.253635 2.059109 -6.688724
v -0.253635 1.993193 -6.688724
v -0.314630 1.993193 -6.688724
v -0.314630 2.059109 -6.688725
v -0.314630 0.996655 -6.688725
v -0.253635 0.936392 -6.688724
v -2.747427 0.964177 -5.843201
v -2.099600 0.964177 -5.843201
v -2.747427 1.121392 -5.843201
v -2.099600 1.121392 -5.843201
v -2.747427 1.121392 -6.491029
v -2.099600 1.121392 -6.491029
v -2.747427 0.964177 -6.491029
v -2.099600 0.964177 -6.491029
v -2.701069 1.272835 -5.889559
v -2.145958 1.272835 -5.889559
v -2.145958 1.272835 -6.444670
v -2.701069 1.272835 -6.444670
v -2.701069 1.423687 -5.889559
v -2.145958 1.423687 -5.889559
v -2.145958 1.423687 -6.444670
v -2.701069 1.423687 -6.444670
v -2.747272 1.541524 -5.843357
v -2.099755 1.541524 -5.843357
v -2.099755 1.541524 -6.490873
v -2.747272 1.541524 -6.490873
v -2.747272 1.646939 -5.843357
v -2.099755 1.646939 -5.843357
v -2.099755 1.646939 -6.490873
v -2.747272 1.646939 -6.490873
v -2.790530 1.659078 -5.800099
v -2.056497 1.659078 -5.800099
v -2.056497 1.659078 -6.534131
v -2.790530 1.659078 -6.534131
v -2.790530 1.695498 -5.800099
v -2.056497 1.695498 -5.800099
v -2.056497 1.695498 -6.534131
v -2.790530 1.695498 -6.534131
v -2.764595 1.707623 -5.826034
v -2.082432 1.707623 -5.826034
v -2.082432 1.707623 -6.508195
v -2.764595 1.707623 -6.508195
v 2.141600 0.964177 -5.843201
v 2.789428 0.964177 -5.843201
v 2.141600 1.121392 -5.843201
v 2.789428 1.121392 -5.843201
v 2.141600 1.121392 -6.491029
v 2.789428 1.121392 -6.491029
v 2.141600 0.964177 -6.491029
v 2.789428 0.964177 -6.491029
v 2.187958 1.272835 -5.889559
v 2.743070 1.272835 -5.889559
v 2.743070 1.272835 -6.444670
v 2.187958 1.272835 -6.444670
v 2.187958 1.423687 -5.889559
v 2.743070 1.423687 -5.889559
v 2.743070 1.423687 -6.444670
v 2.187958 1.423687 -6.444670
v 2.141755 1.541524 -5.843357
v 2.789272 1.541524 -5.843357
v 2.789272 1.541524 -6.490873
v 2.141755 1.541524 -6.490873
v 2.141755 1.646939 -5.843357
v 2.789272 1.646939 -5.843357
v 2.789272 1.646939 -6.490873
v 2.141755 1.646939 -6.490873
v 2.098497 1.659078 -5.800099
v 2.832530 1.659078 -5.800099
v 2.832530 1.659078 -6.534131
v 2.098497 1.659078 -6.534131
v 2.098497 1.695498 -5.800099
v 2.832530 1.695498 -5.800099
v 2.832530 1.695498 -6.534131
v 2.098497 1.695498 -6.534131
v 2.124432 1.707623 -5.826034
v 2.806595 1.707623 -5.826034
v 2.806595 1.707623 -6.508195
v 2.124432 1.707623 -6.508195
v -0.392691 0.933760 -6.713184
v 0.392691 0.933760 -6.713184
v -0.392691 0.933760 -6.749817
v 0.392691 0.933760 -6.749817
v -0.392691 0.898819 -6.749817
v 0.392691 0.898819 -6.749817
v -0.392691 0.898819 -6.781546
v 0.392691 0.898819 -6.781546
v -0.392691 0.863279 -6.781549
v 0.392691 0.863279 -6.781549
v -0.392691 0.863279 -6.807993
v 0.392691 0.863279 -6.807993
v -0.392691 0.827442 -6.807996
v 0.392691 0.827442 -6.807996
v -0.392691 0.827442 -6.834108
v 0.392691 0.827442 -6.834108
v -0.392691 0.789381 -6.834108
v 0.392691 0.789381 -6.834108
v -0.392691 0.789381 -6.867270
v 0.392691 0.789381 -6.867270
v -0.392691 0.750906 -6.867273
v 0.392691 0.750906 -6.867273
v -0.392691 0.750906 -6.896196
v 0.392691 0.750906 -6.896196
v -0.392691 0.709073 -6.896198
v 0.392691 0.709073 -6.896198
v -0.392691 0.709073 -6.930871
v 0.392691 0.709073 -6.930871
v -0.392691 0.673892 -6.930874
v 0.392691 0.673892 -6.930874
v -0.392691 0.673892 -6.959440
v 0.392691 0.673892 -6.959440
v -0.392691 0.634883 -6.959440
v 0.392691 0.634883 -6.959440
v -0.392691 0.634883 -6.987344
v 0.392691 0.634883 -6.987344
v -0.392691 0.596406 -6.987344
v 0.392691 0.596406 -6.987344
v -0.392691 0.596406 -7.016530
v 0.392691 0.596406 -7.016530
v -0.392691 0.560384 -7.016530
v 0.392691 0.560384 -7.016530
v -0.392691 0.560384 -7.049451
v 0.392691 0.560384 -7.049451
v -0.392691 0.524334 -7.049451
v 0.392691 0.524334 -7.049451
v -0.392691 0.524334 -7.073345
v 0.392691 0.524334 -7.073345
v -0.392691 0.479134 -7.073345
v 0.392691 0.479134 -7.073345
v -0.392691 0.479134 -7.111458
v 0.392691 0.479134 -7.111458
v -0.392691 0.440705 -7.111458
v 0.392691 0.440705 -7.111458
v -0.392691 0.440705 -7.141843
v 0.392691 0.440705 -7.141843
v -0.392691 0.399427 -7.141843
v 0.392691 0.399427 -7.141843
v -0.392691 0.399427 -7.176041
v 0.392691 0.399427 -7.176041
v -0.392691 0.354502 -7.176041
v 0.392691 0.354502 -7.176041
v -0.392691 0.354502 -7.209194
v 0.392691 0.354502 -7.209194
v -0.392691 0.310329 -7.209194
v 0.392691 0.310329 -7.209194
v -0.392691 0.310329 -7.244278
v 0.392691 0.310329 -7.244278
v -0.392691 0.259932 -7.244278
v 0.392691 0.259932 -7.244278
v -0.392691 0.259932 -7.284379
v 0.392691 0.259932 -7.284379
v -0.392691 0.219654 -7.284379
v 0.392691 0.219654 -7.284379
v -0.392691 0.219654 -7.316120
v 0.392691 0.219654 -7.316120
v -0.392691 0.174652 -7.316120
v 0.392691 0.174652 -7.316120
v -0.392691 0.174652 -7.349916
v 0.392691 0.174652 -7.349916
v -0.392691 0.134130 -7.349916
v 0.392691 0.134130 -7.349916
v -0.392691 0.134130 -7.385499
v 0.392691 0.134130 -7.385499
v -0.392691 0.092877 -7.385499
v 0.392691 0.092877 -7.385499
v -0.392691 0.092877 -7.415495
v 0.392691 0.092877 -7.415495
v -0.392691 0.047043 -7.415495
v 0.392691 0.047043 -7.415495
v -0.392691 0.047043 -7.447902
v 0.392691 0.047043 -7.447902
v -0.392691 -0.001065 -7.447902
v 0.392691 -0.001065 -7.447902
v -3.234602 -0.002545 -5.705823
v 3.234602 -0.002545 -5.705823
v -3.234602 0.997455 -5.705823
v 3.234602 0.997455 -5.705823
v -3.234602 0.997455 -6.705823
v 3.234602 0.997455 -6.705823
v -3.234602 -0.002546 -6.705823
v 3.234602 -0.002546 -6.705823
v 3.234602 0.166611 -6.705823
v -3.234602 0.166611 -6.705823
v -3.234602 0.166612 -5.705823
v 3.234602 0.166612 -5.705823
v 3.234602 0.828297 -6.705823
v -3.234602 0.828297 -6.705823
v -3.234602 0.828298 -5.705823
v 3.234602 0.828298 -5.705823
v 3.162974 0.287959 -6.666689
v -3.162974 0.287959 -6.666689
v -3.162974 0.287960 -5.744957
v 3.162974 0.287960 -5.744957
v 3.162974 0.706950 -6.666689
v -3.162974 0.706950 -6.666689
v -3.162974 0.706950 -5.744957
v 3.162974 0.706950 -5.744957
v 0.619599 0.997455 -6.705823
v 0.619599 0.828297 -6.705823
v 0.619599 0.706950 -6.666689
v 0.619599 0.287959 -6.666689
v 0.619599 0.166611 -6.705823
v 0.619599 -0.002546 -6.705823
v 0.626536 -0.002545 -5.705823
v 3.234602 0.828298 -5.705823
v -0.361459 0.997455 -5.705823
v -0.361459 -0.002545 -5.705823
v 0.626536 0.997455 -5.705823
v -0.619599 0.997455 -6.705823
v -0.619599 0.828297 -6.705823
v -0.619599 0.706950 -6.666689
v -0.619599 0.287959 -6.666689
v -0.619599 0.166611 -6.705823
v -0.619599 -0.002546 -6.705823
v -0.626536 -0.002545 -5.705823
v 0.361458 -0.002545 -5.705823
v -0.626536 0.997455 -5.705823
v 0.626536 -0.002545 -5.705823
v -0.626536 0.997455 -5.705823
v 0.357456 0.997455 -6.705823
v 0.357456 0.828297 -6.705823
v 0.357456 0.706950 -6.666689
v 0.357456 0.287959 -6.666689
v 0.357456 0.166611 -6.705823
v 0.357456 -0.002546 -6.705823
v 0.361458 -0.002545 -5.705823
v -3.162974 0.706950 -5.744957
v -3.234602 0.828298 -5.705823
v 0.361458 0.997455 -5.705823
v -0.357457 0.997455 -6.705823
v -0.357457 0.828297 -6.705823
v -0.357457 0.706950 -6.666689
v -0.357457 0.287959 -6.666689
v -0.357457 0.166611 -6.705823
v -0.357457 -0.002546 -6.705823
v -0.361459 -0.002545 -5.705823
v -0.361459 0.997455 -5.705823
v -0.619599 0.061747 -7.450143
v -0.357457 0.061747 -7.450143
v -0.357457 0.045718 -7.450143
v -0.619599 0.045718 -7.450143
v -0.619599 0.037033 -7.450142
v -0.357457 0.037033 -7.450142
v -0.619599 0.021716 -7.450142
v -0.357457 0.021716 -7.450142
v -0.619599 0.011193 -7.450143
v -0.357457 0.011193 -7.450143
v -0.619599 -0.002546 -7.450143
v -0.357457 -0.002546 -7.450143
v 0.357456 0.061747 -7.450143
v 0.619599 0.061747 -7.450143
v 0.619599 0.045718 -7.450143
v 0.357456 0.045718 -7.450143
v 0.357456 0.037033 -7.450142
v 0.619599 0.037033 -7.450142
v 0.357456 0.021716 -7.450142
v 0.619599 0.021716 -7.450142
v 0.357456 0.011193 -7.450143
v 0.619599 0.011193 -7.450143
v 0.357456 -0.002546 -7.450143
v 0.619599 -0.002546 -7.450143
v -1.709783 0.985582 -5.739947
v -0.629860 0.985582 -5.739947
v -1.709783 1.612172 -5.739947
v -0.629860 1.612172 -5.739947
v -1.709783 1.612172 -6.544524
v -0.629860 1.612172 -6.544524
v -1.709783 0.985582 -6.544524
v -0.629860 0.985582 -6.544524
v -1.709783 1.986439 -5.739947
v -0.629860 1.986439 -5.739947
v -0.629860 1.986439 -6.400015
v -1.709783 1.986439 -6.400015
v -1.709783 3.296180 -5.739947
v -0.629860 3.296180 -5.739947
v -0.629860 3.296180 -6.400015
v -1.709783 3.296180 -6.400015
v -1.759584 3.326759 -5.707257
v -0.580060 3.326759 -5.707257
v -0.580060 3.326759 -6.432707
v -1.759584 3.326759 -6.432707
v -1.759584 3.370806 -5.707257
v -0.580060 3.370806 -5.707257
v -0.580060 3.370806 -6.432707
v -1.759584 3.370806 -6.432707
v -1.714452 3.391055 -5.736885
v -0.625192 3.391055 -5.736885
v -0.625192 3.391055 -6.403081
v -1.714452 3.391055 -6.403081
v 0.654307 1.620030 -5.751059
v 0.654307 1.604316 -5.751059
v 0.665418 1.604316 -5.739947
v 0.665418 1.620030 -5.739947
v 1.723119 1.620030 -5.739947
v 1.723119 1.604316 -5.739947
v 1.734230 1.604316 -5.751059
v 1.734230 1.620030 -5.751059
v 0.665400 1.619617 -6.541650
v 0.665402 1.604192 -6.544524
v 0.654307 1.604326 -6.533425
v 0.654307 1.620057 -6.529529
v 1.734230 1.620057 -6.529529
v 1.734230 1.604313 -6.533407
v 1.723127 1.604187 -6.544524
v 1.723137 1.619617 -6.541650
v 0.665418 0.985582 -5.739947
v 0.654307 0.985582 -5.751059
v 1.734230 0.985582 -5.751059
v 1.723119 0.985582 -5.739947
v 0.654307 0.985582 -6.533412
v 0.665418 0.985582 -6.544524
v 1.723119 0.985582 -6.544524
v 1.734230 0.985582 -6.533412
v 0.654307 1.994297 -5.751059
v 0.654307 1.978583 -5.751059
v 0.665418 1.978583 -5.739947
v 0.665418 1.994297 -5.739947
v 1.723119 1.994297 -5.739947
v 1.723119 1.978583 -5.739947
v 1.734230 1.978583 -5.751059
v 1.734230 1.994297 -5.751059
v 1.734230 1.994334 -6.388852
v 1.734230 1.978618 -6.391178
v 1.723104 1.978975 -6.402898
v 1.723127 1.994426 -6.400015
v 0.665410 1.994426 -6.400015
v 0.665446 1.978965 -6.402901
v 0.654307 1.978624 -6.391184
v 0.654307 1.994334 -6.388852
v 0.646533 3.300954 -5.745297
v 0.654307 3.287354 -5.750844
v 0.665035 3.287911 -5.739947
v 0.657740 3.302299 -5.733407
v 1.730797 3.302299 -5.733407
v 1.723270 3.287734 -5.739947
v 1.734230 3.287462 -5.750708
v 1.742004 3.300954 -5.745297
v 1.742003 3.300954 -6.394667
v 1.734230 3.287353 -6.389121
v 1.723502 3.287911 -6.400015
v 1.730796 3.302299 -6.406557
v 0.657740 3.302299 -6.406557
v 0.665266 3.287734 -6.400015
v 0.654307 3.287462 -6.389256
v 0.646533 3.300954 -6.394667
v 0.604506 3.335477 -5.718018
v 0.612170 3.322053 -5.722592
v 0.627868 3.320642 -5.713799
v 0.615234 3.335027 -5.707257
v 1.773302 3.335027 -5.707257
v 1.761076 3.320748 -5.713685
v 1.776257 3.321985 -5.722813
v 1.784030 3.335477 -5.718018
v 1.784030 3.335477 -6.421948
v 1.776367 3.322053 -6.417374
v 1.760670 3.320642 -6.426167
v 1.773302 3.335027 -6.432707
v 0.615234 3.335027 -6.432707
v 0.627460 3.320748 -6.426280
v 0.612280 3.321985 -6.417152
v 0.604506 3.335477 -6.421948
v 0.613291 3.374748 -5.723086
v 0.604506 3.361669 -5.718105
v 0.615299 3.362178 -5.707257
v 0.630202 3.375869 -5.714664
v 1.758335 3.375869 -5.714664
v 1.773035 3.362015 -5.707257
v 1.784030 3.361816 -5.717929
v 1.775246 3.374748 -5.723086
v 1.775246 3.374748 -6.416880
v 1.784030 3.361669 -6.421859
v 1.773238 3.362178 -6.432707
v 1.758335 3.375869 -6.425303
v 0.630202 3.375869 -6.425303
v 0.615502 3.362015 -6.432707
v 0.604506 3.361816 -6.422036
v 0.613291 3.374748 -6.416879
v 0.642307 3.387765 -5.741437
v 0.652568 3.386320 -5.729957
v 0.657673 3.391055 -5.744918
v 1.730863 3.391055 -5.744918
v 1.736027 3.386415 -5.730094
v 1.746229 3.387765 -5.741437
v 1.730675 3.391055 -6.394857
v 1.746229 3.387765 -6.398529
v 1.736027 3.386415 -6.409872
v 0.657673 3.391055 -6.395047
v 0.652509 3.386415 -6.409872
v 0.642307 3.387765 -6.398529
v -3.234602 0.828298 -5.705823
v -3.162974 0.706950 -5.744957
v 0.626536 -0.002545 -5.705823
v -0.626536 0.997455 -5.705823
v 0.361458 -0.002545 -5.705823
v -0.361459 -0.002545 -5.705823
v -0.361459 0.997455 -5.705823
v 3.234602 0.828298 -5.705823
v 3.162974 0.706950 -5.744957
v -3.234602 -0.002545 -5.705823
v -3.234602 0.166612 -5.705823
v -0.626536 -0.002545 -5.705823
v 3.234602 -0.002545 -5.705823
v 3.234602 0.166612 -5.705823
v -3.234602 0.997455 -5.705823
v -3.162974 0.287960 -5.744957
v 0.626536 0.997455 -5.705823
v 0.361458 0.997455 -5.705823
v 3.234602 0.997455 -5.705823
v 3.162974 0.287960 -5.744957
v 3.162974 0.706950 -5.744957
v 3.234602 0.997455 3.996403
v -3.234602 0.997455 3.996403
v -3.234602 -0.002545 -5.705823
v -3.234602 0.166612 -5.705823
v -0.626536 -0.002545 -5.705823
v 3.234602 -0.002545 -5.705823
v 3.234602 0.166612 -5.705823
v -3.234602 0.997455 -5.705823
v -3.162974 0.287960 -5.744957
v 0.626536 0.997455 -5.705823
v 0.361458 0.997455 -5.705823
v 3.234602 0.997455 -5.705823
v 3.162974 0.287960 -5.744957
v -3.234602 0.997455 3.996403
v 3.234602 0.997455 3.996403
v 3.234602 0.997455 -5.705823
v -3.234602 0.997455 -5.705823
v -0.639744 1.986439 -3.691305
v 0.639744 1.986439 -3.691305
v -0.253635 1.986439 -3.691305
v 0.253635 1.986439 -3.691305
vn -0.0000 -0.0000 1.0000
vn -0.0000 1.0000 -0.0000
vn -0.0000 -0.0000 -1.0000
vn 1.0000 -0.0000 -0.0000
vn -1.0000 -0.0000 -0.0000
vn -0.0000 0.2281 0.9736
vn 0.9623 0.2719 -0.0000
vn -0.0000 0.2281 -0.9736
vn -0.9623 0.2719 -0.0000
vn -0.0000 0.2011 0.9796
vn 0.9707 0.2403 -0.0000
vn -0.0000 0.2011 -0.9796
vn -0.9707 0.2403 -0.0000
vn -0.0000 -0.1426 0.9898
vn 0.9852 -0.1712 -0.0000
vn -0.0000 -0.1426 -0.9898
vn -0.9852 -0.1712 -0.0000
vn -0.0000 0.0329 0.9995
vn 0.9992 0.0396 -0.0000
vn -0.0000 0.0329 -0.9995
vn -0.9992 0.0396 -0.0000
vn -0.0000 -0.7354 0.6776
vn 0.6072 -0.7946 -0.0000
vn -0.0000 -0.7354 -0.6776
vn -0.6072 -0.7946 -0.0000
vn -0.0000 0.7278 0.6858
vn 0.6157 0.7880 -0.0000
vn -0.0000 0.7279 -0.6857
vn -0.6157 0.7880 -0.0000
vn 0.0908 0.9959 -0.0000
vn 0.0908 -0.9959 -0.0000
vn -0.0000 0.9940 0.1093
vn -0.0000 -0.9940 0.1093
vn -0.0908 0.9959 -0.0000
vn -0.0908 -0.9959 -0.0000
vn -0.0000 0.9940 -0.1093
vn -0.0000 -0.9940 -0.1093
vn 0.0911 0.9958 -0.0000
vn 0.0911 -0.9958 -0.0000
vn -0.0000 0.9940 0.1096
vn -0.0000 -0.9940 0.1096
vn -0.0911 0.9958 -0.0000
vn -0.0911 -0.9958 -0.0000
vn -0.0000 0.9940 -0.1096
vn -0.0000 -0.9940 -0.1096
vn 0.7071 0.7071 -0.0000
vn 0.6849 0.2485 0.6849
vn -0.6849 0.2485 0.6849
vn -0.7071 0.7071 0.0002
vn 0.4472 0.8944 -0.0000
vn -0.0000 -1.0000 -0.0000
vn 0.0012 1.0000 -0.0000
vn 0.0141 0.9999 -0.0000
vn -0.0000 0.2927 0.9562
vn 0.9562 0.2927 -0.0000
vn -0.0000 0.2927 -0.9562
vn -0.9562 0.2927 -0.0000
vn -0.0000 -0.3650 0.9310
vn 0.9310 -0.3650 -0.0000
vn -0.0000 -0.3650 -0.9310
vn -0.9310 -0.3650 -0.0000
vn -0.0000 -0.9628 0.2702
vn 0.2702 -0.9628 -0.0000
vn -0.0000 -0.9628 -0.2702
vn -0.2702 -0.9628 -0.0000
vn -0.0000 0.9059 0.4235
vn 0.4235 0.9059 -0.0000
vn -0.0000 0.9059 -0.4235
vn -0.4235 0.9059 -0.0000
vn -0.0000 0.0001 -1.0000
vn -0.0000 -0.1324 -0.9912
vn -0.0000 -0.1036 -0.9946
vn 0.9778 -0.2096 -0.0000
vn -0.9778 -0.2096 -0.0000
vn -0.0000 0.1036 -0.9946
vn -0.0000 0.1324 -0.9912
vn -0.9778 0.2096 -0.0000
vn 0.9778 0.2096 -0.0000
vn -0.0000 -0.0730 -0.9973
vn -0.0000 -0.0900 -0.9959
vn -0.9883 -0.1525 0.0001
vn -0.9883 -0.1525 -0.0000
vn 0.9883 -0.1525 -0.0001
vn 0.9883 -0.1525 -0.0000
vn 0.0001 0.0900 -0.9959
vn -0.0000 0.0730 -0.9973
vn -0.9883 0.1525 -0.0002
vn -0.9883 0.1525 -0.0000
vn 0.9883 0.1525 0.0002
vn 0.9883 0.1525 -0.0000
vn -0.0001 -0.0900 -0.9959
vn -0.0000 0.0900 -0.9959
vn 0.2538 -0.1937 -0.9477
vn -0.1933 0.9490 -0.2492
vn -0.4117 0.1670 -0.8959
vn -0.3386 0.8514 0.4006
vn -0.7791 -0.6035 0.1699
vn -0.3386 -0.8514 0.4006
vn 0.2706 0.2706 -0.9239
vn 0.7782 0.6028 -0.1763
vn 0.1977 -0.8235 0.5317
vn -0.2706 -0.2706 -0.9239
vn -0.0000 -0.0001 -1.0000
vn -0.3535 0.1464 -0.9239
vn 0.0635 0.0367 0.9973
vn 0.5082 -0.8609 -0.0241
vn 0.2958 -0.1200 -0.9477
vn -0.2551 -0.7408 0.6214
vn -0.1936 -0.9489 -0.2492
vn 0.2412 0.7006 -0.6716
vn 0.1944 0.9528 0.2332
vn 0.1944 -0.9528 0.2331
vn -0.2553 0.7407 0.6214
vn -0.0000 -0.1335 -0.9910
vn -0.0000 -0.0723 -0.9974
vn -0.0000 0.0723 -0.9974
vn -0.0000 0.1335 -0.9910
vn 0.3535 -0.1464 -0.9239
vn -0.0000 0.6225 -0.7826
vn -0.0000 0.3602 -0.9329
vn -0.0000 -0.7303 0.6831
vn 0.5233 -0.8522 -0.0000
vn -0.0000 -0.7303 -0.6831
vn -0.5232 -0.8522 -0.0000
vn -0.0000 0.8256 0.5643
vn 0.4093 0.9124 -0.0000
vn -0.0000 0.8256 -0.5643
vn -0.4093 0.9124 -0.0000
vn -0.7072 -0.0000 0.7071
vn -0.7071 -0.0000 0.7071
vn 0.7072 -0.0000 0.7071
vn 0.7071 -0.0000 0.7071
vn -0.7072 0.2492 -0.6616
vn -0.7070 0.2517 -0.6609
vn -0.7073 0.2480 -0.6619
vn -0.7071 0.2504 -0.6613
vn 0.0001 0.0045 -1.0000
vn -0.0000 0.3535 -0.9354
vn -0.0000 0.0046 -1.0000
vn -0.7075 0.0042 -0.7067
vn -0.7075 0.0034 -0.7067
vn -0.7072 -0.0000 -0.7071
vn 0.7073 0.2516 -0.6606
vn 0.7075 0.2491 -0.6613
vn 0.7078 0.2502 -0.6607
vn 0.7077 0.2479 -0.6616
vn 0.7077 0.0034 -0.7065
vn 0.7077 0.0042 -0.7065
vn 0.7073 -0.0000 -0.7069
vn -0.7097 -0.0002 0.7045
vn -0.7098 -0.0002 0.7044
vn 0.7039 -0.0001 0.7103
vn 0.7104 0.0012 -0.7038
vn 0.7109 0.0013 -0.7033
vn 0.7107 -0.0002 -0.7035
vn -0.0001 0.0022 -1.0000
vn -0.0002 0.3535 -0.9354
vn -0.0000 0.0022 -1.0000
vn -0.7050 0.0014 -0.7092
vn -0.7050 0.0012 -0.7092
vn -0.7048 -0.0002 -0.7094
vn -0.5926 -0.8054 0.0101
vn -0.0058 -0.6748 0.7380
vn -0.0092 -0.5440 0.8391
vn -0.6810 -0.7321 0.0129
vn -1.0000 -0.0073 -0.0000
vn -0.5929 -0.8052 -0.0101
vn -1.0000 -0.0073 0.0001
vn -0.0001 -0.0064 1.0000
vn -0.0000 -0.0064 1.0000
vn 0.0058 -0.6752 0.7376
vn 0.5929 -0.8052 0.0101
vn 0.6813 -0.7319 0.0128
vn 0.0093 -0.5439 0.8391
vn 1.0000 -0.0073 0.0002
vn 1.0000 -0.0073 -0.0000
vn 0.5926 -0.8055 -0.0101
vn 0.0058 -0.6748 -0.7380
vn 0.0092 -0.5440 -0.8390
vn 0.6810 -0.7322 -0.0130
vn -0.0000 -0.0064 -1.0000
vn -0.0058 -0.6752 -0.7376
vn -0.6812 -0.7319 -0.0128
vn -0.0093 -0.5439 -0.8391
vn -0.7085 0.0020 0.7057
vn -0.9861 -0.1663 -0.0000
vn -0.9863 -0.1649 -0.0000
vn -0.0000 -0.1037 0.9946
vn -0.0000 -0.1051 0.9945
vn 0.7023 0.0023 0.7119
vn 0.9863 -0.1649 -0.0000
vn 0.9861 -0.1663 -0.0000
vn 0.7085 0.0020 -0.7057
vn -0.0000 -0.1037 -0.9946
vn -0.0000 -0.1051 -0.9945
vn -0.7023 0.0024 -0.7119
vn -0.4085 0.9125 0.0220
vn -0.0067 0.5855 0.8106
vn -0.0026 0.8725 0.4886
vn -0.3613 0.9324 0.0052
vn -0.8287 0.5598 0.0001
vn -0.0000 0.1095 0.9940
vn -0.0000 0.1103 0.9939
vn 0.0067 0.5864 0.8100
vn 0.4084 0.9125 0.0222
vn 0.3609 0.9326 0.0051
vn 0.0026 0.8725 0.4887
vn 0.8287 0.5597 -0.0001
vn 0.4086 0.9125 -0.0219
vn 0.0067 0.5864 -0.8100
vn 0.0026 0.8726 -0.4884
vn 0.3611 0.9325 -0.0051
vn -0.0000 0.1096 -0.9940
vn -0.0000 0.1103 -0.9939
vn -0.0067 0.5868 -0.8097
vn -0.4084 0.9125 -0.0222
vn -0.3614 0.9324 -0.0051
vn -0.0026 0.8728 -0.4881
vn -0.0034 1.0000 0.0084
vn -0.0034 1.0000 -0.0083
vn 0.0034 1.0000 0.0084
vn 0.0034 1.0000 -0.0083
vn -0.0000 0.1095 -0.9940
vn -0.5705 -0.5647 0.5964
vn 0.5692 -0.5649 0.5974
vn 0.5705 -0.5647 -0.5964
vn -0.5692 -0.5649 -0.5974
vn -0.4986 -0.6101 0.6158
vn 0.5068 -0.6108 0.6084
vn 0.4986 -0.6100 -0.6158
vn -0.5068 -0.6108 -0.6084
vn -0.4497 0.6708 0.5897
vn 0.4415 0.6680 0.5990
vn 0.4497 0.6708 -0.5898
vn -0.4415 0.6680 -0.5990
vn 0.1672 -0.7958 0.5820
vn -0.2958 0.1200 -0.9477
vn -0.8091 -0.0000 0.5876
vn 0.3037 0.7507 -0.5867
vn 0.2590 -0.1983 0.9453
vn 0.1464 -0.3535 -0.9239
vn 0.9880 -0.0000 0.1547
vn 0.4117 -0.1670 -0.8959
vn -0.4924 -0.8703 -0.0135
vn -0.1671 0.4117 -0.8959
vn -0.4855 0.7191 -0.4972
vn -0.2745 0.4190 0.8655
vn 0.2553 -0.7407 0.6214
vn 0.1200 -0.2958 -0.9477
vn -0.3535 -0.1464 -0.9239
vn 0.4895 0.8299 0.2676
vn 1.0000 -0.0000 0.0003
vn 0.3535 0.1464 -0.9239
vn 0.2553 0.7407 0.6214
vn -0.6932 -0.7165 -0.0774
vn -0.0000 -0.9685 -0.2492
vn -0.2415 -0.7005 -0.6716
vn -0.0000 0.9243 0.3816
vn -0.3281 -0.9397 -0.0962
vn -0.0236 0.9976 0.0654
vn 0.9021 -0.0000 -0.4316
vn 0.4850 0.8101 -0.3294
vn 0.1547 -0.9084 -0.3884
vn -0.0000 -0.3069 0.9517
vn -0.9554 -0.0329 -0.2935
vn 0.4876 -0.1503 0.8600
vn 0.7492 -0.0204 0.6620
vt 0.979845 0.208174
vt 0.963342 0.275028
vt 0.963107 0.009102
vt 0.967760 0.206272
vt 0.951383 0.271968
vt 0.951223 0.012085
vt 0.971860 0.142515
vt 0.967896 0.078593
vt 0.984126 0.142524
vt 0.979934 0.076661
vt 0.939706 0.200814
vt 0.927041 0.256704
vt 0.926032 0.027799
vt 0.939155 0.083657
vt 0.943033 0.142207
vt 0.876029 0.192899
vt 0.866712 0.039043
vt 0.866971 0.245413
vt 0.875975 0.091842
vt 0.878366 0.142374
vt 0.850508 0.189468
vt 0.844724 0.234460
vt 0.843585 0.050453
vt 0.849785 0.095052
vt 0.851850 0.142178
vt 0.819074 0.189304
vt 0.815732 0.050539
vt 0.816927 0.234632
vt 0.818376 0.095495
vt 0.820144 0.142432
vt 0.796324 0.191220
vt 0.793365 0.241662
vt 0.792696 0.043528
vt 0.796021 0.093754
vt 0.797450 0.142452
vt 0.623409 0.181874
vt 0.857903 0.378445
vt 0.876951 0.397146
vt 0.620209 0.219856
vt 0.618635 0.067231
vt 0.857201 0.301071
vt 0.875902 0.282023
vt 0.622487 0.105314
vt 0.953276 0.281321
vt 0.972324 0.300022
vt 0.624051 0.143587
vt 0.973026 0.377396
vt 0.954325 0.396444
vt 0.865483 0.384470
vt 0.870789 0.389679
vt 0.864668 0.294909
vt 0.869877 0.289603
vt 0.959438 0.288788
vt 0.964745 0.293997
vt 0.965560 0.383558
vt 0.960351 0.388865
vt 0.870705 0.384459
vt 0.869888 0.294825
vt 0.959522 0.294008
vt 0.960339 0.383642
vt 0.875517 0.379533
vt 0.874815 0.299637
vt 0.954711 0.298935
vt 0.955413 0.378830
vt 0.903052 0.089025
vt 0.892789 0.035351
vt 0.893263 0.249275
vt 0.903333 0.195503
vt 0.906226 0.142313
vt 0.911860 0.087935
vt 0.901173 0.033892
vt 0.901633 0.250840
vt 0.912150 0.196629
vt 0.915158 0.142345
vt 0.909730 0.088224
vt 0.899544 0.036494
vt 0.900049 0.248223
vt 0.904922 0.088847
vt 0.895240 0.037229
vt 0.895752 0.247424
vt 0.910054 0.196311
vt 0.905233 0.195734
vt 0.913023 0.142313
vt 0.908156 0.142342
vt 0.830572 0.096028
vt 0.826913 0.051673
vt 0.827990 0.233348
vt 0.831266 0.188651
vt 0.832423 0.142316
vt 0.837505 0.095952
vt 0.833048 0.051764
vt 0.834104 0.233292
vt 0.838202 0.188695
vt 0.839370 0.142301
vt 0.835936 0.096071
vt 0.831747 0.053520
vt 0.832831 0.231514
vt 0.832049 0.096125
vt 0.828511 0.053463
vt 0.829605 0.231548
vt 0.836653 0.188569
vt 0.832762 0.188578
vt 0.837792 0.142289
vt 0.833897 0.142331
vt 0.979845 0.208174
vt 0.963342 0.275028
vt 0.963107 0.009102
vt 0.967760 0.206272
vt 0.951383 0.271968
vt 0.951223 0.012085
vt 0.971860 0.142515
vt 0.967896 0.078593
vt 0.984126 0.142524
vt 0.979934 0.076661
vt 0.939706 0.200814
vt 0.927041 0.256704
vt 0.926032 0.027799
vt 0.939155 0.083657
vt 0.943033 0.142207
vt 0.876029 0.192899
vt 0.866712 0.039043
vt 0.866971 0.245413
vt 0.875975 0.091842
vt 0.878366 0.142374
vt 0.850508 0.189468
vt 0.844724 0.234460
vt 0.843585 0.050453
vt 0.849785 0.095052
vt 0.851850 0.142178
vt 0.819074 0.189304
vt 0.815732 0.050539
vt 0.816927 0.234632
vt 0.818376 0.095495
vt 0.820144 0.142432
vt 0.796324 0.191220
vt 0.793365 0.241662
vt 0.792696 0.043528
vt 0.796021 0.093754
vt 0.797450 0.142452
vt 0.623409 0.181874
vt 0.296584 0.100760
vt 0.314298 0.118151
vt 0.620209 0.219856
vt 0.618635 0.067231
vt 0.295931 0.028804
vt 0.313322 0.011090
vt 0.622487 0.105314
vt 0.385279 0.010437
vt 0.402993 0.027828
vt 0.624051 0.143587
vt 0.403646 0.099784
vt 0.386254 0.117498
vt 0.303632 0.106363
vt 0.308568 0.111207
vt 0.302875 0.023073
vt 0.307719 0.018138
vt 0.391009 0.017381
vt 0.395945 0.022225
vt 0.396702 0.105515
vt 0.391858 0.110450
vt 0.308490 0.106353
vt 0.307729 0.022995
vt 0.391088 0.022235
vt 0.391847 0.105593
vt 0.312964 0.101771
vt 0.312311 0.027470
vt 0.386613 0.026817
vt 0.387266 0.101118
vt 0.903052 0.089025
vt 0.892789 0.035351
vt 0.893263 0.249275
vt 0.903333 0.195503
vt 0.906226 0.142313
vt 0.911860 0.087935
vt 0.901173 0.033892
vt 0.901633 0.250840
vt 0.912150 0.196629
vt 0.915158 0.142345
vt 0.909730 0.088224
vt 0.899544 0.036494
vt 0.900049 0.248223
vt 0.904922 0.088847
vt 0.895240 0.037229
vt 0.895752 0.247424
vt 0.910054 0.196311
vt 0.905233 0.195734
vt 0.913023 0.142313
vt 0.908156 0.142342
vt 0.830572 0.096028
vt 0.826913 0.051673
vt 0.827990 0.233348
vt 0.831266 0.188651
vt 0.832423 0.142316
vt 0.837505 0.095952
vt 0.833048 0.051764
vt 0.834104 0.233292
vt 0.838202 0.188695
vt 0.839370 0.142301
vt 0.835936 0.096071
vt 0.831747 0.053520
vt 0.832831 0.231514
vt 0.832049 0.096125
vt 0.828511 0.053463
vt 0.829605 0.231548
vt 0.836653 0.188569
vt 0.832762 0.188578
vt 0.837792 0.142289
vt 0.833897 0.142331
vt 0.811995 0.630626
vt 0.000000 0.000000
vt 0.981791 0.631952
vt 0.000000 0.000000
vt 0.000000 0.000000
vt 0.675448 0.250974
vt 0.000000 0.000000
vt 0.571217 0.250136
vt 0.788578 0.251883
vt 0.838999 0.438688
vt 0.000000 0.000000
vt 0.458087 0.249226
vt 0.492631 0.440457
vt 0.000000 0.000000
vt 0.602671 0.250389
vt 0.000000 0.000000
vt 0.532046 0.440256
vt 0.000000 0.000000
vt 0.531559 0.345028
vt 0.000000 0.000000
vt 0.643994 0.250721
vt 0.000000 0.000000
vt 0.799585 0.438890
vt 0.000000 0.000000
vt 0.799099 0.343662
vt 0.000000 0.000000
vt 0.639924 0.439705
vt 0.000000 0.000000
vt 0.691706 0.439441
vt 0.000000 0.000000
vt 0.702488 0.251191
vt 0.810876 0.770868
vt 0.000000 0.000000
vt 0.000000 0.000000
vt 0.929432 0.771804
vt 0.000000 0.000000
vt 0.980664 0.772215
vt 0.000000 0.000000
vt 0.544177 0.249919
vt 0.840206 0.569444
vt 0.644317 0.660003
vt 0.872502 0.568875
vt 0.673469 0.660426
vt 0.881849 0.612366
vt 0.682483 0.695116
vt 0.881164 0.579400
vt 0.683956 0.670569
vt 0.946392 0.611076
vt 0.744016 0.696457
vt 0.945798 0.578097
vt 0.744868 0.672155
vt 0.953485 0.567182
vt 0.753877 0.661703
vt 0.987047 0.566842
vt 0.785584 0.661677
vt 0.837485 0.407959
vt 0.647535 0.525098
vt 0.645837 0.524668
vt 0.841070 0.613200
vt 0.644455 0.695076
vt 0.644604 0.695879
vt 0.987631 0.610488
vt 0.782958 0.697138
vt 0.783802 0.695768
vt 0.985508 0.405086
vt 0.784693 0.527348
vt 0.785896 0.526131
vt 0.951943 0.404795
vt 0.753816 0.526024
vt 0.755976 0.526294
vt 0.953591 0.577946
vt 0.753933 0.670252
vt 0.752374 0.672849
vt 0.872697 0.579595
vt 0.676207 0.670398
vt 0.673214 0.668762
vt 0.869778 0.407476
vt 0.675434 0.525939
vt 0.676751 0.524664
vt 0.791566 0.705339
vt 0.675458 0.249678
vt 0.743907 0.706062
vt 0.644005 0.249425
vt 0.743986 0.698395
vt 0.784420 0.697309
vt 0.634429 0.659835
vt 0.544188 0.248623
vt 0.642392 0.659967
vt 0.643132 0.696442
vt 0.634971 0.704195
vt 0.571227 0.248840
vt 0.682371 0.697047
vt 0.681938 0.704763
vt 0.602681 0.249093
vt 0.787506 0.661717
vt 0.794937 0.661846
vt 0.702498 0.249896
vt 0.785601 0.526123
vt 0.792969 0.517713
vt 0.788589 0.250588
vt 0.839007 0.440312
vt 0.637993 0.515966
vt 0.458097 0.247931
vt 0.492640 0.442080
vt 0.645817 0.524664
vt 0.683600 0.660560
vt 0.639933 0.441328
vt 0.684581 0.516087
vt 0.532054 0.441879
vt 0.675427 0.660475
vt 0.676454 0.524662
vt 0.683824 0.668626
vt 0.674676 0.669933
vt 0.744930 0.670175
vt 0.744733 0.661872
vt 0.691715 0.441064
vt 0.751990 0.661755
vt 0.753504 0.671503
vt 0.753794 0.526022
vt 0.746464 0.518139
vt 0.799593 0.440513
vt 0.311747 0.130248
vt 0.410079 0.130426
vt 0.024698 0.133208
vt 0.311693 0.155159
vt 0.409643 0.155360
vt 0.025499 0.158096
vt 0.217957 0.156237
vt 0.124192 0.156168
vt 0.217828 0.131285
vt 0.123742 0.131258
vt 0.311040 0.180044
vt 0.401297 0.179405
vt 0.034444 0.182846
vt 0.124795 0.181572
vt 0.217881 0.181168
vt 0.311233 0.204506
vt 0.401630 0.202059
vt 0.034785 0.205509
vt 0.124943 0.206034
vt 0.218118 0.205236
vt 0.311720 0.224737
vt 0.410274 0.221690
vt 0.026677 0.224599
vt 0.124335 0.225837
vt 0.218002 0.225059
vt 0.312214 0.241439
vt 0.574685 0.199867
vt 0.595654 0.178588
vt 0.411098 0.238349
vt 0.026123 0.241297
vt 0.464616 0.200672
vt 0.443337 0.179703
vt 0.124118 0.242550
vt 0.442531 0.069635
vt 0.463500 0.048355
vt 0.218097 0.241793
vt 0.573569 0.047550
vt 0.594849 0.068519
vt 0.581988 0.192217
vt 0.588111 0.186002
vt 0.457202 0.193130
vt 0.450987 0.187006
vt 0.450074 0.062220
vt 0.456197 0.056006
vt 0.580984 0.055093
vt 0.587198 0.061216
vt 0.581954 0.186058
vt 0.457146 0.186972
vt 0.456232 0.062164
vt 0.581040 0.061250
vt 0.577223 0.181404
vt 0.461800 0.182242
vt 0.460962 0.066819
vt 0.576386 0.065981
vt 0.311747 0.130248
vt 0.410079 0.130426
vt 0.024698 0.133208
vt 0.311693 0.155159
vt 0.409643 0.155360
vt 0.025499 0.158096
vt 0.217957 0.156237
vt 0.124192 0.156168
vt 0.217828 0.131285
vt 0.123742 0.131258
vt 0.311040 0.180044
vt 0.401297 0.179405
vt 0.034444 0.182846
vt 0.124795 0.181572
vt 0.217881 0.181168
vt 0.311233 0.204506
vt 0.401630 0.202059
vt 0.034785 0.205509
vt 0.124943 0.206034
vt 0.218118 0.205236
vt 0.311720 0.224737
vt 0.410274 0.221690
vt 0.026677 0.224599
vt 0.124335 0.225837
vt 0.218002 0.225059
vt 0.312214 0.241439
vt 0.574685 0.199867
vt 0.595654 0.178588
vt 0.411098 0.238349
vt 0.026123 0.241297
vt 0.464616 0.200672
vt 0.443337 0.179703
vt 0.124118 0.242550
vt 0.442531 0.069635
vt 0.463500 0.048355
vt 0.218097 0.241793
vt 0.573569 0.047550
vt 0.594849 0.068519
vt 0.581988 0.192217
vt 0.588111 0.186002
vt 0.457202 0.193130
vt 0.450987 0.187006
vt 0.450074 0.062220
vt 0.456197 0.056006
vt 0.580984 0.055093
vt 0.587198 0.061216
vt 0.581954 0.186058
vt 0.457146 0.186972
vt 0.456232 0.062164
vt 0.581040 0.061250
vt 0.577223 0.181404
vt 0.461800 0.182242
vt 0.460962 0.066819
vt 0.576386 0.065981
vt 0.615689 0.694413
vt 0.502352 0.695737
vt 0.615627 0.689126
vt 0.502291 0.690451
vt 0.615568 0.684084
vt 0.502232 0.685409
vt 0.615515 0.679505
vt 0.502178 0.680830
vt 0.615455 0.674377
vt 0.502118 0.675702
vt 0.615410 0.670561
vt 0.502074 0.671885
vt 0.615350 0.665389
vt 0.502014 0.666714
vt 0.615306 0.661621
vt 0.501970 0.662946
vt 0.615241 0.656129
vt 0.501905 0.657453
vt 0.615185 0.651343
vt 0.501849 0.652668
vt 0.615121 0.645791
vt 0.501785 0.647116
vt 0.615072 0.641617
vt 0.501736 0.642942
vt 0.615001 0.635581
vt 0.501665 0.636905
vt 0.614943 0.630577
vt 0.501607 0.631902
vt 0.614883 0.625500
vt 0.501547 0.626825
vt 0.614835 0.621378
vt 0.501499 0.622702
vt 0.614769 0.615749
vt 0.501433 0.617073
vt 0.614722 0.611722
vt 0.501386 0.613047
vt 0.614658 0.606170
vt 0.501322 0.607494
vt 0.614608 0.601958
vt 0.501272 0.603282
vt 0.614548 0.596760
vt 0.501212 0.598084
vt 0.614492 0.592009
vt 0.501156 0.593333
vt 0.614431 0.586807
vt 0.501095 0.588131
vt 0.614391 0.583359
vt 0.501055 0.584683
vt 0.614315 0.576836
vt 0.500979 0.578161
vt 0.614251 0.571336
vt 0.500914 0.572661
vt 0.614186 0.565791
vt 0.500849 0.567115
vt 0.614135 0.561406
vt 0.500798 0.562730
vt 0.614065 0.555449
vt 0.500728 0.556774
vt 0.614007 0.550514
vt 0.500671 0.551839
vt 0.613932 0.544031
vt 0.500595 0.545356
vt 0.613876 0.539247
vt 0.500539 0.540571
vt 0.613801 0.532872
vt 0.500465 0.534197
vt 0.613742 0.527810
vt 0.500405 0.529134
vt 0.613657 0.520537
vt 0.500320 0.521861
vt 0.613590 0.514750
vt 0.500253 0.516074
vt 0.613522 0.508938
vt 0.500185 0.510262
vt 0.613468 0.504357
vt 0.500131 0.505682
vt 0.613392 0.497863
vt 0.500055 0.499188
vt 0.613335 0.492986
vt 0.499998 0.494310
vt 0.613267 0.487138
vt 0.499930 0.488463
vt 0.613207 0.482003
vt 0.499870 0.483328
vt 0.613138 0.476050
vt 0.499800 0.477375
vt 0.613087 0.471722
vt 0.499750 0.473046
vt 0.613010 0.465107
vt 0.499672 0.466432
vt 0.612955 0.460431
vt 0.499618 0.461755
vt 0.612874 0.453488
vt 0.499537 0.454813
vt 0.912681 0.763357
vt 0.369067 0.831135
vt 0.011068 0.738059
vt 0.908999 0.628171
vt 0.360008 0.735711
vt 0.976918 0.984572
vt 0.008742 0.827264
vt 0.060039 0.992247
vt 0.975737 0.842841
vt 0.456888 0.731161
vt 0.096031 0.835615
vt 0.058848 0.850516
vt 0.891787 0.763929
vt 0.457668 0.827280
vt 0.096505 0.734228
vt 0.888098 0.628741
vt 0.096707 0.750014
vt 0.457320 0.812027
vt 0.368415 0.816147
vt 0.011734 0.752508
vt 0.096062 0.819705
vt 0.457100 0.746758
vt 0.360778 0.752098
vt 0.010152 0.812489
vt 0.101097 0.762581
vt 0.461019 0.799787
vt 0.371337 0.803512
vt 0.015635 0.764376
vt 0.101260 0.804103
vt 0.460797 0.759240
vt 0.366983 0.765215
vt 0.014761 0.800511
vt 0.350552 0.829716
vt 0.429487 0.847414
vt 0.056140 0.109142
vt 0.350177 0.813253
vt 0.047230 0.097638
vt 0.349940 0.800923
vt 0.038174 0.091448
vt 0.349269 0.760436
vt 0.016087 0.062949
vt 0.349088 0.748135
vt 0.012352 0.052629
vt 0.348940 0.731807
vt 0.003439 0.041113
vt 0.889589 0.683392
vt 0.910482 0.682676
vt 0.345446 0.689210
vt 0.145729 0.697282
vt 0.147953 0.645858
vt 0.429694 0.989152
vt 0.694148 0.732217
vt 0.605123 0.845943
vt 0.214385 0.109087
vt 0.694078 0.747565
vt 0.223109 0.097960
vt 0.694102 0.759111
vt 0.231942 0.091996
vt 0.694287 0.797083
vt 0.253552 0.064434
vt 0.694375 0.808622
vt 0.257236 0.054433
vt 0.694591 0.823947
vt 0.265960 0.043305
vt 0.890292 0.709288
vt 0.911193 0.708865
vt 0.185258 0.645374
vt 0.134894 0.694591
vt 0.199511 0.644417
vt 0.607289 0.987666
vt 0.727151 0.794122
vt 0.466624 0.847103
vt 0.078685 0.109430
vt 0.727086 0.785545
vt 0.087891 0.098161
vt 0.727037 0.779079
vt 0.097098 0.092206
vt 0.726882 0.757823
vt 0.119904 0.064287
vt 0.726831 0.751358
vt 0.123899 0.054073
vt 0.726704 0.742656
vt 0.133099 0.042808
vt 0.889737 0.688869
vt 0.910634 0.688215
vt 0.014092 0.680606
vt 0.010681 0.686687
vt 0.467246 0.988838
vt 0.763424 0.793871
vt 0.567952 0.846254
vt 0.192472 0.109240
vt 0.763374 0.785289
vt 0.183598 0.098238
vt 0.763335 0.778817
vt 0.174686 0.092400
vt 0.763202 0.757537
vt 0.152678 0.065133
vt 0.763164 0.751054
vt 0.148857 0.055188
vt 0.763108 0.742441
vt 0.139986 0.044200
vt 0.890142 0.703808
vt 0.911044 0.703327
vt 0.569703 0.987980
vt 0.034891 0.007297
vt 0.213681 0.009146
vt 0.023179 0.007536
vt 0.191769 0.009302
vt 0.023164 0.006819
vt 0.190928 0.008260
vt 0.034877 0.006581
vt 0.214508 0.008092
vt 0.034869 0.006193
vt 0.214956 0.007520
vt 0.023156 0.006431
vt 0.190472 0.007695
vt 0.034855 0.005509
vt 0.215746 0.006513
vt 0.023143 0.005747
vt 0.189668 0.006698
vt 0.034845 0.005038
vt 0.216289 0.005821
vt 0.023133 0.005277
vt 0.189116 0.006014
vt 0.034833 0.004425
vt 0.216997 0.004917
vt 0.874738 0.709715
vt 0.023121 0.004663
vt 0.188395 0.005121
vt 0.874584 0.704235
vt 0.017470 0.007476
vt 0.080039 0.006597
vt 0.004304 0.008090
vt 0.057487 0.006294
vt 0.004267 0.007285
vt 0.056643 0.005203
vt 0.017432 0.006671
vt 0.080912 0.005530
vt 0.017412 0.006234
vt 0.081384 0.004952
vt 0.004246 0.006849
vt 0.056185 0.004611
vt 0.017376 0.005465
vt 0.082217 0.003932
vt 0.004210 0.006080
vt 0.055379 0.003569
vt 0.017352 0.004937
vt 0.082789 0.003232
vt 0.004186 0.005551
vt 0.054826 0.002852
vt 0.017319 0.004247
vt 0.083536 0.002317
vt 0.874191 0.689291
vt 0.004153 0.004861
vt 0.054103 0.001917
vt 0.874050 0.683812
vt 0.269367 0.329364
vt 0.401158 0.333979
vt 0.270597 0.410917
vt 0.399226 0.409403
vt 0.156512 0.376578
vt 0.172557 0.413902
vt 0.493545 0.411666
vt 0.017610 0.378107
vt 0.155629 0.295983
vt 0.168026 0.334917
vt 0.016723 0.297509
vt 0.496345 0.337583
vt 0.271535 0.455347
vt 0.398571 0.453667
vt 0.474806 0.454526
vt 0.018029 0.429782
vt 0.157193 0.428300
vt 0.193717 0.458201
vt 0.275579 0.607246
vt 0.398970 0.605116
vt 0.472989 0.602837
vt 0.019676 0.598811
vt 0.159039 0.597357
vt 0.200899 0.607615
vt 0.273033 0.612799
vt 0.401720 0.610563
vt 0.476517 0.608789
vt 0.013307 0.604658
vt 0.165527 0.603069
vt 0.197550 0.613731
vt 0.273110 0.617519
vt 0.482923 0.718843
vt 0.401811 0.615268
vt 0.358120 0.719258
vt 0.476635 0.613338
vt 0.013366 0.610344
vt 0.357809 0.641815
vt 0.165587 0.608755
vt 0.197591 0.618318
vt 0.482613 0.641239
vt 0.477989 0.715268
vt 0.363025 0.715650
vt 0.362742 0.645384
vt 0.477710 0.644855
vt 0.269307 0.411898
vt 0.269228 0.409935
vt 0.271938 0.409942
vt 0.271940 0.411834
vt 0.397905 0.410350
vt 0.397926 0.408473
vt 0.400563 0.408506
vt 0.400495 0.410347
vt 0.155096 0.377622
vt 0.155074 0.375567
vt 0.173894 0.412840
vt 0.156501 0.375569
vt 0.156534 0.378222
vt 0.174459 0.414791
vt 0.156512 0.376578
vt 0.491749 0.412535
vt 0.017610 0.378107
vt 0.492277 0.410705
vt 0.017599 0.377096
vt 0.019027 0.377064
vt 0.493172 0.412518
vt 0.019045 0.379119
vt 0.270723 0.329411
vt 0.267967 0.329440
vt 0.402473 0.334029
vt 0.399802 0.333932
vt 0.155629 0.295983
vt 0.169425 0.334841
vt 0.154200 0.295999
vt 0.018152 0.297494
vt 0.016723 0.297509
vt 0.495030 0.337533
vt 0.270268 0.456291
vt 0.270205 0.454462
vt 0.272839 0.454398
vt 0.272866 0.456241
vt 0.397288 0.454596
vt 0.397277 0.452755
vt 0.399868 0.452753
vt 0.399857 0.454590
vt 0.473520 0.455424
vt 0.473808 0.453597
vt 0.019452 0.428735
vt 0.475180 0.453671
vt 0.474795 0.455430
vt 0.019470 0.430797
vt 0.474806 0.454526
vt 0.155772 0.429346
vt 0.155744 0.427282
vt 0.194719 0.457231
vt 0.157186 0.427770
vt 0.157204 0.429319
vt 0.195077 0.459053
vt 0.157193 0.428300
vt 0.274094 0.608127
vt 0.274319 0.606229
vt 0.276802 0.606269
vt 0.276600 0.608331
vt 0.398059 0.606231
vt 0.397715 0.604161
vt 0.400189 0.604092
vt 0.400571 0.605930
vt 0.472462 0.603792
vt 0.471780 0.601875
vt 0.021049 0.597729
vt 0.473001 0.601901
vt 0.020131 0.599963
vt 0.472989 0.602837
vt 0.158609 0.598518
vt 0.157613 0.596281
vt 0.202090 0.606598
vt 0.159027 0.596231
vt 0.201559 0.608564
vt 0.159039 0.597357
vt 0.271929 0.613745
vt 0.272353 0.611958
vt 0.275074 0.611662
vt 0.274218 0.613665
vt 0.400567 0.611467
vt 0.399743 0.609517
vt 0.402463 0.609677
vt 0.402847 0.611468
vt 0.475430 0.609718
vt 0.474911 0.607898
vt 0.016310 0.603470
vt 0.475134 0.606456
vt 0.476539 0.609643
vt 0.014703 0.605711
vt 0.476227 0.608300
vt 0.164154 0.604151
vt 0.162553 0.601964
vt 0.199255 0.612771
vt 0.163423 0.601217
vt 0.165539 0.604195
vt 0.198678 0.614625
vt 0.165252 0.602827
vt 0.271598 0.617535
vt 0.481959 0.717084
vt 0.273984 0.617472
vt 0.271965 0.616552
vt 0.274273 0.616574
vt 0.480165 0.717955
vt 0.275575 0.617386
vt 0.360867 0.718351
vt 0.399296 0.615312
vt 0.400593 0.614350
vt 0.402893 0.614282
vt 0.403278 0.615141
vt 0.359070 0.717482
vt 0.400931 0.615284
vt 0.358774 0.643571
vt 0.475136 0.613376
vt 0.475491 0.612423
vt 0.014747 0.609216
vt 0.476612 0.612447
vt 0.016282 0.610205
vt 0.360568 0.642700
vt 0.475950 0.613356
vt 0.479867 0.642150
vt 0.162613 0.608786
vt 0.164156 0.607635
vt 0.198693 0.617368
vt 0.165575 0.607595
vt 0.199072 0.618209
vt 0.481663 0.643020
vt 0.164547 0.608766
vt 0.478787 0.714859
vt 0.477716 0.716109
vt 0.477138 0.714422
vt 0.363869 0.714799
vt 0.363295 0.716473
vt 0.362224 0.715237
vt 0.363614 0.646247
vt 0.361945 0.645792
vt 0.363010 0.644559
vt 0.476866 0.645707
vt 0.477439 0.644033
vt 0.478511 0.645270
vt 0.360778 0.752098
vt 0.010681 0.686687
vt 0.000000 0.000000
vt 0.366983 0.765215
vt 0.014092 0.680606
vt 0.000000 0.000000
vt 0.910482 0.682676
vt 0.199511 0.644417
vt 0.607289 0.987666
vt 0.134894 0.694591
vt 0.910634 0.688215
vt 0.185258 0.645374
vt 0.911044 0.703327
vt 0.147953 0.645858
vt 0.569703 0.987980
vt 0.145729 0.697282
vt 0.010152 0.812489
vt 0.345446 0.689210
vt 0.000000 0.000000
vt 0.014761 0.800511
vt 0.341353 0.682150
vt 0.912681 0.763357
vt 0.369067 0.831135
vt 0.010635 0.646487
vt 0.368415 0.816147
vt 0.010642 0.654556
vt 0.911193 0.708865
vt 0.135076 0.646388
vt 0.011068 0.738059
vt 0.908999 0.628171
vt 0.344775 0.642205
vt 0.011734 0.752508
vt 0.344916 0.651628
vt 0.360008 0.735711
vt 0.976918 0.984572
vt 0.010691 0.694744
vt 0.371337 0.803512
vt 0.014069 0.660634
vt 0.429694 0.989152
vt 0.200030 0.700500
vt 0.467246 0.988838
vt 0.184655 0.699903
vt 0.008742 0.827264
vt 0.060039 0.992247
vt 0.345568 0.698647
vt 0.015635 0.764376
vt 0.341029 0.658794
vt 0.341353 0.682150
vt 0.000000 0.000000
vt 0.010635 0.646487
vt 0.010642 0.654556
vt 0.135076 0.646388
vt 0.344775 0.642205
vt 0.344916 0.651628
vt 0.010691 0.694744
vt 0.000000 0.000000
vt 0.000000 0.000000
vt 0.014069 0.660634
vt 0.200030 0.700500
vt 0.184655 0.699903
vt 0.345568 0.698647
vt 0.000000 0.000000
vt 0.341029 0.658794
vt 0.000000 0.000000
vt 0.000000 0.000000
vt 0.811436 0.700747
vt 0.000000 0.000000
vt 0.981228 0.702083
vt 0.000000 0.000000
vt 0.000000 0.000000
vt 0.000000 0.000000
s 0
usemtl lambert4SG
f 1/1/1 2/2/1 4/5/1 3/4/1
f 41/61/2 42/62/2 43/63/2 44/64/2
f 5/7/3 6/8/3 8/10/3 7/9/3
f 2/3/4 8/10/4 6/8/4 4/6/4
f 7/9/5 1/1/5 3/4/5 5/7/5
f 3/4/6 4/5/6 10/12/6 9/11/6
f 4/6/7 6/8/7 11/14/7 10/13/7
f 6/8/8 5/7/8 12/15/8 11/14/8
f 5/7/9 3/4/9 9/11/9 12/15/9
f 9/11/1 10/12/1 50/72/1 51/73/1
f 10/13/4 11/14/4 49/70/4 50/71/4
f 11/14/3 12/15/3 52/74/3 49/70/3
f 12/15/5 9/11/5 51/73/5 52/74/5
f 13/16/10 14/18/10 18/22/10 17/21/10
f 14/17/11 15/19/11 19/24/11 18/23/11
f 15/19/12 16/20/12 20/25/12 19/24/12
f 16/20/13 13/16/13 17/21/13 20/25/13
f 17/21/1 18/22/1 66/92/1 67/93/1
f 18/23/4 19/24/4 65/90/4 66/91/4
f 19/24/3 20/25/3 68/94/3 65/90/3
f 20/25/5 17/21/5 67/93/5 68/94/5
f 21/26/14 22/28/14 26/32/14 25/31/14
f 22/27/15 23/29/15 27/34/15 26/33/15
f 23/29/16 24/30/16 28/35/16 27/34/16
f 24/30/17 21/26/17 25/31/17 28/35/17
f 25/31/18 26/32/18 30/39/18 29/36/18
f 26/33/19 27/34/19 31/43/19 30/40/19
f 27/34/20 28/35/20 32/46/20 31/43/20
f 28/35/21 25/31/21 29/36/21 32/46/21
f 29/37/22 30/41/22 34/51/22 33/49/22
f 30/42/23 31/44/23 35/53/23 34/52/23
f 31/45/24 32/47/24 36/55/24 35/54/24
f 32/48/25 29/38/25 33/50/25 36/56/25
f 33/49/1 34/51/1 38/58/1 37/57/1
f 34/52/4 35/53/4 39/59/4 38/58/4
f 35/54/3 36/55/3 40/60/3 39/59/3
f 36/56/5 33/50/5 37/57/5 40/60/5
f 37/57/26 38/58/26 42/62/26 41/61/26
f 38/58/27 39/59/27 43/63/27 42/62/27
f 39/59/28 40/60/28 44/64/28 43/63/28
f 40/60/29 37/57/29 41/61/29 44/64/29
f 46/66/4 45/65/4 15/19/4 14/17/4
f 47/68/1 46/67/1 14/18/1 13/16/1
f 48/69/5 47/68/5 13/16/5 16/20/5
f 45/65/3 48/69/3 16/20/3 15/19/3
f 54/76/4 53/75/4 55/78/4 56/79/4
f 57/81/1 54/77/1 56/80/1 58/82/1
f 59/83/5 57/81/5 58/82/5 60/84/5
f 53/75/3 59/83/3 60/84/3 55/78/3
f 50/71/30 49/70/30 53/75/30 54/76/30
f 45/65/31 46/66/31 56/79/31 55/78/31
f 51/73/32 50/72/32 54/77/32 57/81/32
f 46/67/33 47/68/33 58/82/33 56/80/33
f 52/74/34 51/73/34 57/81/34 59/83/34
f 47/68/35 48/69/35 60/84/35 58/82/35
f 49/70/36 52/74/36 59/83/36 53/75/36
f 48/69/37 45/65/37 55/78/37 60/84/37
f 62/86/4 61/85/4 23/29/4 22/27/4
f 63/88/1 62/87/1 22/28/1 21/26/1
f 64/89/5 63/88/5 21/26/5 24/30/5
f 61/85/3 64/89/3 24/30/3 23/29/3
f 70/96/4 69/95/4 71/98/4 72/99/4
f 73/101/1 70/97/1 72/100/1 74/102/1
f 75/103/5 73/101/5 74/102/5 76/104/5
f 69/95/3 75/103/3 76/104/3 71/98/3
f 66/91/38 65/90/38 69/95/38 70/96/38
f 61/85/39 62/86/39 72/99/39 71/98/39
f 67/93/40 66/92/40 70/97/40 73/101/40
f 62/87/41 63/88/41 74/102/41 72/100/41
f 68/94/42 67/93/42 73/101/42 75/103/42
f 63/88/43 64/89/43 76/104/43 74/102/43
f 65/90/44 68/94/44 75/103/44 69/95/44
f 64/89/45 61/85/45 71/98/45 76/104/45
f 77/105/1 78/106/1 80/109/1 79/108/1
f 117/165/2 118/166/2 119/167/2 120/168/2
f 81/111/3 82/112/3 84/114/3 83/113/3
f 78/107/4 84/114/4 82/112/4 80/110/4
f 83/113/5 77/105/5 79/108/5 81/111/5
f 79/108/6 80/109/6 86/116/6 85/115/6
f 80/110/7 82/112/7 87/118/7 86/117/7
f 82/112/8 81/111/8 88/119/8 87/118/8
f 81/111/9 79/108/9 85/115/9 88/119/9
f 85/115/1 86/116/1 126/176/1 127/177/1
f 86/117/4 87/118/4 125/174/4 126/175/4
f 87/118/3 88/119/3 128/178/3 125/174/3
f 88/119/5 85/115/5 127/177/5 128/178/5
f 89/120/10 90/122/10 94/126/10 93/125/10
f 90/121/11 91/123/11 95/128/11 94/127/11
f 91/123/12 92/124/12 96/129/12 95/128/12
f 92/124/13 89/120/13 93/125/13 96/129/13
f 93/125/1 94/126/1 142/196/1 143/197/1
f 94/127/4 95/128/4 141/194/4 142/195/4
f 95/128/3 96/129/3 144/198/3 141/194/3
f 96/129/5 93/125/5 143/197/5 144/198/5
f 97/130/14 98/132/14 102/136/14 101/135/14
f 98/131/15 99/133/15 103/138/15 102/137/15
f 99/133/16 100/134/16 104/139/16 103/138/16
f 100/134/17 97/130/17 101/135/17 104/139/17
f 101/135/18 102/136/18 106/143/18 105/140/18
f 102/137/19 103/138/19 107/147/19 106/144/19
f 103/138/20 104/139/20 108/150/20 107/147/20
f 104/139/21 101/135/21 105/140/21 108/150/21
f 105/141/22 106/145/22 110/155/22 109/153/22
f 106/146/23 107/148/23 111/157/23 110/156/23
f 107/149/24 108/151/24 112/159/24 111/158/24
f 108/152/25 105/142/25 109/154/25 112/160/25
f 109/153/1 110/155/1 114/162/1 113/161/1
f 110/156/4 111/157/4 115/163/4 114/162/4
f 111/158/3 112/159/3 116/164/3 115/163/3
f 112/160/5 109/154/5 113/161/5 116/164/5
f 113/161/26 114/162/26 118/166/26 117/165/26
f 114/162/27 115/163/27 119/167/27 118/166/27
f 115/163/28 116/164/28 120/168/28 119/167/28
f 116/164/29 113/161/29 117/165/29 120/168/29
f 122/170/4 121/169/4 91/123/4 90/121/4
f 123/172/1 122/171/1 90/122/1 89/120/1
f 124/173/5 123/172/5 89/120/5 92/124/5
f 121/169/3 124/173/3 92/124/3 91/123/3
f 130/180/4 129/179/4 131/182/4 132/183/4
f 133/185/1 130/181/1 132/184/1 134/186/1
f 135/187/5 133/185/5 134/186/5 136/188/5
f 129/179/3 135/187/3 136/188/3 131/182/3
f 126/175/30 125/174/30 129/179/30 130/180/30
f 121/169/31 122/170/31 132/183/31 131/182/31
f 127/177/32 126/176/32 130/181/32 133/185/32
f 122/171/33 123/172/33 134/186/33 132/184/33
f 128/178/34 127/177/34 133/185/34 135/187/34
f 123/172/35 124/173/35 136/188/35 134/186/35
f 125/174/36 128/178/36 135/187/36 129/179/36
f 124/173/37 121/169/37 131/182/37 136/188/37
f 138/190/4 137/189/4 99/133/4 98/131/4
f 139/192/1 138/191/1 98/132/1 97/130/1
f 140/193/5 139/192/5 97/130/5 100/134/5
f 137/189/3 140/193/3 100/134/3 99/133/3
f 146/200/4 145/199/4 147/202/4 148/203/4
f 149/205/1 146/201/1 148/204/1 150/206/1
f 151/207/5 149/205/5 150/206/5 152/208/5
f 145/199/3 151/207/3 152/208/3 147/202/3
f 142/195/38 141/194/38 145/199/38 146/200/38
f 137/189/39 138/190/39 148/203/39 147/202/39
f 143/197/40 142/196/40 146/201/40 149/205/40
f 138/191/41 139/192/41 150/206/41 148/204/41
f 144/198/42 143/197/42 149/205/42 151/207/42
f 139/192/43 140/193/43 152/208/43 150/206/43
f 141/194/44 144/198/44 151/207/44 145/199/44
f 140/193/45 137/189/45 147/202/45 152/208/45
f 155/213/2 168/241/2 169/242/2 162/230/2
s 1
f 189/288/3 190/290/3 191/292/3 192/293/3
f 638/937/4 172/247/4 156/216/46 171/245/47
f 637/935/5 168/240/48 155/214/49 167/239/5
f 193/294/3 194/296/3 195/297/3 196/298/3
f 197/300/3 191/292/3 190/290/3 198/301/3
s 0
f 156/215/2 159/224/2 170/244/2 171/246/2
s 1
f 200/304/3 199/303/3 201/306/3 202/307/3
s 0
f 153/209/5 637/935/5 167/239/5 157/217/5
f 637/936/1 153/210/1 164/234/1 639/939/1
f 637/936/1 639/939/1 169/242/1 168/241/1
f 154/211/4 158/220/4 172/247/4 638/937/4
s 1
f 203/310/3 204/313/3 194/296/3 193/294/3
s 0
f 159/223/4 170/243/50 640/940/4 165/236/4
s 1
f 206/316/3 205/314/3 207/318/3 208/319/3
f 209/320/3 210/321/3 207/318/3 205/314/3
f 212/323/3 211/322/3 209/320/3 205/314/3
f 213/325/3 214/326/3 211/322/3 212/323/3
f 179/260/3 185/276/3 184/273/3 180/262/3
f 186/279/3 183/270/3 177/256/3 178/258/3
f 176/254/3 178/258/3 177/256/3 175/252/3
f 175/252/3 182/267/3 187/282/3 176/254/3
f 206/316/3 208/319/3 204/313/3 203/310/3
f 181/264/3 188/285/3 174/250/3 173/248/3
f 196/298/3 195/297/3 197/300/3 198/301/3
f 187/282/3 182/267/3 173/248/3 174/250/3
f 180/262/3 183/270/3 186/279/3 179/260/3
f 189/288/3 192/293/3 199/303/3 200/304/3
f 202/307/3 201/306/3 215/327/3 216/328/3
f 216/328/3 215/327/3 213/325/3 212/323/3
s 0
f 155/214/2 162/229/2 190/291/2 189/289/2
f 177/257/51 183/271/51 192/293/51 191/292/51
f 173/249/5 182/268/5 195/297/5 194/296/5
f 156/216/4 172/247/4 193/295/4 196/299/4
f 175/253/51 177/257/51 191/292/51 197/300/51
f 162/229/2 159/223/2 198/302/2 190/291/2
f 180/263/4 184/274/4 201/306/4 199/303/4
f 157/217/5 167/239/5 200/305/5 202/308/5
f 181/265/5 173/249/5 194/296/5 204/313/5
f 172/247/4 158/220/4 203/311/4 193/295/4
f 160/225/5 165/235/5 205/315/5 206/317/5
f 174/251/4 188/286/4 208/319/4 207/318/4
f 176/255/2 187/283/2 210/321/2 209/320/2
f 187/284/4 174/251/4 207/318/4 210/321/4
f 178/259/2 176/255/2 209/320/2 211/322/2
f 165/235/51 166/237/51 212/324/51 205/315/51
f 179/261/5 186/280/5 214/326/5 213/325/5
f 186/281/2 178/259/2 211/322/2 214/326/2
f 188/287/52 181/266/52 204/313/52 208/319/52
f 158/221/51 160/225/51 206/317/51 203/312/51
f 182/269/51 175/253/51 197/300/51 195/297/51
f 159/223/2 156/216/2 196/299/2 198/302/2
f 183/272/4 180/263/4 199/303/4 192/293/4
f 167/239/5 155/214/5 189/289/5 200/305/5
f 184/275/53 185/277/53 215/327/53 201/306/53
f 163/231/51 157/218/51 202/309/51 216/329/51
f 185/278/5 179/261/5 213/325/5 215/327/5
f 166/237/4 163/231/4 216/329/4 212/324/4
f 217/330/1 218/331/1 220/334/1 219/333/1
f 249/380/2 250/381/2 251/382/2 252/383/2
f 221/336/3 222/337/3 224/339/3 223/338/3
f 218/332/4 224/339/4 222/337/4 220/335/4
f 223/338/5 217/330/5 219/333/5 221/336/5
f 219/333/54 220/334/54 226/341/54 225/340/54
f 220/335/55 222/337/55 227/343/55 226/342/55
f 222/337/56 221/336/56 228/344/56 227/343/56
f 221/336/57 219/333/57 225/340/57 228/344/57
f 225/340/1 226/341/1 230/346/1 229/345/1
f 226/342/4 227/343/4 231/348/4 230/347/4
f 227/343/3 228/344/3 232/349/3 231/348/3
f 228/344/5 225/340/5 229/345/5 232/349/5
f 229/345/58 230/346/58 234/351/58 233/350/58
f 230/347/59 231/348/59 235/353/59 234/352/59
f 231/348/60 232/349/60 236/354/60 235/353/60
f 232/349/61 229/345/61 233/350/61 236/354/61
f 233/350/1 234/351/1 238/358/1 237/355/1
f 234/352/4 235/353/4 239/362/4 238/359/4
f 235/353/3 236/354/3 240/365/3 239/362/3
f 236/354/5 233/350/5 237/355/5 240/365/5
f 237/356/62 238/360/62 242/370/62 241/368/62
f 238/361/63 239/363/63 243/372/63 242/371/63
f 239/364/64 240/366/64 244/374/64 243/373/64
f 240/367/65 237/357/65 241/369/65 244/375/65
f 241/368/1 242/370/1 246/377/1 245/376/1
f 242/371/4 243/372/4 247/378/4 246/377/4
f 243/373/3 244/374/3 248/379/3 247/378/3
f 244/375/5 241/369/5 245/376/5 248/379/5
f 245/376/66 246/377/66 250/381/66 249/380/66
f 246/377/67 247/378/67 251/382/67 250/381/67
f 247/378/68 248/379/68 252/383/68 251/382/68
f 248/379/69 245/376/69 249/380/69 252/383/69
f 253/384/1 254/385/1 256/388/1 255/387/1
f 285/434/2 286/435/2 287/436/2 288/437/2
f 257/390/3 258/391/3 260/393/3 259/392/3
f 254/386/4 260/393/4 258/391/4 256/389/4
f 259/392/5 253/384/5 255/387/5 257/390/5
f 255/387/54 256/388/54 262/395/54 261/394/54
f 256/389/55 258/391/55 263/397/55 262/396/55
f 258/391/56 257/390/56 264/398/56 263/397/56
f 257/390/57 255/387/57 261/394/57 264/398/57
f 261/394/1 262/395/1 266/400/1 265/399/1
f 262/396/4 263/397/4 267/402/4 266/401/4
f 263/397/3 264/398/3 268/403/3 267/402/3
f 264/398/5 261/394/5 265/399/5 268/403/5
f 265/399/58 266/400/58 270/405/58 269/404/58
f 266/401/59 267/402/59 271/407/59 270/406/59
f 267/402/60 268/403/60 272/408/60 271/407/60
f 268/403/61 265/399/61 269/404/61 272/408/61
f 269/404/1 270/405/1 274/412/1 273/409/1
f 270/406/4 271/407/4 275/416/4 274/413/4
f 271/407/3 272/408/3 276/419/3 275/416/3
f 272/408/5 269/404/5 273/409/5 276/419/5
f 273/410/62 274/414/62 278/424/62 277/422/62
f 274/415/63 275/417/63 279/426/63 278/425/63
f 275/418/64 276/420/64 280/428/64 279/427/64
f 276/421/65 273/411/65 277/423/65 280/429/65
f 277/422/1 278/424/1 282/431/1 281/430/1
f 278/425/4 279/426/4 283/432/4 282/431/4
f 279/427/3 280/428/3 284/433/3 283/432/3
f 280/429/5 277/423/5 281/430/5 284/433/5
f 281/430/66 282/431/66 286/435/66 285/434/66
f 282/431/67 283/432/67 287/436/67 286/435/67
f 283/432/68 284/433/68 288/437/68 287/436/68
f 284/433/69 281/430/69 285/434/69 288/437/69
f 289/438/2 290/439/2 292/441/2 291/440/2
f 291/440/3 292/441/3 294/443/3 293/442/3
f 293/442/2 294/443/2 296/445/2 295/444/2
f 295/444/70 296/445/70 298/447/70 297/446/70
f 297/446/2 298/447/2 300/449/2 299/448/2
f 299/448/70 300/449/70 302/451/70 301/450/70
f 301/450/2 302/451/2 304/453/2 303/452/2
f 303/452/3 304/453/3 306/455/3 305/454/3
f 305/454/2 306/455/2 308/457/2 307/456/2
f 307/456/70 308/457/70 310/459/70 309/458/70
f 309/458/2 310/459/2 312/461/2 311/460/2
f 311/460/3 312/461/3 314/463/3 313/462/3
f 313/462/2 314/463/2 316/465/2 315/464/2
f 315/464/70 316/465/70 318/467/70 317/466/70
f 317/466/2 318/467/2 320/469/2 319/468/2
f 319/468/3 320/469/3 322/471/3 321/470/3
f 321/470/2 322/471/2 324/473/2 323/472/2
f 323/472/3 324/473/3 326/475/3 325/474/3
f 325/474/2 326/475/2 328/477/2 327/476/2
f 327/476/3 328/477/3 330/479/3 329/478/3
f 329/478/2 330/479/2 332/481/2 331/480/2
f 331/480/3 332/481/3 334/483/3 333/482/3
f 333/482/2 334/483/2 336/485/2 335/484/2
f 335/484/3 336/485/3 338/487/3 337/486/3
f 337/486/2 338/487/2 340/489/2 339/488/2
f 339/488/3 340/489/3 342/491/3 341/490/3
f 341/490/2 342/491/2 344/493/2 343/492/2
f 343/492/3 344/493/3 346/495/3 345/494/3
f 345/494/2 346/495/2 348/497/2 347/496/2
f 347/496/3 348/497/3 350/499/3 349/498/3
f 349/498/2 350/499/2 352/501/2 351/500/2
f 351/500/3 352/501/3 354/503/3 353/502/3
f 353/502/2 354/503/2 356/505/2 355/504/2
f 355/504/3 356/505/3 358/507/3 357/506/3
f 357/506/2 358/507/2 360/509/2 359/508/2
f 359/508/3 360/509/3 362/511/3 361/510/3
f 361/510/2 362/511/2 364/513/2 363/512/2
f 363/512/3 364/513/3 366/515/3 365/514/3
f 365/514/2 366/515/2 368/517/2 367/516/2
f 367/516/3 368/517/3 370/519/3 369/518/3
f 369/518/2 370/519/2 372/521/2 371/520/2
f 371/520/3 372/521/3 374/523/3 373/522/3
f 373/522/2 374/523/2 376/525/2 375/524/2
f 375/524/3 376/525/3 378/527/3 377/526/3
f 377/526/2 378/527/2 380/529/2 379/528/2
f 379/528/3 380/529/3 382/531/3 381/530/3
s 1
f 385/537/2 428/601/2 418/584/2 387/540/2
f 387/541/3 418/583/3 419/586/71 396/553/72
f 389/544/51 423/596/51 424/597/51 383/532/51
f 398/555/73 395/552/73 388/542/4 386/538/4
f 396/553/74 397/554/74 385/536/5 387/541/5
f 392/549/75 422/592/76 423/594/3 389/545/3
f 389/545/5 383/533/5 393/550/77 392/549/77
f 384/534/4 390/546/4 391/548/78 394/551/78
f 396/553/72 419/586/71 420/588/79 404/561/80
f 404/561/81 405/562/82 397/554/74 396/553/74
f 406/563/83 403/560/84 395/552/73 398/555/73
f 400/557/85 421/590/86 422/592/76 392/549/75
f 392/549/77 393/550/77 401/558/87 400/557/88
f 394/551/78 391/548/78 399/556/89 402/559/90
f 404/561/80 420/588/79 421/590/86 400/557/85
f 400/557/88 401/558/87 405/562/82 404/561/81
f 402/559/90 399/556/89 403/560/84 406/563/83
f 407/564/3 388/542/3 395/552/72 408/567/71
f 409/569/79 408/567/71 395/552/72 403/560/91
f 410/571/86 409/569/79 403/560/91 399/556/92
f 411/573/76 410/571/86 399/556/92 391/548/75
f 412/575/3 411/573/76 391/548/75 390/546/3
f 413/578/51 412/577/51 390/547/51 384/535/51
f 384/534/1 394/551/93 612/901/94 611/898/1
f 405/562/95 401/558/96 614/906/97 600/873/98
f 438/619/99 446/635/4 605/884/5 616/910/5
f 401/558/96 393/550/100 609/894/101 614/906/97
f 446/635/4 428/601/4 602/878/102 605/884/5
f 407/565/2 417/582/2 386/539/2 388/543/2
f 447/636/3 448/638/3 449/640/103 450/642/103
f 451/644/103 450/642/103 449/640/103 452/646/103
f 453/648/3 451/644/103 452/646/103 454/650/3
f 455/652/3 453/648/3 454/650/3 456/654/3
f 457/656/3 455/652/3 456/654/3 458/659/3
f 424/597/51 423/596/51 444/633/51 445/634/51
f 435/616/102 413/578/5 601/876/3 603/880/4
f 383/532/104 424/597/4 610/896/99 608/891/105
f 397/554/106 405/562/95 600/873/98 599/870/107
f 385/536/1 397/554/106 599/870/107 613/903/4
f 413/578/5 384/535/1 611/899/1 601/876/3
f 418/584/2 428/601/2 446/635/2 439/621/2
f 459/662/3 460/664/3 461/666/103 462/668/103
f 463/670/103 462/668/103 461/666/103 464/672/103
f 465/674/3 463/670/103 464/672/103 466/676/3
f 467/678/3 465/674/3 466/676/3 468/680/3
f 469/682/3 467/678/3 468/680/3 470/685/3
f 435/616/51 434/615/51 412/577/51 413/578/51
f 428/601/4 385/537/1 613/904/4 602/878/102
f 406/563/108 398/555/109 606/886/110 607/889/111
f 402/559/112 406/563/108 607/889/111 618/915/113
f 417/582/99 438/619/99 616/910/5 615/908/102
f 394/551/93 402/559/112 618/915/113 612/901/94
f 429/603/2 438/619/2 417/582/2 407/565/2
f 439/620/3 429/602/3 430/605/114 440/623/114
f 441/625/115 440/623/114 430/605/114 431/607/115
f 442/627/116 441/625/115 431/607/115 432/609/116
f 443/629/117 442/627/116 432/609/116 433/611/117
f 444/631/3 443/629/117 433/611/117 434/613/3
f 445/634/51 444/633/51 434/615/51 435/616/51
f 424/597/4 445/634/102 604/882/99 610/896/99
f 393/550/100 383/533/104 608/892/105 609/894/101
f 398/555/109 386/538/118 617/912/1 606/886/110
f 445/634/102 435/616/102 603/880/4 604/882/99
f 386/539/118 417/582/99 615/908/102 617/913/1
f 439/621/2 446/635/2 438/619/2 429/603/2
s 0
f 418/585/119 439/622/119 448/639/119 447/637/119
f 439/622/4 440/624/4 449/641/4 448/639/4
f 419/587/5 418/585/5 447/637/5 450/643/5
f 420/589/5 419/587/5 450/643/5 451/645/5
f 440/624/4 441/626/4 452/647/4 449/641/4
f 421/591/5 420/589/5 451/645/5 453/649/5
f 441/626/4 442/628/4 454/651/4 452/647/4
f 422/593/5 421/591/5 453/649/5 455/653/5
f 442/628/4 443/630/4 456/655/4 454/651/4
f 423/595/5 422/593/5 455/653/5 457/657/5
f 443/630/4 444/632/4 458/660/4 456/655/4
f 444/633/51 423/596/51 457/658/51 458/661/51
f 429/604/119 407/566/119 460/665/119 459/663/119
f 407/566/4 408/568/4 461/667/4 460/665/4
f 430/606/5 429/604/5 459/663/5 462/669/5
f 431/608/5 430/606/5 462/669/5 463/671/5
f 408/568/4 409/570/4 464/673/4 461/667/4
f 432/610/5 431/608/5 463/671/5 465/675/5
f 409/570/4 410/572/4 466/677/4 464/673/4
f 433/612/5 432/610/5 465/675/5 467/679/5
f 410/572/4 411/574/4 468/681/4 466/677/4
f 434/614/5 433/612/5 467/679/5 469/683/5
f 411/574/4 412/576/4 470/686/4 468/681/4
f 412/577/51 434/615/51 469/684/51 470/687/51
f 471/688/1 472/689/1 474/691/1 473/690/1
f 495/728/2 496/729/2 497/730/2 498/731/2
f 475/692/3 476/695/3 478/698/3 477/696/3
f 472/689/4 478/699/4 476/694/4 474/691/4
f 477/697/5 471/688/5 473/690/5 475/693/5
f 473/690/1 474/691/1 480/701/1 479/700/1
f 474/691/4 476/694/4 481/702/4 480/701/4
f 476/695/120 475/692/120 482/704/120 481/703/120
f 475/693/5 473/690/5 479/700/5 482/705/5
f 479/700/1 480/701/1 484/707/1 483/706/1
f 480/701/4 481/702/4 485/708/4 484/707/4
f 481/703/3 482/704/3 486/710/3 485/709/3
f 482/705/5 479/700/5 483/706/5 486/711/5
f 483/706/121 484/707/121 488/713/121 487/712/121
f 484/707/122 485/708/122 489/714/122 488/713/122
f 485/709/123 486/710/123 490/716/123 489/715/123
f 486/711/124 483/706/124 487/712/124 490/717/124
f 487/712/1 488/713/1 492/720/1 491/718/1
f 488/713/4 489/714/4 493/722/4 492/720/4
f 489/715/3 490/716/3 494/725/3 493/723/3
f 490/717/5 487/712/5 491/718/5 494/726/5
f 491/719/125 492/721/125 496/729/125 495/728/125
f 492/721/126 493/724/126 497/730/126 496/729/126
f 493/724/127 494/727/127 498/731/127 497/730/127
f 494/727/128 491/719/128 495/728/128 498/731/128
s 1
f 499/732/129 502/735/129 525/766/129 524/765/129
f 500/733/5 499/732/5 510/745/5 509/742/5
f 501/734/130 500/733/130 516/755/130 515/754/130
f 502/735/1 501/734/1 504/737/1 503/736/1
f 503/736/131 506/739/131 529/770/131 528/769/131
f 505/738/132 504/737/132 518/757/132 517/756/132
f 506/739/4 505/738/4 512/749/4 511/747/4
f 507/740/133 510/744/134 537/782/135 536/780/136
f 508/741/137 507/740/138 514/753/138 513/751/139
f 509/743/140 508/741/141 520/760/142 519/758/142
f 511/747/143 514/752/144 533/775/145 532/773/146
f 513/751/147 512/750/148 522/762/149 521/761/149
f 523/764/150 526/767/151 541/788/151 540/787/151
f 524/765/5 523/764/5 538/784/5 537/781/5
f 526/767/1 525/766/1 528/769/1 527/768/1
f 527/768/152 530/771/152 545/792/152 544/791/152
f 530/771/4 529/770/4 532/773/4 531/772/4
f 531/772/153 534/776/154 549/797/155 548/795/155
f 534/777/156 533/774/138 536/780/157 535/779/158
f 535/779/159 538/783/160 553/803/161 552/801/161
f 539/786/162 542/789/163 557/808/164 556/807/165
f 540/787/166 539/786/162 554/804/167 553/802/168
f 542/789/163 541/788/169 544/791/170 543/790/171
f 543/790/171 546/793/172 561/812/173 560/811/174
f 546/793/172 545/792/175 548/795/176 547/794/177
f 547/794/177 550/799/178 565/817/179 564/815/180
f 550/798/178 549/796/181 552/801/181 551/800/182
f 551/800/182 554/805/167 569/824/183 568/822/184
s 0
f 555/806/185 558/809/185 573/832/185 572/831/185
s 1
f 556/807/165 555/806/186 570/826/187 569/823/183
f 558/809/188 557/808/164 560/811/174 559/810/189
s 0
f 559/810/190 562/813/190 577/838/190 576/837/190
s 1
f 562/813/191 561/812/173 564/815/180 563/814/192
s 0
f 563/814/193 566/818/193 581/846/193 580/844/193
s 1
f 566/819/194 565/816/179 568/822/184 567/821/195
s 0
f 567/821/196 570/825/196 585/854/196 584/852/196
s 1
f 571/829/197 574/833/198 588/859/199 587/858/200
s 0
f 572/831/201 571/828/201 586/855/201 585/853/201
s 1
f 574/834/198 573/832/202 576/837/203 575/836/204
f 575/835/204 578/840/205 592/863/206 591/862/207
s 0
f 578/839/208 577/838/208 580/844/208 579/843/208
s 1
f 579/842/209 582/848/210 595/866/211 594/865/212
f 582/847/210 581/845/213 584/852/214 583/851/215
f 583/850/215 586/856/216 598/869/217 597/868/218
f 587/858/200 589/860/219 596/867/220 598/869/217
f 589/860/219 588/859/199 591/862/207 590/861/221
f 590/861/221 592/863/206 594/865/212 593/864/222
f 593/864/222 595/866/211 597/868/218 596/867/220
f 501/734/1 515/754/1 518/757/1 504/737/1
f 589/860/219 590/861/221 593/864/222 596/867/220
f 508/741/137 513/751/139 521/761/3 520/760/3
f 505/738/4 517/756/4 522/763/4 512/749/4
f 509/742/5 519/759/5 516/755/5 500/733/5
f 502/735/1 503/736/1 528/769/1 525/766/1
f 506/739/4 511/747/4 532/773/4 529/770/4
f 514/753/138 507/740/138 536/780/157 533/774/138
f 510/745/5 499/732/5 524/765/5 537/781/5
f 526/767/1 527/768/1 544/791/170 541/788/169
f 530/771/4 531/772/4 548/795/176 545/792/175
f 534/777/156 535/779/158 552/801/181 549/796/181
f 538/784/5 523/764/5 540/787/166 553/802/168
f 542/789/163 543/790/171 560/811/174 557/808/164
f 546/793/172 547/794/177 564/815/180 561/812/173
f 550/798/178 551/800/182 568/822/184 565/816/179
f 554/804/167 539/786/162 556/807/165 569/823/183
f 558/809/188 559/810/189 576/837/203 573/832/202
f 562/813/191 563/814/192 580/844/4 577/838/4
f 566/819/194 567/821/195 584/852/214 581/845/223
f 570/826/187 555/806/186 572/831/5 585/853/5
f 574/833/198 575/835/204 591/862/207 588/859/199
f 578/840/205 579/842/209 594/865/212 592/863/206
f 582/848/210 583/850/215 597/868/218 595/866/211
f 586/856/216 571/829/197 587/858/200 598/869/217
f 499/732/129 500/733/130 501/734/130 502/735/129
f 503/736/131 504/737/132 505/738/132 506/739/131
f 507/740/133 508/741/141 509/743/140 510/746/134
f 511/748/143 512/750/148 513/751/147 514/753/144
f 523/764/150 524/765/129 525/766/129 526/767/151
f 527/768/152 528/769/131 529/770/131 530/771/152
f 531/772/153 532/773/146 533/775/145 534/778/154
f 535/779/159 536/780/136 537/782/135 538/785/160
f 539/786/162 540/787/224 541/788/224 542/789/163
f 543/790/171 544/791/225 545/792/225 546/793/172
f 547/794/177 548/795/226 549/797/226 550/799/178
f 551/800/182 552/801/227 553/803/227 554/805/167
f 555/806/228 556/807/165 557/808/164 558/809/228
f 559/810/229 560/811/174 561/812/173 562/813/229
f 563/814/230 564/815/180 565/817/179 566/820/230
f 567/821/231 568/822/184 569/824/183 570/827/231
f 571/830/197 572/831/232 573/832/232 574/834/198
f 575/836/204 576/837/233 577/838/233 578/841/205
f 579/843/209 580/844/234 581/846/234 582/849/210
f 583/851/215 584/852/235 585/854/235 586/857/216
f 587/858/200 588/859/199 589/860/219
f 590/861/221 591/862/207 592/863/206
f 593/864/222 594/865/212 595/866/211
f 596/867/220 597/868/218 598/869/217
f 611/900/51 612/902/236 626/923/237 625/922/238
f 613/905/51 599/871/239 437/618/240 627/924/241
f 616/911/4 605/885/242 415/580/102 630/929/5
f 618/916/243 607/890/244 619/917/245 632/932/246
f 602/879/99 613/905/51 627/924/241 426/599/5
f 599/871/239 600/874/247 436/617/248 437/618/240
f 604/883/5 603/881/5 425/598/99 416/581/4
f 612/902/236 618/916/243 632/932/246 626/923/237
f 606/887/249 617/914/5 631/930/250 414/579/251
f 615/909/99 616/911/4 630/929/5 629/928/5
f 608/893/104 610/897/5 624/921/252 622/919/253
f 603/881/5 601/877/4 427/600/4 425/598/99
f 617/914/5 615/909/99 629/928/5 631/930/250
f 600/874/247 614/907/254 628/927/255 436/617/248
f 609/895/256 608/893/104 622/919/253 623/920/257
f 610/897/5 604/883/5 416/581/4 624/921/252
f 601/877/4 611/900/51 625/922/238 427/600/4
f 607/890/244 606/887/249 414/579/251 619/917/245
f 614/907/254 609/895/256 623/920/257 628/927/255
f 605/885/242 602/879/99 426/599/5 415/580/102
f 625/922/258 626/923/259 623/920/260 622/919/261
f 628/926/262 632/932/263 619/918/1 600/875/1
s 0
f 606/888/264 599/872/264 600/875/264 619/918/264
s 1
f 635/933/265 606/888/3 599/872/3 636/934/266
f 632/932/263 628/927/262 623/920/260 626/923/259
f 627/925/5 631/931/1 635/933/265 636/934/266
s 0
f 161/227/2 160/225/2 163/231/2 164/233/2
f 170/244/1 169/242/1 639/939/1 640/940/1
f 154/212/51 161/228/51 160/226/51 158/222/51
f 164/234/51 153/210/51 157/219/51 163/232/51
f 161/227/3 164/233/3 639/939/3 640/940/3
f 165/236/5 160/226/5 161/228/5 640/940/5
s 1
f 169/242/267 639/939/4 166/238/4 162/230/4
s 0
f 163/232/4 166/238/4 639/939/4 164/234/4
f 640/940/1 638/938/1 171/246/1 170/244/1
f 154/212/1 638/938/1 640/940/1 161/228/1
f 170/244/2 159/224/2 162/230/2 169/242/2
l 217 599
l 218 600
l 601 629
l 603 630
l 604 605
l 602 624
l 620 634
l 621 633
